<?xml version="1.0" encoding="UTF-8" standalone="no"?><svg xmlns="http://www.w3.org/2000/svg" xmlns:xlink="http://www.w3.org/1999/xlink" contentScriptType="application/ecmascript" contentStyleType="text/css" height="590px" preserveAspectRatio="none" style="width:696px;height:590px;background:#FFFFFF;" version="1.1" viewBox="0 0 696 590" width="696.25px" zoomAndPan="magnify"><defs><filter height="300%" id="f1ehjykuoirowb" width="300%" x="-1" y="-1"><feGaussianBlur result="blurOut" stdDeviation="2.5"/><feColorMatrix in="blurOut" result="blurOut2" type="matrix" values="0 0 0 0 0 0 0 0 0 0 0 0 0 0 0 0 0 0 .4 0"/><feOffset dx="5.0" dy="5.0" in="blurOut2" result="blurOut3"/><feBlend in="SourceGraphic" in2="blurOut3" mode="normal"/></filter></defs><g><rect fill="#FFFFFF" filter="url(#f1ehjykuoirowb)" height="346.4551" style="stroke:#A80036;stroke-width:1.25;" width="12.5" x="99.375" y="124.5117"/><rect fill="#FFFFFF" filter="url(#f1ehjykuoirowb)" height="69.6289" style="stroke:#A80036;stroke-width:1.25;" width="12.5" x="605.625" y="152.4512"/><rect fill="#FFFFFF" filter="url(#f1ehjykuoirowb)" height="107.5684" style="stroke:#A80036;stroke-width:1.25;" width="12.5" x="605.625" y="260.0195"/><rect fill="#FFFFFF" filter="url(#f1ehjykuoirowb)" height="65.4395" style="stroke:#A80036;stroke-width:1.25;" width="12.5" x="605.625" y="405.5273"/><rect fill="#FFFFFF" filter="url(#f1ehjykuoirowb)" height="291.0156" style="stroke:#000000;stroke-width:2.5;" width="666.875" x="12.5" y="171.2012"/><rect fill="#FFFFFF" filter="url(#f1ehjykuoirowb)" height="136.7578" style="stroke:#000000;stroke-width:2.5;" width="641.875" x="25" y="316.709"/><line style="stroke:#A80036;stroke-width:1.25;stroke-dasharray:5.0,5.0;" x1="105" x2="105" y1="112.0117" y2="483.4668"/><line style="stroke:#A80036;stroke-width:1.25;stroke-dasharray:5.0,5.0;" x1="611.875" x2="611.875" y1="112.0117" y2="483.4668"/><text fill="#000000" font-family="sans-serif" font-size="17.5" lengthAdjust="spacing" textLength="128.75" x="37.5" y="108.1665">Lab Coordinator</text><ellipse cx="105.625" cy="18.75" fill="#FEFECE" filter="url(#f1ehjykuoirowb)" rx="10" ry="10" style="stroke:#A80036;stroke-width:2.5;"/><path d="M105.625,28.75 L105.625,62.5 M89.375,38.75 L121.875,38.75 M105.625,62.5 L89.375,81.25 M105.625,62.5 L121.875,81.25 " fill="none" filter="url(#f1ehjykuoirowb)" style="stroke:#A80036;stroke-width:2.5;"/><text fill="#000000" font-family="sans-serif" font-size="17.5" lengthAdjust="spacing" textLength="128.75" x="37.5" y="500.3833">Lab Coordinator</text><ellipse cx="105.625" cy="516.7285" fill="#FEFECE" filter="url(#f1ehjykuoirowb)" rx="10" ry="10" style="stroke:#A80036;stroke-width:2.5;"/><path d="M105.625,526.7285 L105.625,560.4785 M89.375,536.7285 L121.875,536.7285 M105.625,560.4785 L89.375,579.2285 M105.625,560.4785 L121.875,579.2285 " fill="none" filter="url(#f1ehjykuoirowb)" style="stroke:#A80036;stroke-width:2.5;"/><rect fill="#FEFECE" filter="url(#f1ehjykuoirowb)" height="39.5117" style="stroke:#A80036;stroke-width:1.875;" width="80" x="569.375" y="66.25"/><text fill="#000000" font-family="sans-serif" font-size="17.5" lengthAdjust="spacing" textLength="62.5" x="578.125" y="93.1665">:System</text><rect fill="#FEFECE" filter="url(#f1ehjykuoirowb)" height="39.5117" style="stroke:#A80036;stroke-width:1.875;" width="80" x="569.375" y="482.2168"/><text fill="#000000" font-family="sans-serif" font-size="17.5" lengthAdjust="spacing" textLength="62.5" x="578.125" y="509.1333">:System</text><rect fill="#FFFFFF" filter="url(#f1ehjykuoirowb)" height="346.4551" style="stroke:#A80036;stroke-width:1.25;" width="12.5" x="99.375" y="124.5117"/><rect fill="#FFFFFF" filter="url(#f1ehjykuoirowb)" height="69.6289" style="stroke:#A80036;stroke-width:1.25;" width="12.5" x="605.625" y="152.4512"/><rect fill="#FFFFFF" filter="url(#f1ehjykuoirowb)" height="107.5684" style="stroke:#A80036;stroke-width:1.25;" width="12.5" x="605.625" y="260.0195"/><rect fill="#FFFFFF" filter="url(#f1ehjykuoirowb)" height="65.4395" style="stroke:#A80036;stroke-width:1.25;" width="12.5" x="605.625" y="405.5273"/><polygon fill="#A80036" points="590.625,147.4512,603.125,152.4512,590.625,157.4512,595.625,152.4512" style="stroke:#A80036;stroke-width:1.25;"/><line style="stroke:#A80036;stroke-width:1.25;" x1="111.875" x2="598.125" y1="152.4512" y2="152.4512"/><text fill="#000000" font-family="sans-serif" font-size="16.25" font-weight="bold" lengthAdjust="spacing" textLength="8.75" x="120.625" y="146.3806">1</text><text fill="#000000" font-family="sans-serif" font-size="16.25" lengthAdjust="spacing" textLength="456.25" x="134.375" y="146.3806">asks to iniciate a new analyses to the companies performance.</text><path d="M12.5,171.2012 L103.75,171.2012 L103.75,181.2012 L91.25,193.7012 L12.5,193.7012 L12.5,171.2012 " fill="#EEEEEE" style="stroke:#000000;stroke-width:1.25;"/><rect fill="none" height="291.0156" style="stroke:#000000;stroke-width:2.5;" width="666.875" x="12.5" y="171.2012"/><text fill="#000000" font-family="sans-serif" font-size="16.25" font-weight="bold" lengthAdjust="spacing" textLength="35" x="31.25" y="189.3201">loop</text><text fill="#000000" font-family="sans-serif" font-size="13.75" font-weight="bold" lengthAdjust="spacing" textLength="331.25" x="122.5" y="187.9749">[while Coordinator wants to view several dates]</text><polygon fill="#A80036" points="125.625,217.0801,113.125,222.0801,125.625,227.0801,120.625,222.0801" style="stroke:#A80036;stroke-width:1.25;"/><line style="stroke:#A80036;stroke-width:1.25;stroke-dasharray:2.0,2.0;" x1="118.125" x2="610.625" y1="222.0801" y2="222.0801"/><text fill="#000000" font-family="sans-serif" font-size="16.25" font-weight="bold" lengthAdjust="spacing" textLength="8.75" x="133.125" y="216.0095">2</text><text fill="#000000" font-family="sans-serif" font-size="16.25" lengthAdjust="spacing" textLength="216.25" x="146.875" y="216.0095">requests date of start and end</text><polygon fill="#A80036" points="590.625,255.0195,603.125,260.0195,590.625,265.0195,595.625,260.0195" style="stroke:#A80036;stroke-width:1.25;"/><line style="stroke:#A80036;stroke-width:1.25;" x1="111.875" x2="598.125" y1="260.0195" y2="260.0195"/><text fill="#000000" font-family="sans-serif" font-size="16.25" font-weight="bold" lengthAdjust="spacing" textLength="8.75" x="120.625" y="253.949">3</text><text fill="#000000" font-family="sans-serif" font-size="16.25" lengthAdjust="spacing" textLength="152.5" x="134.375" y="253.949">types requested data</text><polygon fill="#A80036" points="125.625,292.959,113.125,297.959,125.625,302.959,120.625,297.959" style="stroke:#A80036;stroke-width:1.25;"/><line style="stroke:#A80036;stroke-width:1.25;stroke-dasharray:2.0,2.0;" x1="118.125" x2="604.375" y1="297.959" y2="297.959"/><text fill="#000000" font-family="sans-serif" font-size="16.25" font-weight="bold" lengthAdjust="spacing" textLength="8.75" x="133.125" y="291.8884">4</text><text fill="#000000" font-family="sans-serif" font-size="16.25" lengthAdjust="spacing" textLength="206.25" x="146.875" y="291.8884">shows performance graphics</text><path d="M25,316.709 L116.25,316.709 L116.25,326.709 L103.75,339.209 L25,339.209 L25,316.709 " fill="#EEEEEE" style="stroke:#000000;stroke-width:1.25;"/><rect fill="none" height="136.7578" style="stroke:#000000;stroke-width:2.5;" width="641.875" x="25" y="316.709"/><text fill="#000000" font-family="sans-serif" font-size="16.25" font-weight="bold" lengthAdjust="spacing" textLength="35" x="43.75" y="334.8279">loop</text><text fill="#000000" font-family="sans-serif" font-size="13.75" font-weight="bold" lengthAdjust="spacing" textLength="366.25" x="135" y="333.4827">[while Coordinator wants to try different algorythms]</text><polygon fill="#A80036" points="125.625,362.5879,113.125,367.5879,125.625,372.5879,120.625,367.5879" style="stroke:#A80036;stroke-width:1.25;"/><line style="stroke:#A80036;stroke-width:1.25;stroke-dasharray:2.0,2.0;" x1="118.125" x2="610.625" y1="367.5879" y2="367.5879"/><text fill="#000000" font-family="sans-serif" font-size="16.25" font-weight="bold" lengthAdjust="spacing" textLength="8.75" x="133.125" y="361.5173">5</text><text fill="#000000" font-family="sans-serif" font-size="16.25" lengthAdjust="spacing" textLength="251.25" x="146.875" y="361.5173">requestes the algorithm to be used</text><polygon fill="#A80036" points="590.625,400.5273,603.125,405.5273,590.625,410.5273,595.625,405.5273" style="stroke:#A80036;stroke-width:1.25;"/><line style="stroke:#A80036;stroke-width:1.25;" x1="111.875" x2="598.125" y1="405.5273" y2="405.5273"/><text fill="#000000" font-family="sans-serif" font-size="16.25" font-weight="bold" lengthAdjust="spacing" textLength="8.75" x="120.625" y="399.4568">6</text><text fill="#000000" font-family="sans-serif" font-size="16.25" lengthAdjust="spacing" textLength="110" x="134.375" y="399.4568">chooses option</text><polygon fill="#A80036" points="125.625,438.4668,113.125,443.4668,125.625,448.4668,120.625,443.4668" style="stroke:#A80036;stroke-width:1.25;"/><line style="stroke:#A80036;stroke-width:1.25;stroke-dasharray:2.0,2.0;" x1="118.125" x2="604.375" y1="443.4668" y2="443.4668"/><text fill="#000000" font-family="sans-serif" font-size="16.25" font-weight="bold" lengthAdjust="spacing" textLength="8.75" x="133.125" y="437.3962">7</text><text fill="#000000" font-family="sans-serif" font-size="16.25" lengthAdjust="spacing" textLength="377.5" x="146.875" y="437.3962">shows contiguous subsequence with maximum sum</text><!--MD5=[dec7449630c226ea05c4a3fc4a5a8b90]
@startuml
autonumber
actor "Lab Coordinator" as OE

activate OE
OE -> ":System" : asks to iniciate a new analyses to the companies performance.
activate ":System"
loop while Coordinator wants to view several dates
":System" - -> OE : requests date of start and end
deactivate ":System"

OE -> ":System" : types requested data
activate ":System"

":System" - -> OE : shows performance graphics
loop while Coordinator wants to try different algorythms
":System" - -> OE : requestes the algorithm to be used
deactivate ":System"


OE -> ":System" : chooses option
activate ":System"

":System" - -> OE : shows contiguous subsequence with maximum sum
end
end
deactivate ":System"
deactivate OE

@enduml

PlantUML version 1.2021.7(Sun May 23 13:40:07 BST 2021)
(GPL source distribution)
Java Runtime: OpenJDK Runtime Environment
JVM: Dynamic Code Evolution 64-Bit Server VM
Default Encoding: Cp1252
Language: pt
Country: PT
--></g></svg>