<?xml version="1.0" encoding="UTF-8" standalone="no"?><svg xmlns="http://www.w3.org/2000/svg" xmlns:xlink="http://www.w3.org/1999/xlink" contentScriptType="application/ecmascript" contentStyleType="text/css" height="898.75px" preserveAspectRatio="none" style="width:965px;height:898px;background:#FFFFFF;" version="1.1" viewBox="0 0 965 898" width="965px" zoomAndPan="magnify"><defs><filter height="300%" id="f1v1bc2rxwd2fp" width="300%" x="-1" y="-1"><feGaussianBlur result="blurOut" stdDeviation="2.5"/><feColorMatrix in="blurOut" result="blurOut2" type="matrix" values="0 0 0 0 0 0 0 0 0 0 0 0 0 0 0 0 0 0 .4 0"/><feOffset dx="5.0" dy="5.0" in="blurOut2" result="blurOut3"/><feBlend in="SourceGraphic" in2="blurOut3" mode="normal"/></filter></defs><g><!--MD5=[98c05957f469fc04e8bd6e53319922c9]
class ListOfTests--><rect codeLine="3" fill="#FEFECE" filter="url(#f1v1bc2rxwd2fp)" height="60" id="ListOfTests" style="stroke:#A80036;stroke-width:1.875;" width="115" x="270.625" y="410.625"/><ellipse cx="289.375" cy="430.625" fill="#B4A7E5" rx="13.75" ry="13.75" style="stroke:#A80036;stroke-width:1.25;"/><path d="M290.625,426.875 L290.625,434.375 L293.125,434.375 L293.7305,434.375 L294.375,435.1563 L294.375,435.625 L294.375,436.0938 L293.7305,436.875 L293.125,436.875 L285.625,436.875 L285.0195,436.875 L284.375,436.0938 L284.375,435.625 L284.375,435.1563 L285.0195,434.375 L285.625,434.375 L288.125,434.375 L288.125,426.875 L285.625,426.875 L285.0195,426.875 L284.375,426.0938 L284.375,425.625 L284.375,425.1563 L285.0195,424.375 L285.625,424.375 L293.125,424.375 L293.7305,424.375 L294.375,425.1563 L294.375,425.625 L294.375,426.0938 L293.7305,426.875 L293.125,426.875 L290.625,426.875 Z " fill="#000000"/><text fill="#000000" font-family="sans-serif" font-size="15" font-style="italic" lengthAdjust="spacing" textLength="75" x="306.875" y="436.7627">ListOfTests</text><line style="stroke:#A80036;stroke-width:1.875;" x1="271.875" x2="384.375" y1="450.625" y2="450.625"/><line style="stroke:#A80036;stroke-width:1.875;" x1="271.875" x2="384.375" y1="460.625" y2="460.625"/><!--MD5=[05b2718cbf19144e90a32deb2e3e115b]
class ListOfDates--><rect codeLine="4" fill="#FEFECE" filter="url(#f1v1bc2rxwd2fp)" height="60" id="ListOfDates" style="stroke:#A80036;stroke-width:1.875;" width="118.75" x="8.75" y="637.5"/><ellipse cx="27.5" cy="657.5" fill="#B4A7E5" rx="13.75" ry="13.75" style="stroke:#A80036;stroke-width:1.25;"/><path d="M28.75,653.75 L28.75,661.25 L31.25,661.25 L31.8555,661.25 L32.5,662.0313 L32.5,662.5 L32.5,662.9688 L31.8555,663.75 L31.25,663.75 L23.75,663.75 L23.1445,663.75 L22.5,662.9688 L22.5,662.5 L22.5,662.0313 L23.1445,661.25 L23.75,661.25 L26.25,661.25 L26.25,653.75 L23.75,653.75 L23.1445,653.75 L22.5,652.9688 L22.5,652.5 L22.5,652.0313 L23.1445,651.25 L23.75,651.25 L31.25,651.25 L31.8555,651.25 L32.5,652.0313 L32.5,652.5 L32.5,652.9688 L31.8555,653.75 L31.25,653.75 L28.75,653.75 Z " fill="#000000"/><text fill="#000000" font-family="sans-serif" font-size="15" font-style="italic" lengthAdjust="spacing" textLength="78.75" x="45" y="663.6377">ListOfDates</text><line style="stroke:#A80036;stroke-width:1.875;" x1="10" x2="126.25" y1="677.5" y2="677.5"/><line style="stroke:#A80036;stroke-width:1.875;" x1="10" x2="126.25" y1="687.5" y2="687.5"/><!--MD5=[fce3d33288f3decbcb1a05192f19f98a]
class ListOfClients--><rect codeLine="5" fill="#FEFECE" filter="url(#f1v1bc2rxwd2fp)" height="60" id="ListOfClients" style="stroke:#A80036;stroke-width:1.875;" width="126.25" x="265" y="821.25"/><ellipse cx="283.75" cy="841.25" fill="#B4A7E5" rx="13.75" ry="13.75" style="stroke:#A80036;stroke-width:1.25;"/><path d="M285,837.5 L285,845 L287.5,845 L288.1055,845 L288.75,845.7813 L288.75,846.25 L288.75,846.7188 L288.1055,847.5 L287.5,847.5 L280,847.5 L279.3945,847.5 L278.75,846.7188 L278.75,846.25 L278.75,845.7813 L279.3945,845 L280,845 L282.5,845 L282.5,837.5 L280,837.5 L279.3945,837.5 L278.75,836.7188 L278.75,836.25 L278.75,835.7813 L279.3945,835 L280,835 L287.5,835 L288.1055,835 L288.75,835.7813 L288.75,836.25 L288.75,836.7188 L288.1055,837.5 L287.5,837.5 L285,837.5 Z " fill="#000000"/><text fill="#000000" font-family="sans-serif" font-size="15" font-style="italic" lengthAdjust="spacing" textLength="86.25" x="301.25" y="847.3877">ListOfClients</text><line style="stroke:#A80036;stroke-width:1.875;" x1="266.25" x2="390" y1="861.25" y2="861.25"/><line style="stroke:#A80036;stroke-width:1.875;" x1="266.25" x2="390" y1="871.25" y2="871.25"/><!--MD5=[61635451a40aa5589ddd4cd28847754f]
class PerformanceController--><rect codeLine="7" fill="#FEFECE" filter="url(#f1v1bc2rxwd2fp)" height="146.4746" id="PerformanceController" style="stroke:#A80036;stroke-width:1.875;" width="281.25" x="545" y="145"/><ellipse cx="602.1875" cy="165" fill="#ADD1B2" rx="13.75" ry="13.75" style="stroke:#A80036;stroke-width:1.25;"/><path d="M604.6875,160.625 Q604.9414,160 605.2344,159.6875 Q605.5273,159.375 605.8594,159.375 Q606.4453,159.375 606.8164,159.7266 Q607.1875,160.0781 607.1875,160.8984 L607.1875,162.8516 Q607.1875,163.6719 606.8359,164.0234 Q606.4844,164.375 605.9375,164.375 Q605.4492,164.375 605.1367,164.1602 Q604.8242,163.9453 604.6875,163.3789 Q604.6289,162.9883 604.4141,162.7734 Q604.0234,162.3633 603.3203,162.1289 Q602.6172,161.875 601.9141,161.875 Q601.0352,161.875 600.293,162.2266 Q599.5703,162.5781 599.0039,163.3594 Q598.4375,164.1406 598.4375,165.2148 L598.4375,166.3672 Q598.4375,167.6563 599.4922,168.5156 Q600.5469,169.375 602.4219,169.375 Q603.5352,169.375 604.3164,169.1211 Q604.7656,168.9844 605.2734,168.5352 Q605.6055,168.2813 605.7813,168.2031 Q605.957,168.125 606.1719,168.125 Q606.582,168.125 606.875,168.457 Q607.1875,168.7695 607.1875,169.2188 Q607.1875,169.6484 606.7578,170.1563 Q606.1328,170.8984 605.1367,171.3086 Q603.8281,171.875 602.2266,171.875 Q600.3516,171.875 598.8477,171.1328 Q597.6367,170.5469 596.7773,169.2773 Q595.9375,168.0078 595.9375,166.5039 L595.9375,165.1367 Q595.9375,163.5742 596.6797,162.207 Q597.4414,160.8398 598.75,160.1172 Q600.0781,159.375 601.5625,159.375 Q602.4609,159.375 603.2422,159.6875 Q604.0234,160 604.6875,160.625 Z " fill="#000000"/><text fill="#000000" font-family="sans-serif" font-size="15" lengthAdjust="spacing" textLength="156.25" x="627.8125" y="171.1377">PerformanceController</text><line style="stroke:#A80036;stroke-width:1.875;" x1="546.25" x2="825" y1="185" y2="185"/><text fill="#000000" font-family="sans-serif" font-size="13.75" lengthAdjust="spacing" textLength="76.25" x="552.5" y="204.2737">-int algorithm</text><text fill="#000000" font-family="sans-serif" font-size="13.75" lengthAdjust="spacing" textLength="91.25" x="552.5" y="221.5686">-Date startDate</text><text fill="#000000" font-family="sans-serif" font-size="13.75" lengthAdjust="spacing" textLength="86.25" x="552.5" y="238.8635">-Date endDate</text><line style="stroke:#A80036;stroke-width:1.875;" x1="546.25" x2="825" y1="246.8848" y2="246.8848"/><text fill="#000000" font-family="sans-serif" font-size="13.75" lengthAdjust="spacing" textLength="91.25" x="552.5" y="266.1584">+getStatistics()</text><text fill="#000000" font-family="sans-serif" font-size="13.75" lengthAdjust="spacing" textLength="266.25" x="552.5" y="283.4534">+getSubarray(algorithm, startDate, endDate)</text><!--MD5=[9fb6dac11bbde13a6b7e8c4e5ea77cec]
class PerformanceUI--><rect codeLine="16" fill="#FEFECE" filter="url(#f1v1bc2rxwd2fp)" height="60" id="PerformanceUI" style="stroke:#A80036;stroke-width:1.875;" width="143.75" x="613.75" y="8.75"/><ellipse cx="632.5" cy="28.75" fill="#ADD1B2" rx="13.75" ry="13.75" style="stroke:#A80036;stroke-width:1.25;"/><path d="M635,24.375 Q635.2539,23.75 635.5469,23.4375 Q635.8398,23.125 636.1719,23.125 Q636.7578,23.125 637.1289,23.4766 Q637.5,23.8281 637.5,24.6484 L637.5,26.6016 Q637.5,27.4219 637.1484,27.7734 Q636.7969,28.125 636.25,28.125 Q635.7617,28.125 635.4492,27.9102 Q635.1367,27.6953 635,27.1289 Q634.9414,26.7383 634.7266,26.5234 Q634.3359,26.1133 633.6328,25.8789 Q632.9297,25.625 632.2266,25.625 Q631.3477,25.625 630.6055,25.9766 Q629.8828,26.3281 629.3164,27.1094 Q628.75,27.8906 628.75,28.9648 L628.75,30.1172 Q628.75,31.4063 629.8047,32.2656 Q630.8594,33.125 632.7344,33.125 Q633.8477,33.125 634.6289,32.8711 Q635.0781,32.7344 635.5859,32.2852 Q635.918,32.0313 636.0938,31.9531 Q636.2695,31.875 636.4844,31.875 Q636.8945,31.875 637.1875,32.207 Q637.5,32.5195 637.5,32.9688 Q637.5,33.3984 637.0703,33.9063 Q636.4453,34.6484 635.4492,35.0586 Q634.1406,35.625 632.5391,35.625 Q630.6641,35.625 629.1602,34.8828 Q627.9492,34.2969 627.0898,33.0273 Q626.25,31.7578 626.25,30.2539 L626.25,28.8867 Q626.25,27.3242 626.9922,25.957 Q627.7539,24.5898 629.0625,23.8672 Q630.3906,23.125 631.875,23.125 Q632.7734,23.125 633.5547,23.4375 Q634.3359,23.75 635,24.375 Z " fill="#000000"/><text fill="#000000" font-family="sans-serif" font-size="15" lengthAdjust="spacing" textLength="103.75" x="650" y="34.8877">PerformanceUI</text><line style="stroke:#A80036;stroke-width:1.875;" x1="615" x2="756.25" y1="48.75" y2="48.75"/><line style="stroke:#A80036;stroke-width:1.875;" x1="615" x2="756.25" y1="58.75" y2="58.75"/><!--MD5=[0f6f7964b844a64b0496af0dda7914bd]
class TestStore--><rect codeLine="20" fill="#FEFECE" filter="url(#f1v1bc2rxwd2fp)" height="77.2949" id="TestStore" style="stroke:#A80036;stroke-width:1.875;" width="106.25" x="463.75" y="628.75"/><ellipse cx="482.5" cy="648.75" fill="#ADD1B2" rx="13.75" ry="13.75" style="stroke:#A80036;stroke-width:1.25;"/><path d="M485,644.375 Q485.2539,643.75 485.5469,643.4375 Q485.8398,643.125 486.1719,643.125 Q486.7578,643.125 487.1289,643.4766 Q487.5,643.8281 487.5,644.6484 L487.5,646.6016 Q487.5,647.4219 487.1484,647.7734 Q486.7969,648.125 486.25,648.125 Q485.7617,648.125 485.4492,647.9102 Q485.1367,647.6953 485,647.1289 Q484.9414,646.7383 484.7266,646.5234 Q484.3359,646.1133 483.6328,645.8789 Q482.9297,645.625 482.2266,645.625 Q481.3477,645.625 480.6055,645.9766 Q479.8828,646.3281 479.3164,647.1094 Q478.75,647.8906 478.75,648.9648 L478.75,650.1172 Q478.75,651.4063 479.8047,652.2656 Q480.8594,653.125 482.7344,653.125 Q483.8477,653.125 484.6289,652.8711 Q485.0781,652.7344 485.5859,652.2852 Q485.918,652.0313 486.0938,651.9531 Q486.2695,651.875 486.4844,651.875 Q486.8945,651.875 487.1875,652.207 Q487.5,652.5195 487.5,652.9688 Q487.5,653.3984 487.0703,653.9063 Q486.4453,654.6484 485.4492,655.0586 Q484.1406,655.625 482.5391,655.625 Q480.6641,655.625 479.1602,654.8828 Q477.9492,654.2969 477.0898,653.0273 Q476.25,651.7578 476.25,650.2539 L476.25,648.8867 Q476.25,647.3242 476.9922,645.957 Q477.7539,644.5898 479.0625,643.8672 Q480.3906,643.125 481.875,643.125 Q482.7734,643.125 483.5547,643.4375 Q484.3359,643.75 485,644.375 Z " fill="#000000"/><text fill="#000000" font-family="sans-serif" font-size="15" lengthAdjust="spacing" textLength="66.25" x="500" y="654.8877">TestStore</text><line style="stroke:#A80036;stroke-width:1.875;" x1="465" x2="568.75" y1="668.75" y2="668.75"/><line style="stroke:#A80036;stroke-width:1.875;" x1="465" x2="568.75" y1="678.75" y2="678.75"/><text fill="#000000" font-family="sans-serif" font-size="13.75" lengthAdjust="spacing" textLength="71.25" x="471.25" y="698.0237">+getDates()</text><!--MD5=[4c0aa57da2b49f4d96495d7a88289668]
class PerformanceStore--><rect codeLine="24" fill="#FEFECE" filter="url(#f1v1bc2rxwd2fp)" height="146.4746" id="PerformanceStore" style="stroke:#A80036;stroke-width:1.875;" width="258.75" x="556.25" y="367.5"/><ellipse cx="617.8125" cy="387.5" fill="#ADD1B2" rx="13.75" ry="13.75" style="stroke:#A80036;stroke-width:1.25;"/><path d="M620.3125,383.125 Q620.5664,382.5 620.8594,382.1875 Q621.1523,381.875 621.4844,381.875 Q622.0703,381.875 622.4414,382.2266 Q622.8125,382.5781 622.8125,383.3984 L622.8125,385.3516 Q622.8125,386.1719 622.4609,386.5234 Q622.1094,386.875 621.5625,386.875 Q621.0742,386.875 620.7617,386.6602 Q620.4492,386.4453 620.3125,385.8789 Q620.2539,385.4883 620.0391,385.2734 Q619.6484,384.8633 618.9453,384.6289 Q618.2422,384.375 617.5391,384.375 Q616.6602,384.375 615.918,384.7266 Q615.1953,385.0781 614.6289,385.8594 Q614.0625,386.6406 614.0625,387.7148 L614.0625,388.8672 Q614.0625,390.1563 615.1172,391.0156 Q616.1719,391.875 618.0469,391.875 Q619.1602,391.875 619.9414,391.6211 Q620.3906,391.4844 620.8984,391.0352 Q621.2305,390.7813 621.4063,390.7031 Q621.582,390.625 621.7969,390.625 Q622.207,390.625 622.5,390.957 Q622.8125,391.2695 622.8125,391.7188 Q622.8125,392.1484 622.3828,392.6563 Q621.7578,393.3984 620.7617,393.8086 Q619.4531,394.375 617.8516,394.375 Q615.9766,394.375 614.4727,393.6328 Q613.2617,393.0469 612.4023,391.7773 Q611.5625,390.5078 611.5625,389.0039 L611.5625,387.6367 Q611.5625,386.0742 612.3047,384.707 Q613.0664,383.3398 614.375,382.6172 Q615.7031,381.875 617.1875,381.875 Q618.0859,381.875 618.8672,382.1875 Q619.6484,382.5 620.3125,383.125 Z " fill="#000000"/><text fill="#000000" font-family="sans-serif" font-size="15" lengthAdjust="spacing" textLength="125" x="643.4375" y="393.6377">PerformanceStore</text><line style="stroke:#A80036;stroke-width:1.875;" x1="557.5" x2="813.75" y1="407.5" y2="407.5"/><text fill="#000000" font-family="sans-serif" font-size="13.75" lengthAdjust="spacing" textLength="76.25" x="563.75" y="426.7737">-int algorithm</text><text fill="#000000" font-family="sans-serif" font-size="13.75" lengthAdjust="spacing" textLength="91.25" x="563.75" y="444.0686">-Date startDate</text><text fill="#000000" font-family="sans-serif" font-size="13.75" lengthAdjust="spacing" textLength="86.25" x="563.75" y="461.3635">-Date endDate</text><line style="stroke:#A80036;stroke-width:1.875;" x1="557.5" x2="813.75" y1="469.3848" y2="469.3848"/><text fill="#000000" font-family="sans-serif" font-size="13.75" lengthAdjust="spacing" textLength="243.75" x="563.75" y="488.6584">+getTests(algorithm, startDate, endDate)</text><text fill="#000000" font-family="sans-serif" font-size="13.75" lengthAdjust="spacing" textLength="203.75" x="563.75" y="505.9534">+getStatistics(startDate, endDate)</text><!--MD5=[dec9f04a8899c200311ed18dfb85f568]
class BruteForce--><rect codeLine="34" fill="#FEFECE" filter="url(#f1v1bc2rxwd2fp)" height="94.5898" id="BruteForce" style="stroke:#A80036;stroke-width:1.875;" width="146.25" x="801.25" y="620"/><ellipse cx="834.0625" cy="640" fill="#ADD1B2" rx="13.75" ry="13.75" style="stroke:#A80036;stroke-width:1.25;"/><path d="M836.5625,635.625 Q836.8164,635 837.1094,634.6875 Q837.4023,634.375 837.7344,634.375 Q838.3203,634.375 838.6914,634.7266 Q839.0625,635.0781 839.0625,635.8984 L839.0625,637.8516 Q839.0625,638.6719 838.7109,639.0234 Q838.3594,639.375 837.8125,639.375 Q837.3242,639.375 837.0117,639.1602 Q836.6992,638.9453 836.5625,638.3789 Q836.5039,637.9883 836.2891,637.7734 Q835.8984,637.3633 835.1953,637.1289 Q834.4922,636.875 833.7891,636.875 Q832.9102,636.875 832.168,637.2266 Q831.4453,637.5781 830.8789,638.3594 Q830.3125,639.1406 830.3125,640.2148 L830.3125,641.3672 Q830.3125,642.6563 831.3672,643.5156 Q832.4219,644.375 834.2969,644.375 Q835.4102,644.375 836.1914,644.1211 Q836.6406,643.9844 837.1484,643.5352 Q837.4805,643.2813 837.6563,643.2031 Q837.832,643.125 838.0469,643.125 Q838.457,643.125 838.75,643.457 Q839.0625,643.7695 839.0625,644.2188 Q839.0625,644.6484 838.6328,645.1563 Q838.0078,645.8984 837.0117,646.3086 Q835.7031,646.875 834.1016,646.875 Q832.2266,646.875 830.7227,646.1328 Q829.5117,645.5469 828.6523,644.2773 Q827.8125,643.0078 827.8125,641.5039 L827.8125,640.1367 Q827.8125,638.5742 828.5547,637.207 Q829.3164,635.8398 830.625,635.1172 Q831.9531,634.375 833.4375,634.375 Q834.3359,634.375 835.1172,634.6875 Q835.8984,635 836.5625,635.625 Z " fill="#000000"/><text fill="#000000" font-family="sans-serif" font-size="15" lengthAdjust="spacing" textLength="75" x="854.6875" y="646.1377">BruteForce</text><line style="stroke:#A80036;stroke-width:1.875;" x1="802.5" x2="946.25" y1="660" y2="660"/><text fill="#000000" font-family="sans-serif" font-size="13.75" lengthAdjust="spacing" textLength="62.5" x="808.75" y="679.2737">-int[] array</text><line style="stroke:#A80036;stroke-width:1.875;" x1="802.5" x2="946.25" y1="687.2949" y2="687.2949"/><text fill="#000000" font-family="sans-serif" font-size="13.75" lengthAdjust="spacing" textLength="131.25" x="808.75" y="706.5686">+masSubarray(array)</text><!--MD5=[02e4b9b7573f1156f41e60aa5b4e25a4]
class Company--><rect codeLine="40" fill="#FEFECE" filter="url(#f1v1bc2rxwd2fp)" height="111.8848" id="Company" style="stroke:#A80036;stroke-width:1.875;" width="110" x="273.125" y="611.25"/><ellipse cx="293.5625" cy="631.25" fill="#ADD1B2" rx="13.75" ry="13.75" style="stroke:#A80036;stroke-width:1.25;"/><path d="M296.0625,626.875 Q296.3164,626.25 296.6094,625.9375 Q296.9023,625.625 297.2344,625.625 Q297.8203,625.625 298.1914,625.9766 Q298.5625,626.3281 298.5625,627.1484 L298.5625,629.1016 Q298.5625,629.9219 298.2109,630.2734 Q297.8594,630.625 297.3125,630.625 Q296.8242,630.625 296.5117,630.4102 Q296.1992,630.1953 296.0625,629.6289 Q296.0039,629.2383 295.7891,629.0234 Q295.3984,628.6133 294.6953,628.3789 Q293.9922,628.125 293.2891,628.125 Q292.4102,628.125 291.668,628.4766 Q290.9453,628.8281 290.3789,629.6094 Q289.8125,630.3906 289.8125,631.4648 L289.8125,632.6172 Q289.8125,633.9063 290.8672,634.7656 Q291.9219,635.625 293.7969,635.625 Q294.9102,635.625 295.6914,635.3711 Q296.1406,635.2344 296.6484,634.7852 Q296.9805,634.5313 297.1563,634.4531 Q297.332,634.375 297.5469,634.375 Q297.957,634.375 298.25,634.707 Q298.5625,635.0195 298.5625,635.4688 Q298.5625,635.8984 298.1328,636.4063 Q297.5078,637.1484 296.5117,637.5586 Q295.2031,638.125 293.6016,638.125 Q291.7266,638.125 290.2227,637.3828 Q289.0117,636.7969 288.1523,635.5273 Q287.3125,634.2578 287.3125,632.7539 L287.3125,631.3867 Q287.3125,629.8242 288.0547,628.457 Q288.8164,627.0898 290.125,626.3672 Q291.4531,625.625 292.9375,625.625 Q293.8359,625.625 294.6172,625.9375 Q295.3984,626.25 296.0625,626.875 Z " fill="#000000"/><text fill="#000000" font-family="sans-serif" font-size="15" lengthAdjust="spacing" textLength="66.25" x="311.4375" y="637.3877">Company</text><line style="stroke:#A80036;stroke-width:1.875;" x1="274.375" x2="381.875" y1="651.25" y2="651.25"/><line style="stroke:#A80036;stroke-width:1.875;" x1="274.375" x2="381.875" y1="661.25" y2="661.25"/><text fill="#000000" font-family="sans-serif" font-size="13.75" lengthAdjust="spacing" textLength="83.75" x="280.625" y="680.5237">+getTestList()</text><text fill="#000000" font-family="sans-serif" font-size="13.75" lengthAdjust="spacing" textLength="90" x="280.625" y="697.8186">+getClientList()</text><text fill="#000000" font-family="sans-serif" font-size="13.75" lengthAdjust="spacing" textLength="95" x="280.625" y="715.1135">+getTestStore()</text><!--MD5=[897f9829cb310fdcf4980ae83635c6da]
class OtherAlgorithm--><rect codeLine="47" fill="#FEFECE" filter="url(#f1v1bc2rxwd2fp)" height="94.5898" id="OtherAlgorithm" style="stroke:#A80036;stroke-width:1.875;" width="142.5" x="614.375" y="620"/><ellipse cx="633.125" cy="640" fill="#ADD1B2" rx="13.75" ry="13.75" style="stroke:#A80036;stroke-width:1.25;"/><path d="M635.625,635.625 Q635.8789,635 636.1719,634.6875 Q636.4648,634.375 636.7969,634.375 Q637.3828,634.375 637.7539,634.7266 Q638.125,635.0781 638.125,635.8984 L638.125,637.8516 Q638.125,638.6719 637.7734,639.0234 Q637.4219,639.375 636.875,639.375 Q636.3867,639.375 636.0742,639.1602 Q635.7617,638.9453 635.625,638.3789 Q635.5664,637.9883 635.3516,637.7734 Q634.9609,637.3633 634.2578,637.1289 Q633.5547,636.875 632.8516,636.875 Q631.9727,636.875 631.2305,637.2266 Q630.5078,637.5781 629.9414,638.3594 Q629.375,639.1406 629.375,640.2148 L629.375,641.3672 Q629.375,642.6563 630.4297,643.5156 Q631.4844,644.375 633.3594,644.375 Q634.4727,644.375 635.2539,644.1211 Q635.7031,643.9844 636.2109,643.5352 Q636.543,643.2813 636.7188,643.2031 Q636.8945,643.125 637.1094,643.125 Q637.5195,643.125 637.8125,643.457 Q638.125,643.7695 638.125,644.2188 Q638.125,644.6484 637.6953,645.1563 Q637.0703,645.8984 636.0742,646.3086 Q634.7656,646.875 633.1641,646.875 Q631.2891,646.875 629.7852,646.1328 Q628.5742,645.5469 627.7148,644.2773 Q626.875,643.0078 626.875,641.5039 L626.875,640.1367 Q626.875,638.5742 627.6172,637.207 Q628.3789,635.8398 629.6875,635.1172 Q631.0156,634.375 632.5,634.375 Q633.3984,634.375 634.1797,634.6875 Q634.9609,635 635.625,635.625 Z " fill="#000000"/><text fill="#000000" font-family="sans-serif" font-size="15" lengthAdjust="spacing" textLength="102.5" x="650.625" y="646.1377">OtherAlgorithm</text><line style="stroke:#A80036;stroke-width:1.875;" x1="615.625" x2="755.625" y1="660" y2="660"/><text fill="#000000" font-family="sans-serif" font-size="13.75" lengthAdjust="spacing" textLength="62.5" x="621.875" y="679.2737">-int[] array</text><line style="stroke:#A80036;stroke-width:1.875;" x1="615.625" x2="755.625" y1="687.2949" y2="687.2949"/><text fill="#000000" font-family="sans-serif" font-size="13.75" lengthAdjust="spacing" textLength="78.75" x="621.875" y="706.5686">+MAX(array)</text><!--MD5=[02655fe311d5bf0e31cca58a2df6e816]
link PerformanceUI to PerformanceController--><path codeLine="53" d="M685.625,68.8125 C685.625,87.85 685.625,113.8 685.625,138.65 " fill="none" id="PerformanceUI-to-PerformanceController" style="stroke:#A80036;stroke-width:1.25;stroke-dasharray:7.0,7.0;"/><polygon fill="#A80036" points="685.625,144.9375,690.625,133.6875,685.625,138.6875,680.625,133.6875,685.625,144.9375" style="stroke:#A80036;stroke-width:1.25;"/><!--MD5=[9ac6d9f3282be27d7bdc76bf2782d6c8]
link PerformanceController to PerformanceStore--><path codeLine="54" d="M685.625,291.4125 C685.625,313.6375 685.625,338.2125 685.625,360.85 " fill="none" id="PerformanceController-to-PerformanceStore" style="stroke:#A80036;stroke-width:1.25;stroke-dasharray:7.0,7.0;"/><polygon fill="#A80036" points="685.625,367.175,690.625,355.925,685.625,360.925,680.625,355.925,685.625,367.175" style="stroke:#A80036;stroke-width:1.25;"/><!--MD5=[14193188e7510d3651ec085d5e58ba85]
link PerformanceStore to Company--><path codeLine="55" d="M571.0375,513.8 C510.5375,551.7625 438.7375,596.825 388.9625,628.0625 " fill="none" id="PerformanceStore-to-Company" style="stroke:#A80036;stroke-width:1.25;stroke-dasharray:7.0,7.0;"/><polygon fill="#A80036" points="383.6125,631.425,395.7983,629.6729,388.9044,628.0997,390.4777,621.2058,383.6125,631.425" style="stroke:#A80036;stroke-width:1.25;"/><!--MD5=[3c15b765de76219e4e8c11cd0202a01b]
link PerformanceStore to BruteForce--><path codeLine="56" d="M746.3875,514.1 C774,546.925 806.0125,584.9875 831.125,614.8375 " fill="none" id="PerformanceStore-to-BruteForce" style="stroke:#A80036;stroke-width:1.25;stroke-dasharray:7.0,7.0;"/><polygon fill="#A80036" points="835.4125,619.9375,831.9824,608.1139,831.3834,615.1596,824.3377,614.5606,835.4125,619.9375" style="stroke:#A80036;stroke-width:1.25;"/><!--MD5=[d9677ddd40f16010a625ea7f3f9b0a63]
link PerformanceStore to OtherAlgorithm--><path codeLine="57" d="M685.625,514.1 C685.625,546.375 685.625,583.7375 685.625,613.35 " fill="none" id="PerformanceStore-to-OtherAlgorithm" style="stroke:#A80036;stroke-width:1.25;stroke-dasharray:7.0,7.0;"/><polygon fill="#A80036" points="685.625,619.9375,690.625,608.6875,685.625,613.6875,680.625,608.6875,685.625,619.9375" style="stroke:#A80036;stroke-width:1.25;"/><!--MD5=[7f6cf7f175eae0af66201860de5de971]
link Company to TestStore--><path codeLine="58" d="M383.225,667.5 C406.4,667.5 433.425,667.5 457.075,667.5 " fill="none" id="Company-to-TestStore" style="stroke:#A80036;stroke-width:1.25;"/><polygon fill="#A80036" points="463.65,667.5,452.4,662.5,457.4,667.5,452.4,672.5,463.65,667.5" style="stroke:#A80036;stroke-width:1.25;"/><text fill="#000000" font-family="sans-serif" font-size="16.25" lengthAdjust="spacing" textLength="35" x="405.9375" y="659.3689">uses</text><text fill="#000000" font-family="sans-serif" font-size="16.25" lengthAdjust="spacing" textLength="8.75" x="393.0755" y="662.8">1</text><text fill="#000000" font-family="sans-serif" font-size="16.25" lengthAdjust="spacing" textLength="8.75" x="445" y="662.7055">1</text><!--MD5=[097431ac012428754271d2bf3a824f07]
reverse link ListOfDates to Company--><path codeLine="59" d="M134.5375,667.5 C177.325,667.5 232.325,667.5 272.75,667.5 " fill="none" id="ListOfDates-backto-Company" style="stroke:#A80036;stroke-width:1.25;"/><polygon fill="#A80036" points="127.775,667.5,139.025,672.5,134.025,667.5,139.025,662.5,127.775,667.5" style="stroke:#A80036;stroke-width:1.25;"/><polygon fill="#000000" points="149.0625,652.7197,160.3689,656.3934,160.3689,649.0461,149.0625,652.7197" style="stroke:#000000;stroke-width:1.25;"/><text fill="#000000" font-family="sans-serif" font-size="16.25" lengthAdjust="spacing" textLength="83.75" x="166.5625" y="659.3689">implements</text><text fill="#000000" font-family="sans-serif" font-size="16.25" lengthAdjust="spacing" textLength="8.75" x="137.5788" y="662.8713">1</text><text fill="#000000" font-family="sans-serif" font-size="16.25" lengthAdjust="spacing" textLength="8.75" x="254.4773" y="662.8592">1</text><!--MD5=[10fbeafb1ce0451ba1e6bb56844d1b05]
reverse link ListOfTests to Company--><path codeLine="60" d="M328.125,477.2 C328.125,513.05 328.125,569.0625 328.125,610.825 " fill="none" id="ListOfTests-backto-Company" style="stroke:#A80036;stroke-width:1.25;"/><polygon fill="#A80036" points="328.125,470.75,323.125,482,328.125,477,333.125,482,328.125,470.75" style="stroke:#A80036;stroke-width:1.25;"/><polygon fill="#000000" points="334.375,556.4697,330.7013,567.7761,338.0487,567.7761,334.375,556.4697" style="stroke:#000000;stroke-width:1.25;"/><text fill="#000000" font-family="sans-serif" font-size="16.25" lengthAdjust="spacing" textLength="83.75" x="345.625" y="569.3689">implements</text><text fill="#000000" font-family="sans-serif" font-size="16.25" lengthAdjust="spacing" textLength="8.75" x="318.3086" y="497.4529">1</text><text fill="#000000" font-family="sans-serif" font-size="16.25" lengthAdjust="spacing" textLength="8.75" x="318.7051" y="597.565">1</text><!--MD5=[cb4437fa2f8d65a8d8d57c075352e1ca]
link Company to ListOfClients--><path codeLine="61" d="M328.125,724.1125 C328.125,753.675 328.125,789.1625 328.125,814.9125 " fill="none" id="Company-to-ListOfClients" style="stroke:#A80036;stroke-width:1.25;"/><polygon fill="#A80036" points="328.125,821.2375,333.125,809.9875,328.125,814.9875,323.125,809.9875,328.125,821.2375" style="stroke:#A80036;stroke-width:1.25;"/><polygon fill="#000000" points="334.375,778.9697,338.0487,767.6634,330.7013,767.6634,334.375,778.9697" style="stroke:#000000;stroke-width:1.25;"/><text fill="#000000" font-family="sans-serif" font-size="16.25" lengthAdjust="spacing" textLength="83.75" x="345.625" y="779.3689">implements</text><text fill="#000000" font-family="sans-serif" font-size="16.25" lengthAdjust="spacing" textLength="8.75" x="318.7871" y="750.0033">1</text><text fill="#000000" font-family="sans-serif" font-size="16.25" lengthAdjust="spacing" textLength="8.75" x="318.2539" y="807.9095">1</text><!--MD5=[517f886fb5eb9dd8de42b373c5826458]
@startuml
skinparam classAttributeIconSize 0

interface ListOfTests
interface ListOfDates
interface ListOfClients

class PerformanceController {
  -int algorithm
  -Date startDate
  -Date endDate

  +getStatistics()
  +getSubarray(algorithm, startDate, endDate)
}

class PerformanceUI {

}

class TestStore {
    +getDates()
}

class PerformanceStore {
   -int algorithm
   -Date startDate
   -Date endDate


  +getTests(algorithm, startDate, endDate)
  +getStatistics(startDate, endDate)
}

class BruteForce {
  -int[] array

  +masSubarray(array)
}

class Company {

  +getTestList()
  +getClientList()
  +getTestStore()
}

class OtherAlgorithm {
    -int[] array

    +MAX(array)
}

PerformanceUI ..> PerformanceController
PerformanceController ..> PerformanceStore
PerformanceStore ..> Company
PerformanceStore ..> BruteForce
PerformanceStore ..> OtherAlgorithm
Company "1" -> "1" TestStore : uses
Company "1" -left-> "1" ListOfDates : implements >
Company "1" -up-> "1" ListOfTests : implements >
Company "1" -down-> "1" ListOfClients : implements >





@enduml

PlantUML version 1.2021.7(Sun May 23 13:40:07 BST 2021)
(GPL source distribution)
Java Runtime: OpenJDK Runtime Environment
JVM: Dynamic Code Evolution 64-Bit Server VM
Default Encoding: Cp1252
Language: pt
Country: PT
--></g></svg>