<?xml version="1.0" encoding="UTF-8" standalone="no"?><svg xmlns="http://www.w3.org/2000/svg" xmlns:xlink="http://www.w3.org/1999/xlink" contentScriptType="application/ecmascript" contentStyleType="text/css" height="775px" preserveAspectRatio="none" style="width:365px;height:775px;background:#FFFFFF;" version="1.1" viewBox="0 0 365 775" width="365px" zoomAndPan="magnify"><defs><filter height="300%" id="f13h7xc429l7j3" width="300%" x="-1" y="-1"><feGaussianBlur result="blurOut" stdDeviation="2.5"/><feColorMatrix in="blurOut" result="blurOut2" type="matrix" values="0 0 0 0 0 0 0 0 0 0 0 0 0 0 0 0 0 0 .4 0"/><feOffset dx="5.0" dy="5.0" in="blurOut2" result="blurOut3"/><feBlend in="SourceGraphic" in2="blurOut3" mode="normal"/></filter></defs><g><rect fill="#FFFFFF" filter="url(#f13h7xc429l7j3)" height="521.1523" style="stroke:#A80036;stroke-width:1.25;" width="12.5" x="49.375" y="124.5117"/><rect fill="#FFFFFF" filter="url(#f13h7xc429l7j3)" height="37.9395" style="stroke:#A80036;stroke-width:1.25;" width="12.5" x="304.375" y="152.4512"/><rect fill="#FFFFFF" filter="url(#f13h7xc429l7j3)" height="37.9395" style="stroke:#A80036;stroke-width:1.25;" width="12.5" x="304.375" y="228.3301"/><rect fill="#FFFFFF" filter="url(#f13h7xc429l7j3)" height="37.9395" style="stroke:#A80036;stroke-width:1.25;" width="12.5" x="304.375" y="304.209"/><rect fill="#FFFFFF" filter="url(#f13h7xc429l7j3)" height="37.9395" style="stroke:#A80036;stroke-width:1.25;" width="12.5" x="304.375" y="380.0879"/><rect fill="#FFFFFF" filter="url(#f13h7xc429l7j3)" height="37.9395" style="stroke:#A80036;stroke-width:1.25;" width="12.5" x="304.375" y="455.9668"/><rect fill="#FFFFFF" filter="url(#f13h7xc429l7j3)" height="37.9395" style="stroke:#A80036;stroke-width:1.25;" width="12.5" x="304.375" y="531.8457"/><rect fill="#FFFFFF" filter="url(#f13h7xc429l7j3)" height="37.9395" style="stroke:#A80036;stroke-width:1.25;" width="12.5" x="304.375" y="607.7246"/><line style="stroke:#A80036;stroke-width:1.25;stroke-dasharray:5.0,5.0;" x1="55" x2="55" y1="112.0117" y2="668.1641"/><line style="stroke:#A80036;stroke-width:1.25;stroke-dasharray:5.0,5.0;" x1="310.625" x2="310.625" y1="112.0117" y2="668.1641"/><text fill="#000000" font-family="sans-serif" font-size="17.5" lengthAdjust="spacing" textLength="91.25" x="6.25" y="108.1665">Recpcionist</text><ellipse cx="55.625" cy="18.75" fill="#FEFECE" filter="url(#f13h7xc429l7j3)" rx="10" ry="10" style="stroke:#A80036;stroke-width:2.5;"/><path d="M55.625,28.75 L55.625,62.5 M39.375,38.75 L71.875,38.75 M55.625,62.5 L39.375,81.25 M55.625,62.5 L71.875,81.25 " fill="none" filter="url(#f13h7xc429l7j3)" style="stroke:#A80036;stroke-width:2.5;"/><text fill="#000000" font-family="sans-serif" font-size="17.5" lengthAdjust="spacing" textLength="91.25" x="6.25" y="685.0806">Recpcionist</text><ellipse cx="55.625" cy="701.4258" fill="#FEFECE" filter="url(#f13h7xc429l7j3)" rx="10" ry="10" style="stroke:#A80036;stroke-width:2.5;"/><path d="M55.625,711.4258 L55.625,745.1758 M39.375,721.4258 L71.875,721.4258 M55.625,745.1758 L39.375,763.9258 M55.625,745.1758 L71.875,763.9258 " fill="none" filter="url(#f13h7xc429l7j3)" style="stroke:#A80036;stroke-width:2.5;"/><rect fill="#FEFECE" filter="url(#f13h7xc429l7j3)" height="39.5117" style="stroke:#A80036;stroke-width:1.875;" width="80" x="268.125" y="66.25"/><text fill="#000000" font-family="sans-serif" font-size="17.5" lengthAdjust="spacing" textLength="62.5" x="276.875" y="93.1665">:System</text><rect fill="#FEFECE" filter="url(#f13h7xc429l7j3)" height="39.5117" style="stroke:#A80036;stroke-width:1.875;" width="80" x="268.125" y="666.9141"/><text fill="#000000" font-family="sans-serif" font-size="17.5" lengthAdjust="spacing" textLength="62.5" x="276.875" y="693.8306">:System</text><rect fill="#FFFFFF" filter="url(#f13h7xc429l7j3)" height="521.1523" style="stroke:#A80036;stroke-width:1.25;" width="12.5" x="49.375" y="124.5117"/><rect fill="#FFFFFF" filter="url(#f13h7xc429l7j3)" height="37.9395" style="stroke:#A80036;stroke-width:1.25;" width="12.5" x="304.375" y="152.4512"/><rect fill="#FFFFFF" filter="url(#f13h7xc429l7j3)" height="37.9395" style="stroke:#A80036;stroke-width:1.25;" width="12.5" x="304.375" y="228.3301"/><rect fill="#FFFFFF" filter="url(#f13h7xc429l7j3)" height="37.9395" style="stroke:#A80036;stroke-width:1.25;" width="12.5" x="304.375" y="304.209"/><rect fill="#FFFFFF" filter="url(#f13h7xc429l7j3)" height="37.9395" style="stroke:#A80036;stroke-width:1.25;" width="12.5" x="304.375" y="380.0879"/><rect fill="#FFFFFF" filter="url(#f13h7xc429l7j3)" height="37.9395" style="stroke:#A80036;stroke-width:1.25;" width="12.5" x="304.375" y="455.9668"/><rect fill="#FFFFFF" filter="url(#f13h7xc429l7j3)" height="37.9395" style="stroke:#A80036;stroke-width:1.25;" width="12.5" x="304.375" y="531.8457"/><rect fill="#FFFFFF" filter="url(#f13h7xc429l7j3)" height="37.9395" style="stroke:#A80036;stroke-width:1.25;" width="12.5" x="304.375" y="607.7246"/><polygon fill="#A80036" points="289.375,147.4512,301.875,152.4512,289.375,157.4512,294.375,152.4512" style="stroke:#A80036;stroke-width:1.25;"/><line style="stroke:#A80036;stroke-width:1.25;" x1="61.875" x2="296.875" y1="152.4512" y2="152.4512"/><text fill="#000000" font-family="sans-serif" font-size="16.25" font-weight="bold" lengthAdjust="spacing" textLength="8.75" x="70.625" y="146.3806">1</text><text fill="#000000" font-family="sans-serif" font-size="16.25" lengthAdjust="spacing" textLength="192.5" x="84.375" y="146.3806">asks to register a new test</text><polygon fill="#A80036" points="75.625,185.3906,63.125,190.3906,75.625,195.3906,70.625,190.3906" style="stroke:#A80036;stroke-width:1.25;"/><line style="stroke:#A80036;stroke-width:1.25;stroke-dasharray:2.0,2.0;" x1="68.125" x2="309.375" y1="190.3906" y2="190.3906"/><text fill="#000000" font-family="sans-serif" font-size="16.25" font-weight="bold" lengthAdjust="spacing" textLength="8.75" x="83.125" y="184.3201">2</text><text fill="#000000" font-family="sans-serif" font-size="16.25" lengthAdjust="spacing" textLength="191.25" x="96.875" y="184.3201">requests data(TIN number)</text><polygon fill="#A80036" points="289.375,223.3301,301.875,228.3301,289.375,233.3301,294.375,228.3301" style="stroke:#A80036;stroke-width:1.25;"/><line style="stroke:#A80036;stroke-width:1.25;" x1="61.875" x2="296.875" y1="228.3301" y2="228.3301"/><text fill="#000000" font-family="sans-serif" font-size="16.25" font-weight="bold" lengthAdjust="spacing" textLength="8.75" x="70.625" y="222.2595">3</text><text fill="#000000" font-family="sans-serif" font-size="16.25" lengthAdjust="spacing" textLength="152.5" x="84.375" y="222.2595">types requested data</text><polygon fill="#A80036" points="75.625,261.2695,63.125,266.2695,75.625,271.2695,70.625,266.2695" style="stroke:#A80036;stroke-width:1.25;"/><line style="stroke:#A80036;stroke-width:1.25;stroke-dasharray:2.0,2.0;" x1="68.125" x2="309.375" y1="266.2695" y2="266.2695"/><text fill="#000000" font-family="sans-serif" font-size="16.25" font-weight="bold" lengthAdjust="spacing" textLength="8.75" x="83.125" y="260.199">4</text><text fill="#000000" font-family="sans-serif" font-size="16.25" lengthAdjust="spacing" textLength="141.25" x="96.875" y="260.199">shows test type list</text><polygon fill="#A80036" points="289.375,299.209,301.875,304.209,289.375,309.209,294.375,304.209" style="stroke:#A80036;stroke-width:1.25;"/><line style="stroke:#A80036;stroke-width:1.25;" x1="61.875" x2="296.875" y1="304.209" y2="304.209"/><text fill="#000000" font-family="sans-serif" font-size="16.25" font-weight="bold" lengthAdjust="spacing" textLength="8.75" x="70.625" y="298.1384">5</text><text fill="#000000" font-family="sans-serif" font-size="16.25" lengthAdjust="spacing" textLength="130" x="84.375" y="298.1384">chooses test type</text><polygon fill="#A80036" points="75.625,337.1484,63.125,342.1484,75.625,347.1484,70.625,342.1484" style="stroke:#A80036;stroke-width:1.25;"/><line style="stroke:#A80036;stroke-width:1.25;stroke-dasharray:2.0,2.0;" x1="68.125" x2="309.375" y1="342.1484" y2="342.1484"/><text fill="#000000" font-family="sans-serif" font-size="16.25" font-weight="bold" lengthAdjust="spacing" textLength="8.75" x="83.125" y="336.0779">6</text><text fill="#000000" font-family="sans-serif" font-size="16.25" lengthAdjust="spacing" textLength="140" x="96.875" y="336.0779">shows category list</text><polygon fill="#A80036" points="289.375,375.0879,301.875,380.0879,289.375,385.0879,294.375,380.0879" style="stroke:#A80036;stroke-width:1.25;"/><line style="stroke:#A80036;stroke-width:1.25;" x1="61.875" x2="296.875" y1="380.0879" y2="380.0879"/><text fill="#000000" font-family="sans-serif" font-size="16.25" font-weight="bold" lengthAdjust="spacing" textLength="8.75" x="70.625" y="374.0173">7</text><text fill="#000000" font-family="sans-serif" font-size="16.25" lengthAdjust="spacing" textLength="128.75" x="84.375" y="374.0173">chooses category</text><polygon fill="#A80036" points="75.625,413.0273,63.125,418.0273,75.625,423.0273,70.625,418.0273" style="stroke:#A80036;stroke-width:1.25;"/><line style="stroke:#A80036;stroke-width:1.25;stroke-dasharray:2.0,2.0;" x1="68.125" x2="309.375" y1="418.0273" y2="418.0273"/><text fill="#000000" font-family="sans-serif" font-size="16.25" font-weight="bold" lengthAdjust="spacing" textLength="8.75" x="83.125" y="411.9568">8</text><text fill="#000000" font-family="sans-serif" font-size="16.25" lengthAdjust="spacing" textLength="150" x="96.875" y="411.9568">shows paremeter list</text><polygon fill="#A80036" points="289.375,450.9668,301.875,455.9668,289.375,460.9668,294.375,455.9668" style="stroke:#A80036;stroke-width:1.25;"/><line style="stroke:#A80036;stroke-width:1.25;" x1="61.875" x2="296.875" y1="455.9668" y2="455.9668"/><text fill="#000000" font-family="sans-serif" font-size="16.25" font-weight="bold" lengthAdjust="spacing" textLength="8.75" x="70.625" y="449.8962">9</text><text fill="#000000" font-family="sans-serif" font-size="16.25" lengthAdjust="spacing" textLength="138.75" x="84.375" y="449.8962">chooses parameter</text><polygon fill="#A80036" points="75.625,488.9063,63.125,493.9063,75.625,498.9063,70.625,493.9063" style="stroke:#A80036;stroke-width:1.25;"/><line style="stroke:#A80036;stroke-width:1.25;stroke-dasharray:2.0,2.0;" x1="68.125" x2="309.375" y1="493.9063" y2="493.9063"/><text fill="#000000" font-family="sans-serif" font-size="16.25" font-weight="bold" lengthAdjust="spacing" textLength="17.5" x="83.125" y="487.8357">10</text><text fill="#000000" font-family="sans-serif" font-size="16.25" lengthAdjust="spacing" textLength="188.75" x="105.625" y="487.8357">requestes data (nhs code)</text><polygon fill="#A80036" points="289.375,526.8457,301.875,531.8457,289.375,536.8457,294.375,531.8457" style="stroke:#A80036;stroke-width:1.25;"/><line style="stroke:#A80036;stroke-width:1.25;" x1="61.875" x2="296.875" y1="531.8457" y2="531.8457"/><text fill="#000000" font-family="sans-serif" font-size="16.25" font-weight="bold" lengthAdjust="spacing" textLength="17.5" x="70.625" y="525.7751">11</text><text fill="#000000" font-family="sans-serif" font-size="16.25" lengthAdjust="spacing" textLength="152.5" x="93.125" y="525.7751">types requested data</text><polygon fill="#A80036" points="75.625,564.7852,63.125,569.7852,75.625,574.7852,70.625,569.7852" style="stroke:#A80036;stroke-width:1.25;"/><line style="stroke:#A80036;stroke-width:1.25;" x1="68.125" x2="309.375" y1="569.7852" y2="569.7852"/><text fill="#000000" font-family="sans-serif" font-size="16.25" font-weight="bold" lengthAdjust="spacing" textLength="17.5" x="83.125" y="563.7146">12</text><text fill="#000000" font-family="sans-serif" font-size="16.25" lengthAdjust="spacing" textLength="153.75" x="105.625" y="563.7146">requestes data(labID)</text><polygon fill="#A80036" points="289.375,602.7246,301.875,607.7246,289.375,612.7246,294.375,607.7246" style="stroke:#A80036;stroke-width:1.25;"/><line style="stroke:#A80036;stroke-width:1.25;" x1="61.875" x2="296.875" y1="607.7246" y2="607.7246"/><text fill="#000000" font-family="sans-serif" font-size="16.25" font-weight="bold" lengthAdjust="spacing" textLength="17.5" x="70.625" y="601.6541">13</text><text fill="#000000" font-family="sans-serif" font-size="16.25" lengthAdjust="spacing" textLength="152.5" x="93.125" y="601.6541">types requested data</text><polygon fill="#A80036" points="69.375,640.6641,56.875,645.6641,69.375,650.6641,64.375,645.6641" style="stroke:#A80036;stroke-width:1.25;"/><line style="stroke:#A80036;stroke-width:1.25;stroke-dasharray:2.0,2.0;" x1="61.875" x2="309.375" y1="645.6641" y2="645.6641"/><text fill="#000000" font-family="sans-serif" font-size="16.25" font-weight="bold" lengthAdjust="spacing" textLength="17.5" x="76.875" y="639.5935">14</text><text fill="#000000" font-family="sans-serif" font-size="16.25" lengthAdjust="spacing" textLength="190" x="99.375" y="639.5935">informs operation success</text><!--MD5=[eb5a11eedab268f5e2a15e5d250c8c8c]
@startuml
autonumber
actor "Recpcionist" as OE

activate OE
OE -> ":System" : asks to register a new test
activate ":System"
":System" - -> OE : requests data(TIN number)
deactivate ":System"


OE -> ":System" : types requested data
activate ":System"
":System" - -> OE : shows test type list
deactivate ":System"


OE -> ":System" : chooses test type
activate ":System"
":System" - -> OE : shows category list
deactivate ":System"


OE -> ":System" : chooses category
activate ":System"
":System" - -> OE : shows paremeter list
deactivate ":System"

OE -> ":System" : chooses parameter
activate ":System"
":System" - -> OE : requestes data (nhs code)
deactivate ":System"

OE -> ":System" : types requested data
activate ":System"
":System" -> OE : requestes data(labID)
deactivate ":System"

OE -> ":System" : types requested data
activate ":System"
":System" - -> OE : informs operation success
deactivate ":System"

deactivate OE

@enduml

PlantUML version 1.2021.7(Sun May 23 13:40:07 BST 2021)
(GPL source distribution)
Java Runtime: OpenJDK Runtime Environment
JVM: Dynamic Code Evolution 64-Bit Server VM
Default Encoding: Cp1252
Language: pt
Country: PT
--></g></svg>