<?xml version="1.0" encoding="UTF-8" standalone="no"?><svg xmlns="http://www.w3.org/2000/svg" xmlns:xlink="http://www.w3.org/1999/xlink" contentScriptType="application/ecmascript" contentStyleType="text/css" height="1316.25px" preserveAspectRatio="none" style="width:1485px;height:1316px;background:#FFFFFF;" version="1.1" viewBox="0 0 1485 1316" width="1485px" zoomAndPan="magnify"><defs><filter height="300%" id="f5qo7glko8ue2" width="300%" x="-1" y="-1"><feGaussianBlur result="blurOut" stdDeviation="2.5"/><feColorMatrix in="blurOut" result="blurOut2" type="matrix" values="0 0 0 0 0 0 0 0 0 0 0 0 0 0 0 0 0 0 .4 0"/><feOffset dx="5.0" dy="5.0" in="blurOut2" result="blurOut3"/><feBlend in="SourceGraphic" in2="blurOut3" mode="normal"/></filter></defs><g><!--MD5=[98c05957f469fc04e8bd6e53319922c9]
class ListOfTests--><rect codeLine="3" fill="#FEFECE" filter="url(#f5qo7glko8ue2)" height="60" id="ListOfTests" style="stroke:#A80036;stroke-width:1.875;" width="115" x="645.625" y="657.5"/><ellipse cx="664.375" cy="677.5" fill="#B4A7E5" rx="13.75" ry="13.75" style="stroke:#A80036;stroke-width:1.25;"/><path d="M665.625,673.75 L665.625,681.25 L668.125,681.25 L668.7305,681.25 L669.375,682.0313 L669.375,682.5 L669.375,682.9688 L668.7305,683.75 L668.125,683.75 L660.625,683.75 L660.0195,683.75 L659.375,682.9688 L659.375,682.5 L659.375,682.0313 L660.0195,681.25 L660.625,681.25 L663.125,681.25 L663.125,673.75 L660.625,673.75 L660.0195,673.75 L659.375,672.9688 L659.375,672.5 L659.375,672.0313 L660.0195,671.25 L660.625,671.25 L668.125,671.25 L668.7305,671.25 L669.375,672.0313 L669.375,672.5 L669.375,672.9688 L668.7305,673.75 L668.125,673.75 L665.625,673.75 Z " fill="#000000"/><text fill="#000000" font-family="sans-serif" font-size="15" font-style="italic" lengthAdjust="spacing" textLength="75" x="681.875" y="683.6377">ListOfTests</text><line style="stroke:#A80036;stroke-width:1.875;" x1="646.875" x2="759.375" y1="697.5" y2="697.5"/><line style="stroke:#A80036;stroke-width:1.875;" x1="646.875" x2="759.375" y1="707.5" y2="707.5"/><!--MD5=[05b2718cbf19144e90a32deb2e3e115b]
class ListOfDates--><rect codeLine="4" fill="#FEFECE" filter="url(#f5qo7glko8ue2)" height="60" id="ListOfDates" style="stroke:#A80036;stroke-width:1.875;" width="118.75" x="805" y="1083.125"/><ellipse cx="823.75" cy="1103.125" fill="#B4A7E5" rx="13.75" ry="13.75" style="stroke:#A80036;stroke-width:1.25;"/><path d="M825,1099.375 L825,1106.875 L827.5,1106.875 L828.1055,1106.875 L828.75,1107.6563 L828.75,1108.125 L828.75,1108.5938 L828.1055,1109.375 L827.5,1109.375 L820,1109.375 L819.3945,1109.375 L818.75,1108.5938 L818.75,1108.125 L818.75,1107.6563 L819.3945,1106.875 L820,1106.875 L822.5,1106.875 L822.5,1099.375 L820,1099.375 L819.3945,1099.375 L818.75,1098.5938 L818.75,1098.125 L818.75,1097.6563 L819.3945,1096.875 L820,1096.875 L827.5,1096.875 L828.1055,1096.875 L828.75,1097.6563 L828.75,1098.125 L828.75,1098.5938 L828.1055,1099.375 L827.5,1099.375 L825,1099.375 Z " fill="#000000"/><text fill="#000000" font-family="sans-serif" font-size="15" font-style="italic" lengthAdjust="spacing" textLength="78.75" x="841.25" y="1109.2627">ListOfDates</text><line style="stroke:#A80036;stroke-width:1.875;" x1="806.25" x2="922.5" y1="1123.125" y2="1123.125"/><line style="stroke:#A80036;stroke-width:1.875;" x1="806.25" x2="922.5" y1="1133.125" y2="1133.125"/><!--MD5=[de56d497f477bac2fae57fecf9c68d26]
class ListOfSamples--><rect codeLine="5" fill="#FEFECE" filter="url(#f5qo7glko8ue2)" height="60" id="ListOfSamples" style="stroke:#A80036;stroke-width:1.875;" width="140" x="25.625" y="657.5"/><ellipse cx="44.375" cy="677.5" fill="#B4A7E5" rx="13.75" ry="13.75" style="stroke:#A80036;stroke-width:1.25;"/><path d="M45.625,673.75 L45.625,681.25 L48.125,681.25 L48.7305,681.25 L49.375,682.0313 L49.375,682.5 L49.375,682.9688 L48.7305,683.75 L48.125,683.75 L40.625,683.75 L40.0195,683.75 L39.375,682.9688 L39.375,682.5 L39.375,682.0313 L40.0195,681.25 L40.625,681.25 L43.125,681.25 L43.125,673.75 L40.625,673.75 L40.0195,673.75 L39.375,672.9688 L39.375,672.5 L39.375,672.0313 L40.0195,671.25 L40.625,671.25 L48.125,671.25 L48.7305,671.25 L49.375,672.0313 L49.375,672.5 L49.375,672.9688 L48.7305,673.75 L48.125,673.75 L45.625,673.75 Z " fill="#000000"/><text fill="#000000" font-family="sans-serif" font-size="15" font-style="italic" lengthAdjust="spacing" textLength="100" x="61.875" y="683.6377">ListOfSamples</text><line style="stroke:#A80036;stroke-width:1.875;" x1="26.875" x2="164.375" y1="697.5" y2="697.5"/><line style="stroke:#A80036;stroke-width:1.875;" x1="26.875" x2="164.375" y1="707.5" y2="707.5"/><!--MD5=[58311934e25ae3e54e46e6f33a20d705]
class ListOfResults--><rect codeLine="6" fill="#FEFECE" filter="url(#f5qo7glko8ue2)" height="60" id="ListOfResults" style="stroke:#A80036;stroke-width:1.875;" width="130" x="365.625" y="1083.125"/><ellipse cx="384.375" cy="1103.125" fill="#B4A7E5" rx="13.75" ry="13.75" style="stroke:#A80036;stroke-width:1.25;"/><path d="M385.625,1099.375 L385.625,1106.875 L388.125,1106.875 L388.7305,1106.875 L389.375,1107.6563 L389.375,1108.125 L389.375,1108.5938 L388.7305,1109.375 L388.125,1109.375 L380.625,1109.375 L380.0195,1109.375 L379.375,1108.5938 L379.375,1108.125 L379.375,1107.6563 L380.0195,1106.875 L380.625,1106.875 L383.125,1106.875 L383.125,1099.375 L380.625,1099.375 L380.0195,1099.375 L379.375,1098.5938 L379.375,1098.125 L379.375,1097.6563 L380.0195,1096.875 L380.625,1096.875 L388.125,1096.875 L388.7305,1096.875 L389.375,1097.6563 L389.375,1098.125 L389.375,1098.5938 L388.7305,1099.375 L388.125,1099.375 L385.625,1099.375 Z " fill="#000000"/><text fill="#000000" font-family="sans-serif" font-size="15" font-style="italic" lengthAdjust="spacing" textLength="90" x="401.875" y="1109.2627">ListOfResults</text><line style="stroke:#A80036;stroke-width:1.875;" x1="366.875" x2="494.375" y1="1123.125" y2="1123.125"/><line style="stroke:#A80036;stroke-width:1.875;" x1="366.875" x2="494.375" y1="1133.125" y2="1133.125"/><!--MD5=[73677359b52d98a525977144c337a659]
class RegisterTestController--><rect codeLine="8" fill="#FEFECE" filter="url(#f5qo7glko8ue2)" height="302.1289" id="RegisterTestController" style="stroke:#A80036;stroke-width:1.875;" width="486.25" x="688.75" y="145"/><ellipse cx="848.4375" cy="165" fill="#ADD1B2" rx="13.75" ry="13.75" style="stroke:#A80036;stroke-width:1.25;"/><path d="M850.9375,160.625 Q851.1914,160 851.4844,159.6875 Q851.7773,159.375 852.1094,159.375 Q852.6953,159.375 853.0664,159.7266 Q853.4375,160.0781 853.4375,160.8984 L853.4375,162.8516 Q853.4375,163.6719 853.0859,164.0234 Q852.7344,164.375 852.1875,164.375 Q851.6992,164.375 851.3867,164.1602 Q851.0742,163.9453 850.9375,163.3789 Q850.8789,162.9883 850.6641,162.7734 Q850.2734,162.3633 849.5703,162.1289 Q848.8672,161.875 848.1641,161.875 Q847.2852,161.875 846.543,162.2266 Q845.8203,162.5781 845.2539,163.3594 Q844.6875,164.1406 844.6875,165.2148 L844.6875,166.3672 Q844.6875,167.6563 845.7422,168.5156 Q846.7969,169.375 848.6719,169.375 Q849.7852,169.375 850.5664,169.1211 Q851.0156,168.9844 851.5234,168.5352 Q851.8555,168.2813 852.0313,168.2031 Q852.207,168.125 852.4219,168.125 Q852.832,168.125 853.125,168.457 Q853.4375,168.7695 853.4375,169.2188 Q853.4375,169.6484 853.0078,170.1563 Q852.3828,170.8984 851.3867,171.3086 Q850.0781,171.875 848.4766,171.875 Q846.6016,171.875 845.0977,171.1328 Q843.8867,170.5469 843.0273,169.2773 Q842.1875,168.0078 842.1875,166.5039 L842.1875,165.1367 Q842.1875,163.5742 842.9297,162.207 Q843.6914,160.8398 845,160.1172 Q846.3281,159.375 847.8125,159.375 Q848.7109,159.375 849.4922,159.6875 Q850.2734,160 850.9375,160.625 Z " fill="#000000"/><text fill="#000000" font-family="sans-serif" font-size="15" lengthAdjust="spacing" textLength="156.25" x="874.0625" y="171.1377">RegisterTestController</text><line style="stroke:#A80036;stroke-width:1.875;" x1="690" x2="1173.75" y1="185" y2="185"/><text fill="#000000" font-family="sans-serif" font-size="13.75" lengthAdjust="spacing" textLength="72.5" x="696.25" y="204.2737">-Client client</text><text fill="#000000" font-family="sans-serif" font-size="13.75" lengthAdjust="spacing" textLength="68.75" x="696.25" y="221.5686">-Long code</text><text fill="#000000" font-family="sans-serif" font-size="13.75" lengthAdjust="spacing" textLength="97.5" x="696.25" y="238.8635">-String nhsCode</text><text fill="#000000" font-family="sans-serif" font-size="13.75" lengthAdjust="spacing" textLength="70" x="696.25" y="256.1584">-String type</text><text fill="#000000" font-family="sans-serif" font-size="13.75" lengthAdjust="spacing" textLength="143.75" x="696.25" y="273.4534">-List&lt;String&gt; categories</text><text fill="#000000" font-family="sans-serif" font-size="13.75" lengthAdjust="spacing" textLength="148.75" x="696.25" y="290.7483">-List&lt;String&gt; parameters</text><text fill="#000000" font-family="sans-serif" font-size="13.75" lengthAdjust="spacing" textLength="67.5" x="696.25" y="308.0432">-Long labID</text><text fill="#000000" font-family="sans-serif" font-size="13.75" lengthAdjust="spacing" textLength="62.5" x="696.25" y="325.3381">-Date date</text><line style="stroke:#A80036;stroke-width:1.875;" x1="690" x2="1173.75" y1="333.3594" y2="333.3594"/><text fill="#000000" font-family="sans-serif" font-size="13.75" lengthAdjust="spacing" textLength="87.5" x="696.25" y="352.6331">+getTypeList()</text><text fill="#000000" font-family="sans-serif" font-size="13.75" lengthAdjust="spacing" textLength="112.5" x="696.25" y="369.928">+getCategoryList()</text><text fill="#000000" font-family="sans-serif" font-size="13.75" lengthAdjust="spacing" textLength="126.25" x="696.25" y="387.2229">+getParametersList()</text><text fill="#000000" font-family="sans-serif" font-size="13.75" lengthAdjust="spacing" textLength="102.5" x="696.25" y="404.5178">+generateCode()</text><text fill="#000000" font-family="sans-serif" font-size="13.75" lengthAdjust="spacing" textLength="471.25" x="696.25" y="421.8127">+registerTest(client, code, nhsCode, type, categories, parameters, labID, date)</text><text fill="#000000" font-family="sans-serif" font-size="13.75" lengthAdjust="spacing" textLength="96.25" x="696.25" y="439.1077">+saveTest(test)</text><!--MD5=[d77386df0ab152061918b4652af9ba57]
class RegisterTestUI--><rect codeLine="27" fill="#FEFECE" filter="url(#f5qo7glko8ue2)" height="60" id="RegisterTestUI" style="stroke:#A80036;stroke-width:1.875;" width="143.75" x="450" y="8.75"/><ellipse cx="468.75" cy="28.75" fill="#ADD1B2" rx="13.75" ry="13.75" style="stroke:#A80036;stroke-width:1.25;"/><path d="M471.25,24.375 Q471.5039,23.75 471.7969,23.4375 Q472.0898,23.125 472.4219,23.125 Q473.0078,23.125 473.3789,23.4766 Q473.75,23.8281 473.75,24.6484 L473.75,26.6016 Q473.75,27.4219 473.3984,27.7734 Q473.0469,28.125 472.5,28.125 Q472.0117,28.125 471.6992,27.9102 Q471.3867,27.6953 471.25,27.1289 Q471.1914,26.7383 470.9766,26.5234 Q470.5859,26.1133 469.8828,25.8789 Q469.1797,25.625 468.4766,25.625 Q467.5977,25.625 466.8555,25.9766 Q466.1328,26.3281 465.5664,27.1094 Q465,27.8906 465,28.9648 L465,30.1172 Q465,31.4063 466.0547,32.2656 Q467.1094,33.125 468.9844,33.125 Q470.0977,33.125 470.8789,32.8711 Q471.3281,32.7344 471.8359,32.2852 Q472.168,32.0313 472.3438,31.9531 Q472.5195,31.875 472.7344,31.875 Q473.1445,31.875 473.4375,32.207 Q473.75,32.5195 473.75,32.9688 Q473.75,33.3984 473.3203,33.9063 Q472.6953,34.6484 471.6992,35.0586 Q470.3906,35.625 468.7891,35.625 Q466.9141,35.625 465.4102,34.8828 Q464.1992,34.2969 463.3398,33.0273 Q462.5,31.7578 462.5,30.2539 L462.5,28.8867 Q462.5,27.3242 463.2422,25.957 Q464.0039,24.5898 465.3125,23.8672 Q466.6406,23.125 468.125,23.125 Q469.0234,23.125 469.8047,23.4375 Q470.5859,23.75 471.25,24.375 Z " fill="#000000"/><text fill="#000000" font-family="sans-serif" font-size="15" lengthAdjust="spacing" textLength="103.75" x="486.25" y="34.8877">RegisterTestUI</text><line style="stroke:#A80036;stroke-width:1.875;" x1="451.25" x2="592.5" y1="48.75" y2="48.75"/><line style="stroke:#A80036;stroke-width:1.875;" x1="451.25" x2="592.5" y1="58.75" y2="58.75"/><!--MD5=[0f6f7964b844a64b0496af0dda7914bd]
class TestStore--><rect codeLine="31" fill="#FEFECE" filter="url(#f5qo7glko8ue2)" height="284.834" id="TestStore" style="stroke:#A80036;stroke-width:1.875;" width="478.75" x="906.25" y="545"/><ellipse cx="1107.1875" cy="565" fill="#ADD1B2" rx="13.75" ry="13.75" style="stroke:#A80036;stroke-width:1.25;"/><path d="M1109.6875,560.625 Q1109.9414,560 1110.2344,559.6875 Q1110.5273,559.375 1110.8594,559.375 Q1111.4453,559.375 1111.8164,559.7266 Q1112.1875,560.0781 1112.1875,560.8984 L1112.1875,562.8516 Q1112.1875,563.6719 1111.8359,564.0234 Q1111.4844,564.375 1110.9375,564.375 Q1110.4492,564.375 1110.1367,564.1602 Q1109.8242,563.9453 1109.6875,563.3789 Q1109.6289,562.9883 1109.4141,562.7734 Q1109.0234,562.3633 1108.3203,562.1289 Q1107.6172,561.875 1106.9141,561.875 Q1106.0352,561.875 1105.293,562.2266 Q1104.5703,562.5781 1104.0039,563.3594 Q1103.4375,564.1406 1103.4375,565.2148 L1103.4375,566.3672 Q1103.4375,567.6563 1104.4922,568.5156 Q1105.5469,569.375 1107.4219,569.375 Q1108.5352,569.375 1109.3164,569.1211 Q1109.7656,568.9844 1110.2734,568.5352 Q1110.6055,568.2813 1110.7813,568.2031 Q1110.957,568.125 1111.1719,568.125 Q1111.582,568.125 1111.875,568.457 Q1112.1875,568.7695 1112.1875,569.2188 Q1112.1875,569.6484 1111.7578,570.1563 Q1111.1328,570.8984 1110.1367,571.3086 Q1108.8281,571.875 1107.2266,571.875 Q1105.3516,571.875 1103.8477,571.1328 Q1102.6367,570.5469 1101.7773,569.2773 Q1100.9375,568.0078 1100.9375,566.5039 L1100.9375,565.1367 Q1100.9375,563.5742 1101.6797,562.207 Q1102.4414,560.8398 1103.75,560.1172 Q1105.0781,559.375 1106.5625,559.375 Q1107.4609,559.375 1108.2422,559.6875 Q1109.0234,560 1109.6875,560.625 Z " fill="#000000"/><text fill="#000000" font-family="sans-serif" font-size="15" lengthAdjust="spacing" textLength="66.25" x="1132.8125" y="571.1377">TestStore</text><line style="stroke:#A80036;stroke-width:1.875;" x1="907.5" x2="1383.75" y1="585" y2="585"/><text fill="#000000" font-family="sans-serif" font-size="13.75" lengthAdjust="spacing" textLength="72.5" x="913.75" y="604.2737">-Client client</text><text fill="#000000" font-family="sans-serif" font-size="13.75" lengthAdjust="spacing" textLength="68.75" x="913.75" y="621.5686">-Long code</text><text fill="#000000" font-family="sans-serif" font-size="13.75" lengthAdjust="spacing" textLength="97.5" x="913.75" y="638.8635">-String nhsCode</text><text fill="#000000" font-family="sans-serif" font-size="13.75" lengthAdjust="spacing" textLength="70" x="913.75" y="656.1584">-String type</text><text fill="#000000" font-family="sans-serif" font-size="13.75" lengthAdjust="spacing" textLength="143.75" x="913.75" y="673.4534">-List&lt;String&gt; categories</text><text fill="#000000" font-family="sans-serif" font-size="13.75" lengthAdjust="spacing" textLength="148.75" x="913.75" y="690.7483">-List&lt;String&gt; parameters</text><text fill="#000000" font-family="sans-serif" font-size="13.75" lengthAdjust="spacing" textLength="67.5" x="913.75" y="708.0432">-Long labID</text><text fill="#000000" font-family="sans-serif" font-size="13.75" lengthAdjust="spacing" textLength="62.5" x="913.75" y="725.3381">-Date date</text><line style="stroke:#A80036;stroke-width:1.875;" x1="907.5" x2="1383.75" y1="733.3594" y2="733.3594"/><text fill="#000000" font-family="sans-serif" font-size="13.75" lengthAdjust="spacing" textLength="463.75" x="913.75" y="752.6331">+createTest(client, code, nhsCode, type, categories, parameters, labID, date)</text><text fill="#000000" font-family="sans-serif" font-size="13.75" lengthAdjust="spacing" textLength="112.5" x="913.75" y="769.928">+validateTest(test)</text><text fill="#000000" font-family="sans-serif" font-size="13.75" lengthAdjust="spacing" textLength="96.25" x="913.75" y="787.2229">+saveTest(test)</text><text fill="#000000" font-family="sans-serif" font-size="13.75" lengthAdjust="spacing" textLength="102.5" x="913.75" y="804.5178">+generateCode()</text><text fill="#000000" font-family="sans-serif" font-size="13.75" lengthAdjust="spacing" textLength="91.25" x="913.75" y="821.8127">+generateFile()</text><!--MD5=[df38be88ccee13e832d6fafd6288a4ca]
class Test--><rect codeLine="49" fill="#FEFECE" filter="url(#f5qo7glko8ue2)" height="371.3086" id="Test" style="stroke:#A80036;stroke-width:1.875;" width="440" x="1019.375" y="927.5"/><ellipse cx="1219.0625" cy="947.5" fill="#ADD1B2" rx="13.75" ry="13.75" style="stroke:#A80036;stroke-width:1.25;"/><path d="M1221.5625,943.125 Q1221.8164,942.5 1222.1094,942.1875 Q1222.4023,941.875 1222.7344,941.875 Q1223.3203,941.875 1223.6914,942.2266 Q1224.0625,942.5781 1224.0625,943.3984 L1224.0625,945.3516 Q1224.0625,946.1719 1223.7109,946.5234 Q1223.3594,946.875 1222.8125,946.875 Q1222.3242,946.875 1222.0117,946.6602 Q1221.6992,946.4453 1221.5625,945.8789 Q1221.5039,945.4883 1221.2891,945.2734 Q1220.8984,944.8633 1220.1953,944.6289 Q1219.4922,944.375 1218.7891,944.375 Q1217.9102,944.375 1217.168,944.7266 Q1216.4453,945.0781 1215.8789,945.8594 Q1215.3125,946.6406 1215.3125,947.7148 L1215.3125,948.8672 Q1215.3125,950.1563 1216.3672,951.0156 Q1217.4219,951.875 1219.2969,951.875 Q1220.4102,951.875 1221.1914,951.6211 Q1221.6406,951.4844 1222.1484,951.0352 Q1222.4805,950.7813 1222.6563,950.7031 Q1222.832,950.625 1223.0469,950.625 Q1223.457,950.625 1223.75,950.957 Q1224.0625,951.2695 1224.0625,951.7188 Q1224.0625,952.1484 1223.6328,952.6563 Q1223.0078,953.3984 1222.0117,953.8086 Q1220.7031,954.375 1219.1016,954.375 Q1217.2266,954.375 1215.7227,953.6328 Q1214.5117,953.0469 1213.6523,951.7773 Q1212.8125,950.5078 1212.8125,949.0039 L1212.8125,947.6367 Q1212.8125,946.0742 1213.5547,944.707 Q1214.3164,943.3398 1215.625,942.6172 Q1216.9531,941.875 1218.4375,941.875 Q1219.3359,941.875 1220.1172,942.1875 Q1220.8984,942.5 1221.5625,943.125 Z " fill="#000000"/><text fill="#000000" font-family="sans-serif" font-size="15" lengthAdjust="spacing" textLength="30" x="1244.6875" y="953.6377">Test</text><line style="stroke:#A80036;stroke-width:1.875;" x1="1020.625" x2="1458.125" y1="967.5" y2="967.5"/><text fill="#000000" font-family="sans-serif" font-size="13.75" lengthAdjust="spacing" textLength="72.5" x="1026.875" y="986.7737">-Client client</text><text fill="#000000" font-family="sans-serif" font-size="13.75" lengthAdjust="spacing" textLength="68.75" x="1026.875" y="1004.0686">-Long code</text><text fill="#000000" font-family="sans-serif" font-size="13.75" lengthAdjust="spacing" textLength="97.5" x="1026.875" y="1021.3635">-String nhsCode</text><text fill="#000000" font-family="sans-serif" font-size="13.75" lengthAdjust="spacing" textLength="70" x="1026.875" y="1038.6584">-String type</text><text fill="#000000" font-family="sans-serif" font-size="13.75" lengthAdjust="spacing" textLength="143.75" x="1026.875" y="1055.9534">-List&lt;String&gt; categories</text><text fill="#000000" font-family="sans-serif" font-size="13.75" lengthAdjust="spacing" textLength="148.75" x="1026.875" y="1073.2483">-List&lt;String&gt; parameters</text><text fill="#000000" font-family="sans-serif" font-size="13.75" lengthAdjust="spacing" textLength="67.5" x="1026.875" y="1090.5432">-Long labID</text><text fill="#000000" font-family="sans-serif" font-size="13.75" lengthAdjust="spacing" textLength="62.5" x="1026.875" y="1107.8381">-Date date</text><line style="stroke:#A80036;stroke-width:1.875;" x1="1020.625" x2="1458.125" y1="1115.8594" y2="1115.8594"/><text fill="#000000" font-family="sans-serif" font-size="13.75" lengthAdjust="spacing" textLength="425" x="1026.875" y="1135.1331">+Test(client, code, nhsCode, type, categories, parameters, labID, date)</text><text fill="#000000" font-family="sans-serif" font-size="13.75" lengthAdjust="spacing" textLength="68.75" x="1026.875" y="1152.428">+getClient()</text><text fill="#000000" font-family="sans-serif" font-size="13.75" lengthAdjust="spacing" textLength="66.25" x="1026.875" y="1169.7229">+getType()</text><text fill="#000000" font-family="sans-serif" font-size="13.75" lengthAdjust="spacing" textLength="105" x="1026.875" y="1187.0178">+getCategories ()</text><text fill="#000000" font-family="sans-serif" font-size="13.75" lengthAdjust="spacing" textLength="105" x="1026.875" y="1204.3127">+getParameters()</text><text fill="#000000" font-family="sans-serif" font-size="13.75" lengthAdjust="spacing" textLength="95" x="1026.875" y="1221.6077">+getNhsCode ()</text><text fill="#000000" font-family="sans-serif" font-size="13.75" lengthAdjust="spacing" textLength="68.75" x="1026.875" y="1238.9026">+getLabId()</text><text fill="#000000" font-family="sans-serif" font-size="13.75" lengthAdjust="spacing" textLength="63.75" x="1026.875" y="1256.1975">+getDate()</text><text fill="#000000" font-family="sans-serif" font-size="13.75" lengthAdjust="spacing" textLength="178.75" x="1026.875" y="1273.4924">+validateNHSCode (nhsCode)</text><text fill="#000000" font-family="sans-serif" font-size="13.75" lengthAdjust="spacing" textLength="128.75" x="1026.875" y="1290.7874">+validateClient(Client)</text><!--MD5=[02e4b9b7573f1156f41e60aa5b4e25a4]
class Company--><rect codeLine="71" fill="#FEFECE" filter="url(#f5qo7glko8ue2)" height="181.0645" id="Company" style="stroke:#A80036;stroke-width:1.875;" width="188.75" x="311.25" y="596.875"/><ellipse cx="367.1875" cy="616.875" fill="#ADD1B2" rx="13.75" ry="13.75" style="stroke:#A80036;stroke-width:1.25;"/><path d="M369.6875,612.5 Q369.9414,611.875 370.2344,611.5625 Q370.5273,611.25 370.8594,611.25 Q371.4453,611.25 371.8164,611.6016 Q372.1875,611.9531 372.1875,612.7734 L372.1875,614.7266 Q372.1875,615.5469 371.8359,615.8984 Q371.4844,616.25 370.9375,616.25 Q370.4492,616.25 370.1367,616.0352 Q369.8242,615.8203 369.6875,615.2539 Q369.6289,614.8633 369.4141,614.6484 Q369.0234,614.2383 368.3203,614.0039 Q367.6172,613.75 366.9141,613.75 Q366.0352,613.75 365.293,614.1016 Q364.5703,614.4531 364.0039,615.2344 Q363.4375,616.0156 363.4375,617.0898 L363.4375,618.2422 Q363.4375,619.5313 364.4922,620.3906 Q365.5469,621.25 367.4219,621.25 Q368.5352,621.25 369.3164,620.9961 Q369.7656,620.8594 370.2734,620.4102 Q370.6055,620.1563 370.7813,620.0781 Q370.957,620 371.1719,620 Q371.582,620 371.875,620.332 Q372.1875,620.6445 372.1875,621.0938 Q372.1875,621.5234 371.7578,622.0313 Q371.1328,622.7734 370.1367,623.1836 Q368.8281,623.75 367.2266,623.75 Q365.3516,623.75 363.8477,623.0078 Q362.6367,622.4219 361.7773,621.1523 Q360.9375,619.8828 360.9375,618.3789 L360.9375,617.0117 Q360.9375,615.4492 361.6797,614.082 Q362.4414,612.7148 363.75,611.9922 Q365.0781,611.25 366.5625,611.25 Q367.4609,611.25 368.2422,611.5625 Q369.0234,611.875 369.6875,612.5 Z " fill="#000000"/><text fill="#000000" font-family="sans-serif" font-size="15" lengthAdjust="spacing" textLength="66.25" x="392.8125" y="623.0127">Company</text><line style="stroke:#A80036;stroke-width:1.875;" x1="312.5" x2="498.75" y1="636.875" y2="636.875"/><text fill="#000000" font-family="sans-serif" font-size="13.75" lengthAdjust="spacing" textLength="70" x="318.75" y="656.1487">-taxNumber</text><line style="stroke:#A80036;stroke-width:1.875;" x1="312.5" x2="498.75" y1="664.1699" y2="664.1699"/><text fill="#000000" font-family="sans-serif" font-size="13.75" lengthAdjust="spacing" textLength="155" x="318.75" y="683.4436">+getClientList(taxNumber)</text><text fill="#000000" font-family="sans-serif" font-size="13.75" lengthAdjust="spacing" textLength="148.75" x="318.75" y="700.7385">+getNewTestContainer()</text><text fill="#000000" font-family="sans-serif" font-size="13.75" lengthAdjust="spacing" textLength="173.75" x="318.75" y="718.0334">+getParameterCategoryList()</text><text fill="#000000" font-family="sans-serif" font-size="13.75" lengthAdjust="spacing" textLength="126.25" x="318.75" y="735.3284">+getParametersList()</text><text fill="#000000" font-family="sans-serif" font-size="13.75" lengthAdjust="spacing" textLength="95" x="318.75" y="752.6233">+getTestStore()</text><text fill="#000000" font-family="sans-serif" font-size="13.75" lengthAdjust="spacing" textLength="83.75" x="318.75" y="769.9182">+getTestList()</text><!--MD5=[ed6624c6556d5e7b1bd23032162d20b7]
class Client--><rect codeLine="81" fill="#FEFECE" filter="url(#f5qo7glko8ue2)" height="77.2949" id="Client" style="stroke:#A80036;stroke-width:1.875;" width="120" x="201.875" y="1074.375"/><ellipse cx="238.625" cy="1094.375" fill="#ADD1B2" rx="13.75" ry="13.75" style="stroke:#A80036;stroke-width:1.25;"/><path d="M241.125,1090 Q241.3789,1089.375 241.6719,1089.0625 Q241.9648,1088.75 242.2969,1088.75 Q242.8828,1088.75 243.2539,1089.1016 Q243.625,1089.4531 243.625,1090.2734 L243.625,1092.2266 Q243.625,1093.0469 243.2734,1093.3984 Q242.9219,1093.75 242.375,1093.75 Q241.8867,1093.75 241.5742,1093.5352 Q241.2617,1093.3203 241.125,1092.7539 Q241.0664,1092.3633 240.8516,1092.1484 Q240.4609,1091.7383 239.7578,1091.5039 Q239.0547,1091.25 238.3516,1091.25 Q237.4727,1091.25 236.7305,1091.6016 Q236.0078,1091.9531 235.4414,1092.7344 Q234.875,1093.5156 234.875,1094.5898 L234.875,1095.7422 Q234.875,1097.0313 235.9297,1097.8906 Q236.9844,1098.75 238.8594,1098.75 Q239.9727,1098.75 240.7539,1098.4961 Q241.2031,1098.3594 241.7109,1097.9102 Q242.043,1097.6563 242.2188,1097.5781 Q242.3945,1097.5 242.6094,1097.5 Q243.0195,1097.5 243.3125,1097.832 Q243.625,1098.1445 243.625,1098.5938 Q243.625,1099.0234 243.1953,1099.5313 Q242.5703,1100.2734 241.5742,1100.6836 Q240.2656,1101.25 238.6641,1101.25 Q236.7891,1101.25 235.2852,1100.5078 Q234.0742,1099.9219 233.2148,1098.6523 Q232.375,1097.3828 232.375,1095.8789 L232.375,1094.5117 Q232.375,1092.9492 233.1172,1091.582 Q233.8789,1090.2148 235.1875,1089.4922 Q236.5156,1088.75 238,1088.75 Q238.8984,1088.75 239.6797,1089.0625 Q240.4609,1089.375 241.125,1090 Z " fill="#000000"/><text fill="#000000" font-family="sans-serif" font-size="15" lengthAdjust="spacing" textLength="40" x="260.125" y="1100.5127">Client</text><line style="stroke:#A80036;stroke-width:1.875;" x1="203.125" x2="320.625" y1="1114.375" y2="1114.375"/><line style="stroke:#A80036;stroke-width:1.875;" x1="203.125" x2="320.625" y1="1124.375" y2="1124.375"/><text fill="#000000" font-family="sans-serif" font-size="13.75" lengthAdjust="spacing" textLength="105" x="209.375" y="1143.6487">+getTaxNumber()</text><!--MD5=[55cb992be19579b505cea3c5691093cb]
class ClientStore--><rect codeLine="85" fill="#FEFECE" filter="url(#f5qo7glko8ue2)" height="94.5898" id="ClientStore" style="stroke:#A80036;stroke-width:1.875;" width="148.75" x="8.75" y="1065.625"/><ellipse cx="42.125" cy="1085.625" fill="#ADD1B2" rx="13.75" ry="13.75" style="stroke:#A80036;stroke-width:1.25;"/><path d="M44.625,1081.25 Q44.8789,1080.625 45.1719,1080.3125 Q45.4648,1080 45.7969,1080 Q46.3828,1080 46.7539,1080.3516 Q47.125,1080.7031 47.125,1081.5234 L47.125,1083.4766 Q47.125,1084.2969 46.7734,1084.6484 Q46.4219,1085 45.875,1085 Q45.3867,1085 45.0742,1084.7852 Q44.7617,1084.5703 44.625,1084.0039 Q44.5664,1083.6133 44.3516,1083.3984 Q43.9609,1082.9883 43.2578,1082.7539 Q42.5547,1082.5 41.8516,1082.5 Q40.9727,1082.5 40.2305,1082.8516 Q39.5078,1083.2031 38.9414,1083.9844 Q38.375,1084.7656 38.375,1085.8398 L38.375,1086.9922 Q38.375,1088.2813 39.4297,1089.1406 Q40.4844,1090 42.3594,1090 Q43.4727,1090 44.2539,1089.7461 Q44.7031,1089.6094 45.2109,1089.1602 Q45.543,1088.9063 45.7188,1088.8281 Q45.8945,1088.75 46.1094,1088.75 Q46.5195,1088.75 46.8125,1089.082 Q47.125,1089.3945 47.125,1089.8438 Q47.125,1090.2734 46.6953,1090.7813 Q46.0703,1091.5234 45.0742,1091.9336 Q43.7656,1092.5 42.1641,1092.5 Q40.2891,1092.5 38.7852,1091.7578 Q37.5742,1091.1719 36.7148,1089.9023 Q35.875,1088.6328 35.875,1087.1289 L35.875,1085.7617 Q35.875,1084.1992 36.6172,1082.832 Q37.3789,1081.4648 38.6875,1080.7422 Q40.0156,1080 41.5,1080 Q42.3984,1080 43.1797,1080.3125 Q43.9609,1080.625 44.625,1081.25 Z " fill="#000000"/><text fill="#000000" font-family="sans-serif" font-size="15" lengthAdjust="spacing" textLength="76.25" x="62.875" y="1091.7627">ClientStore</text><line style="stroke:#A80036;stroke-width:1.875;" x1="10" x2="156.25" y1="1105.625" y2="1105.625"/><text fill="#000000" font-family="sans-serif" font-size="13.75" lengthAdjust="spacing" textLength="70" x="16.25" y="1124.8987">-taxNumber</text><line style="stroke:#A80036;stroke-width:1.875;" x1="10" x2="156.25" y1="1132.9199" y2="1132.9199"/><text fill="#000000" font-family="sans-serif" font-size="13.75" lengthAdjust="spacing" textLength="133.75" x="16.25" y="1152.1936">+getClient(taxNumber)</text><!--MD5=[14857a0f682f89c0bb9098ba51bf3333]
link RegisterTestUI to RegisterTestController--><path codeLine="90" d="M568.1125,68.75 C598.3,87.525 640.3125,113.6625 685.1125,141.525 " fill="none" id="RegisterTestUI-to-RegisterTestController" style="stroke:#A80036;stroke-width:1.25;stroke-dasharray:7.0,7.0;"/><polygon fill="#A80036" points="690.5875,144.9375,683.6821,134.7455,685.2825,141.633,678.3949,143.2335,690.5875,144.9375" style="stroke:#A80036;stroke-width:1.25;"/><!--MD5=[1a80213378cded55795b987b785750ff]
link RegisterTestUI to Company--><path codeLine="91" d="M516.65,69.025 C500.35,159.65 449.875,440.2625 422.95,589.925 " fill="none" id="RegisterTestUI-to-Company" style="stroke:#A80036;stroke-width:1.25;stroke-dasharray:7.0,7.0;"/><polygon fill="#A80036" points="421.7625,596.5125,428.6787,586.3278,422.8711,590.3616,418.8372,584.554,421.7625,596.5125" style="stroke:#A80036;stroke-width:1.25;"/><!--MD5=[fd1bc663e883ec1d717e7d33cb6b726b]
link RegisterTestController to Company--><path codeLine="92" d="M688.325,411.675 C650.3375,433.7625 612.6875,458.4 579.375,485 C541.2125,515.4625 504.9125,555.125 475.4625,591.175 " fill="none" id="RegisterTestController-to-Company" style="stroke:#A80036;stroke-width:1.25;stroke-dasharray:7.0,7.0;"/><polygon fill="#A80036" points="471.1625,596.4625,482.1349,590.8796,475.1017,591.6101,474.3711,584.5769,471.1625,596.4625" style="stroke:#A80036;stroke-width:1.25;"/><!--MD5=[ab922b8023446f7e094c4c89426f3446]
link RegisterTestController to TestStore--><path codeLine="93" d="M1014.5125,447.8 C1031.05,477.875 1048.4,509.425 1064.875,539.375 " fill="none" id="RegisterTestController-to-TestStore" style="stroke:#A80036;stroke-width:1.25;stroke-dasharray:7.0,7.0;"/><polygon fill="#A80036" points="1067.9375,544.95,1066.8755,532.6848,1064.9159,539.4789,1058.1218,537.5194,1067.9375,544.95" style="stroke:#A80036;stroke-width:1.25;"/><!--MD5=[97e9c595f061e920ddd6d5d021effbc9]
link RegisterTestController to Test--><path codeLine="94" d="M1175.475,365.2375 C1264.25,403 1355.4,460.125 1406.875,545 C1476.8125,660.3 1430.8125,806.6 1369.475,921.6875 " fill="none" id="RegisterTestController-to-Test" style="stroke:#A80036;stroke-width:1.25;stroke-dasharray:7.0,7.0;"/><polygon fill="#A80036" points="1366.3625,927.4875,1376.0722,919.9189,1369.3065,921.9743,1367.251,915.2085,1366.3625,927.4875" style="stroke:#A80036;stroke-width:1.25;"/><!--MD5=[7f6cf7f175eae0af66201860de5de971]
link Company to TestStore--><path codeLine="95" d="M476.325,596.575 C506.5625,564.875 544.6375,533.05 586.875,516.25 C689.475,475.45 805.825,500.2875 905.6875,542.325 " fill="none" id="Company-to-TestStore" style="stroke:#A80036;stroke-width:1.25;"/><polygon fill="#A80036" points="911.6375,544.8625,903.2667,535.8352,905.8928,542.4005,899.3275,545.0266,911.6375,544.8625" style="stroke:#A80036;stroke-width:1.25;"/><text fill="#000000" font-family="sans-serif" font-size="16.25" lengthAdjust="spacing" textLength="35" x="588.125" y="503.1189">uses</text><text fill="#000000" font-family="sans-serif" font-size="16.25" lengthAdjust="spacing" textLength="8.75" x="474.4148" y="583.0682">1</text><text fill="#000000" font-family="sans-serif" font-size="16.25" lengthAdjust="spacing" textLength="8.75" x="887.6174" y="531.9725">1</text><!--MD5=[b0f4f6db8206580012ef9cd998ed01c5]
link TestStore to Test--><path codeLine="96" d="M1201.6,830.2375 C1205.4625,842.725 1208.9625,855.2625 1211.875,867.5 C1215.975,884.7625 1219.475,902.85 1222.45,921.0625 " fill="none" id="TestStore-to-Test" style="stroke:#A80036;stroke-width:1.25;stroke-dasharray:7.0,7.0;"/><polygon fill="#A80036" points="1223.45,927.2375,1226.5829,915.3317,1222.4486,921.0682,1216.7121,916.9339,1223.45,927.2375" style="stroke:#A80036;stroke-width:1.25;"/><!--MD5=[7b44b247f066b842475cfda16126afb0]
reverse link Test to TestStore--><path codeLine="99" d="M1145.125,921.05 C1141.925,910.6875 1139.1375,900.3 1136.875,890 C1132.675,870.875 1130.725,850.4875 1130.25,830.3 " fill="none" id="Test-backto-TestStore" style="stroke:#A80036;stroke-width:1.25;"/><polygon fill="#A80036" points="1147.1625,927.5,1148.5252,915.2646,1145.2719,921.5428,1138.9937,918.2895,1147.1625,927.5" style="stroke:#A80036;stroke-width:1.25;"/><polygon fill="#000000" points="1144.136,885.1374,1145.9324,873.3857,1138.6818,874.5742,1144.136,885.1374" style="stroke:#000000;stroke-width:1.25;"/><text fill="#000000" font-family="sans-serif" font-size="16.25" lengthAdjust="spacing" textLength="46.25" x="1154.375" y="885.6189">knows</text><text fill="#000000" font-family="sans-serif" font-size="16.25" lengthAdjust="spacing" textLength="6.25" x="1135.6987" y="913.6811">*</text><text fill="#000000" font-family="sans-serif" font-size="16.25" lengthAdjust="spacing" textLength="8.75" x="1120.2965" y="856.4986">1</text><!--MD5=[17652f66776f6bb29b892bab47f11f67]
reverse link ListOfTests to TestStore--><path codeLine="97" d="M767.35,687.5 C804.8,687.5 854.65,687.5 905.8375,687.5 " fill="none" id="ListOfTests-backto-TestStore" style="stroke:#A80036;stroke-width:1.25;"/><polygon fill="#A80036" points="760.975,687.5,772.225,692.5,767.225,687.5,772.225,682.5,760.975,687.5" style="stroke:#A80036;stroke-width:1.25;"/><polygon fill="#000000" points="782.1875,672.7197,793.4939,676.3934,793.4939,669.0461,782.1875,672.7197" style="stroke:#000000;stroke-width:1.25;"/><text fill="#000000" font-family="sans-serif" font-size="16.25" lengthAdjust="spacing" textLength="83.75" x="799.6875" y="679.3689">implements</text><text fill="#000000" font-family="sans-serif" font-size="16.25" lengthAdjust="spacing" textLength="8.75" x="770.5032" y="682.8713">1</text><text fill="#000000" font-family="sans-serif" font-size="16.25" lengthAdjust="spacing" textLength="8.75" x="887.5499" y="683.9901">1</text><!--MD5=[266191a655a6e78675e26d946286bda4]
link TestStore to ListOfDates--><path codeLine="98" d="M1045.8125,830.35 C1037.225,842.8625 1028.725,855.3875 1020.625,867.5 C971.125,941.5125 915.4625,1029.8625 885.7625,1077.4375 " fill="none" id="TestStore-to-ListOfDates" style="stroke:#A80036;stroke-width:1.25;"/><polygon fill="#A80036" points="882.275,1083.0375,892.467,1076.1321,885.5795,1077.7325,883.979,1070.8449,882.275,1083.0375" style="stroke:#A80036;stroke-width:1.25;"/><polygon fill="#000000" points="1023.4771,884.2154,1032.7073,876.7231,1026.5406,872.7287,1023.4771,884.2154" style="stroke:#000000;stroke-width:1.25;"/><text fill="#000000" font-family="sans-serif" font-size="16.25" lengthAdjust="spacing" textLength="83.75" x="1038.125" y="885.6189">implements</text><text fill="#000000" font-family="sans-serif" font-size="16.25" lengthAdjust="spacing" textLength="8.75" x="1030.7136" y="856.5516">1</text><text fill="#000000" font-family="sans-serif" font-size="16.25" lengthAdjust="spacing" textLength="8.75" x="876.9908" y="1069.6903">1</text><!--MD5=[a11230341c8e65219708844feaa40162]
link Company to ClientStore--><path codeLine="100" d="M311.1625,776.4875 C267.9125,819.5 217.85,873.575 179.375,927.5 C149.6125,969.2125 123.2625,1021.3375 105.7,1059.5125 " fill="none" id="Company-to-ClientStore" style="stroke:#A80036;stroke-width:1.25;stroke-dasharray:7.0,7.0;"/><polygon fill="#A80036" points="102.9625,1065.5125,112.1908,1057.3638,105.5635,1059.8294,103.0979,1053.2022,102.9625,1065.5125" style="stroke:#A80036;stroke-width:1.25;"/><!--MD5=[1d934105a045dbf126514c6917bd5072]
link ClientStore to Client--><path codeLine="101" d="M157.8375,1113.125 C170.3,1113.125 182.75,1113.125 195.2125,1113.125 " fill="none" id="ClientStore-to-Client" style="stroke:#A80036;stroke-width:1.25;stroke-dasharray:7.0,7.0;"/><polygon fill="#A80036" points="201.725,1113.125,190.475,1108.125,195.475,1113.125,190.475,1118.125,201.725,1113.125" style="stroke:#A80036;stroke-width:1.25;"/><!--MD5=[3b3f252b770508f25e64014f6d3cc899]
link Company to ListOfDates--><path codeLine="102" d="M500.125,775.9125 C601.55,869.4625 757.5625,1013.3625 827.8375,1078.175 " fill="none" id="Company-to-ListOfDates" style="stroke:#A80036;stroke-width:1.25;"/><polygon fill="#A80036" points="832.75,1082.7,827.8694,1071.3977,828.1554,1078.463,821.0901,1078.749,832.75,1082.7" style="stroke:#A80036;stroke-width:1.25;"/><polygon fill="#000000" points="631.4692,883.2072,625.6489,872.8412,620.6675,878.242,631.4692,883.2072" style="stroke:#000000;stroke-width:1.25;"/><text fill="#000000" font-family="sans-serif" font-size="16.25" lengthAdjust="spacing" textLength="83.75" x="638.125" y="885.6189">implements</text><text fill="#000000" font-family="sans-serif" font-size="16.25" lengthAdjust="spacing" textLength="8.75" x="509.858" y="780.5309">1</text><text fill="#000000" font-family="sans-serif" font-size="16.25" lengthAdjust="spacing" textLength="8.75" x="815.225" y="1069.7689">1</text><!--MD5=[1f82027fb8ee52509661403b281fb2f7]
link Company to ListOfResults--><path codeLine="103" d="M410.925,778.4875 C416.4125,871.3625 424.7125,1011.75 428.55,1076.6625 " fill="none" id="Company-to-ListOfResults" style="stroke:#A80036;stroke-width:1.25;"/><polygon fill="#A80036" points="428.925,1083.0875,433.2403,1071.5575,428.5496,1076.8488,423.2583,1072.1581,428.925,1083.0875" style="stroke:#A80036;stroke-width:1.25;"/><polygon fill="#000000" points="424.7438,885.2088,427.7439,873.7054,420.4094,874.139,424.7438,885.2088" style="stroke:#000000;stroke-width:1.25;"/><text fill="#000000" font-family="sans-serif" font-size="16.25" lengthAdjust="spacing" textLength="83.75" x="435.625" y="885.6189">implements</text><text fill="#000000" font-family="sans-serif" font-size="16.25" lengthAdjust="spacing" textLength="8.75" x="402.2603" y="804.695">1</text><text fill="#000000" font-family="sans-serif" font-size="16.25" lengthAdjust="spacing" textLength="8.75" x="418.6183" y="1069.7531">1</text><!--MD5=[ea92e5392bfe033f395eec63fb9c0094]
reverse link ListOfSamples to Company--><path codeLine="104" d="M172.6,687.5 C214.4375,687.5 266.55,687.5 310.875,687.5 " fill="none" id="ListOfSamples-backto-Company" style="stroke:#A80036;stroke-width:1.25;"/><polygon fill="#A80036" points="165.975,687.5,177.225,692.5,172.225,687.5,177.225,682.5,165.975,687.5" style="stroke:#A80036;stroke-width:1.25;"/><polygon fill="#000000" points="187.1875,672.7197,198.4939,676.3934,198.4939,669.0461,187.1875,672.7197" style="stroke:#000000;stroke-width:1.25;"/><text fill="#000000" font-family="sans-serif" font-size="16.25" lengthAdjust="spacing" textLength="83.75" x="204.6875" y="679.3689">implements</text><text fill="#000000" font-family="sans-serif" font-size="16.25" lengthAdjust="spacing" textLength="8.75" x="175.5491" y="683.1158">1</text><text fill="#000000" font-family="sans-serif" font-size="16.25" lengthAdjust="spacing" textLength="8.75" x="292.3674" y="683.4153">1</text><!--MD5=[32f23605de0d7e381f2bef3d2e721229]
link Company to ListOfTests--><path codeLine="105" d="M500.1625,687.5 C545.3875,687.5 598.35,687.5 638.825,687.5 " fill="none" id="Company-to-ListOfTests" style="stroke:#A80036;stroke-width:1.25;"/><polygon fill="#A80036" points="645.2125,687.5,633.9625,682.5,638.9625,687.5,633.9625,692.5,645.2125,687.5" style="stroke:#A80036;stroke-width:1.25;"/><polygon fill="#000000" points="534.0625,672.7197,522.7561,669.0461,522.7561,676.3934,534.0625,672.7197" style="stroke:#000000;stroke-width:1.25;"/><text fill="#000000" font-family="sans-serif" font-size="16.25" lengthAdjust="spacing" textLength="83.75" x="539.0625" y="679.3689">implements</text><text fill="#000000" font-family="sans-serif" font-size="16.25" lengthAdjust="spacing" textLength="8.75" x="509.8992" y="683.4153">1</text><text fill="#000000" font-family="sans-serif" font-size="16.25" lengthAdjust="spacing" textLength="8.75" x="626.9247" y="682.8713">1</text><!--MD5=[927a23c28f12a6a782e0636b3b72cd87]
@startuml
skinparam classAttributeIconSize 0

interface ListOfTests
interface ListOfDates
interface ListOfSamples
interface ListOfResults

class RegisterTestController {
  -Client client
  -Long code
  -String nhsCode
  -String type
  -List<String> categories
  -List<String> parameters
  -Long labID
  -Date date


  +getTypeList()
  +getCategoryList()
  +getParametersList()
  +generateCode()
  +registerTest(client, code, nhsCode, type, categories, parameters, labID, date)
  +saveTest(test)
}

class RegisterTestUI {

}

class TestStore {
  -Client client
  -Long code
  -String nhsCode
  -String type
  -List<String> categories
  -List<String> parameters
  -Long labID
  -Date date


  +createTest(client, code, nhsCode, type, categories, parameters, labID, date)
  +validateTest(test)
  +saveTest(test)
  +generateCode()
  +generateFile()
}

class Test {
  -Client client
  -Long code
  -String nhsCode
  -String type
  -List<String> categories
  -List<String> parameters
  -Long labID
  -Date date

  +Test(client, code, nhsCode, type, categories, parameters, labID, date)
  +getClient()
  +getType()
  +getCategories ()
  +getParameters()
  +getNhsCode ()
  +getLabId()
  +getDate()
  +validateNHSCode (nhsCode)
  +validateClient(Client)
}

class Company {
  -taxNumber
  +getClientList(taxNumber)
  +getNewTestContainer()
  +getParameterCategoryList()
  +getParametersList()
  +getTestStore()
  +getTestList()
}

class Client {
    +getTaxNumber()
}

class ClientStore {
    -taxNumber
    +getClient(taxNumber)
}

RegisterTestUI ..> RegisterTestController
RegisterTestUI ..> Company
RegisterTestController ..> Company
RegisterTestController ..> TestStore
RegisterTestController .right.> Test
Company "1" -> "1" TestStore : uses
TestStore ..> Test
TestStore "1" -left-> "1" ListOfTests : implements >
TestStore "1" -down-> "1" ListOfDates : implements >
TestStore "1" -up-> "*" Test : knows >
Company ..> ClientStore
ClientStore .right.> Client
Company "1" -right-> "1" ListOfDates : implements >
Company "1" -down-> "1" ListOfResults : implements >
Company "1" -left-> "1" ListOfSamples : implements >
Company "1" -right-> "1" ListOfTests : implements >



@enduml

PlantUML version 1.2021.7(Sun May 23 13:40:07 BST 2021)
(GPL source distribution)
Java Runtime: OpenJDK Runtime Environment
JVM: Dynamic Code Evolution 64-Bit Server VM
Default Encoding: Cp1252
Language: pt
Country: PT
--></g></svg>