<?xml version="1.0" encoding="UTF-8" standalone="no"?><svg xmlns="http://www.w3.org/2000/svg" xmlns:xlink="http://www.w3.org/1999/xlink" contentScriptType="application/ecmascript" contentStyleType="text/css" height="515px" preserveAspectRatio="none" style="width:462px;height:515px;" version="1.1" viewBox="0 0 462 515" width="462px" zoomAndPan="magnify"><defs><filter height="300%" id="f18d2gwyvlwl1k" width="300%" x="-1" y="-1"><feGaussianBlur result="blurOut" stdDeviation="2.0"/><feColorMatrix in="blurOut" result="blurOut2" type="matrix" values="0 0 0 0 0 0 0 0 0 0 0 0 0 0 0 0 0 0 .4 0"/><feOffset dx="4.0" dy="4.0" in="blurOut2" result="blurOut3"/><feBlend in="SourceGraphic" in2="blurOut3" mode="normal"/></filter></defs><g><!--MD5=[a126dd63c8621c017159ae62771fbe54]
class RegisterEmployeeUI--><rect codeLine="4" fill="#FEFECE" filter="url(#f18d2gwyvlwl1k)" height="32" id="RegisterEmployeeUI" style="stroke:#A80036;stroke-width:1.5;" width="146" x="154.5" y="7"/><ellipse cx="169.5" cy="23" fill="#ADD1B2" rx="11" ry="11" style="stroke:#A80036;stroke-width:1.0;"/><path d="M171.5,19.5 Q171.7031,19 171.9375,18.75 Q172.1719,18.5 172.4375,18.5 Q172.9063,18.5 173.2031,18.7813 Q173.5,19.0625 173.5,19.7188 L173.5,21.2813 Q173.5,21.9375 173.2188,22.2188 Q172.9375,22.5 172.5,22.5 Q172.1094,22.5 171.8594,22.3281 Q171.6094,22.1563 171.5,21.7031 Q171.4531,21.3906 171.2813,21.2188 Q170.9688,20.8906 170.4063,20.7031 Q169.8438,20.5 169.2813,20.5 Q168.5781,20.5 167.9844,20.7813 Q167.4063,21.0625 166.9531,21.6875 Q166.5,22.3125 166.5,23.1719 L166.5,24.0938 Q166.5,25.125 167.3438,25.8125 Q168.1875,26.5 169.6875,26.5 Q170.5781,26.5 171.2031,26.2969 Q171.5625,26.1875 171.9688,25.8281 Q172.2344,25.625 172.375,25.5625 Q172.5156,25.5 172.6875,25.5 Q173.0156,25.5 173.25,25.7656 Q173.5,26.0156 173.5,26.375 Q173.5,26.7188 173.1563,27.125 Q172.6563,27.7188 171.8594,28.0469 Q170.8125,28.5 169.5313,28.5 Q168.0313,28.5 166.8281,27.9063 Q165.8594,27.4375 165.1719,26.4219 Q164.5,25.4063 164.5,24.2031 L164.5,23.1094 Q164.5,21.8594 165.0938,20.7656 Q165.7031,19.6719 166.75,19.0938 Q167.8125,18.5 169,18.5 Q169.7188,18.5 170.3438,18.75 Q170.9688,19 171.5,19.5 Z " fill="#000000"/><text fill="#000000" font-family="sans-serif" font-size="12" lengthAdjust="spacing" textLength="114" x="183.5" y="27.9102">RegisterEmployeeUI</text><!--MD5=[9b165e0f5bd2b582e6253b592ad985f5]
class RegisterEmployeeUIController--><rect codeLine="9" fill="#FEFECE" filter="url(#f18d2gwyvlwl1k)" height="89.5078" id="RegisterEmployeeUIController" style="stroke:#A80036;stroke-width:1.5;" width="409" x="23" y="99"/><ellipse cx="139.25" cy="115" fill="#ADD1B2" rx="11" ry="11" style="stroke:#A80036;stroke-width:1.0;"/><path d="M141.25,111.5 Q141.4531,111 141.6875,110.75 Q141.9219,110.5 142.1875,110.5 Q142.6563,110.5 142.9531,110.7813 Q143.25,111.0625 143.25,111.7188 L143.25,113.2813 Q143.25,113.9375 142.9688,114.2188 Q142.6875,114.5 142.25,114.5 Q141.8594,114.5 141.6094,114.3281 Q141.3594,114.1563 141.25,113.7031 Q141.2031,113.3906 141.0313,113.2188 Q140.7188,112.8906 140.1563,112.7031 Q139.5938,112.5 139.0313,112.5 Q138.3281,112.5 137.7344,112.7813 Q137.1563,113.0625 136.7031,113.6875 Q136.25,114.3125 136.25,115.1719 L136.25,116.0938 Q136.25,117.125 137.0938,117.8125 Q137.9375,118.5 139.4375,118.5 Q140.3281,118.5 140.9531,118.2969 Q141.3125,118.1875 141.7188,117.8281 Q141.9844,117.625 142.125,117.5625 Q142.2656,117.5 142.4375,117.5 Q142.7656,117.5 143,117.7656 Q143.25,118.0156 143.25,118.375 Q143.25,118.7188 142.9063,119.125 Q142.4063,119.7188 141.6094,120.0469 Q140.5625,120.5 139.2813,120.5 Q137.7813,120.5 136.5781,119.9063 Q135.6094,119.4375 134.9219,118.4219 Q134.25,117.4063 134.25,116.2031 L134.25,115.1094 Q134.25,113.8594 134.8438,112.7656 Q135.4531,111.6719 136.5,111.0938 Q137.5625,110.5 138.75,110.5 Q139.4688,110.5 140.0938,110.75 Q140.7188,111 141.25,111.5 Z " fill="#000000"/><text fill="#000000" font-family="sans-serif" font-size="12" lengthAdjust="spacing" textLength="168" x="159.75" y="119.9102">RegisterEmployeeUIController</text><line style="stroke:#A80036;stroke-width:1.5;" x1="24" x2="431" y1="131" y2="131"/><line style="stroke:#A80036;stroke-width:1.5;" x1="24" x2="431" y1="139" y2="139"/><text fill="#000000" font-family="sans-serif" font-size="11" lengthAdjust="spacing" textLength="296" x="29" y="154.4189">creatEmployee(id, name, address, phoneNumber, email, SOC)</text><text fill="#000000" font-family="sans-serif" font-size="11" lengthAdjust="spacing" textLength="397" x="29" y="168.2549">creatSpecialistDoctor(id, name, address, phoneNumber, email, SOC, indexNumber)</text><text fill="#000000" font-family="sans-serif" font-size="11" lengthAdjust="spacing" textLength="78" x="29" y="182.0908">saveEmployee()</text><!--MD5=[02e4b9b7573f1156f41e60aa5b4e25a4]
class Company--><rect codeLine="16" fill="#FEFECE" filter="url(#f18d2gwyvlwl1k)" height="117.1797" id="Company" style="stroke:#A80036;stroke-width:1.5;" width="441" x="7" y="249"/><ellipse cx="196.75" cy="265" fill="#ADD1B2" rx="11" ry="11" style="stroke:#A80036;stroke-width:1.0;"/><path d="M198.75,261.5 Q198.9531,261 199.1875,260.75 Q199.4219,260.5 199.6875,260.5 Q200.1563,260.5 200.4531,260.7813 Q200.75,261.0625 200.75,261.7188 L200.75,263.2813 Q200.75,263.9375 200.4688,264.2188 Q200.1875,264.5 199.75,264.5 Q199.3594,264.5 199.1094,264.3281 Q198.8594,264.1563 198.75,263.7031 Q198.7031,263.3906 198.5313,263.2188 Q198.2188,262.8906 197.6563,262.7031 Q197.0938,262.5 196.5313,262.5 Q195.8281,262.5 195.2344,262.7813 Q194.6563,263.0625 194.2031,263.6875 Q193.75,264.3125 193.75,265.1719 L193.75,266.0938 Q193.75,267.125 194.5938,267.8125 Q195.4375,268.5 196.9375,268.5 Q197.8281,268.5 198.4531,268.2969 Q198.8125,268.1875 199.2188,267.8281 Q199.4844,267.625 199.625,267.5625 Q199.7656,267.5 199.9375,267.5 Q200.2656,267.5 200.5,267.7656 Q200.75,268.0156 200.75,268.375 Q200.75,268.7188 200.4063,269.125 Q199.9063,269.7188 199.1094,270.0469 Q198.0625,270.5 196.7813,270.5 Q195.2813,270.5 194.0781,269.9063 Q193.1094,269.4375 192.4219,268.4219 Q191.75,267.4063 191.75,266.2031 L191.75,265.1094 Q191.75,263.8594 192.3438,262.7656 Q192.9531,261.6719 194,261.0938 Q195.0625,260.5 196.25,260.5 Q196.9688,260.5 197.5938,260.75 Q198.2188,261 198.75,261.5 Z " fill="#000000"/><text fill="#000000" font-family="sans-serif" font-size="12" lengthAdjust="spacing" textLength="53" x="217.25" y="269.9102">Company</text><line style="stroke:#A80036;stroke-width:1.5;" x1="8" x2="447" y1="281" y2="281"/><line style="stroke:#A80036;stroke-width:1.5;" x1="8" x2="447" y1="289" y2="289"/><text fill="#000000" font-family="sans-serif" font-size="11" lengthAdjust="spacing" textLength="328" x="13" y="304.4189">emp = creatEmployee(id, name, address, phoneNumber, email, SOC)</text><text fill="#000000" font-family="sans-serif" font-size="11" lengthAdjust="spacing" textLength="429" x="13" y="318.2549">emp = creatSpecialistDoctor(id, name, address, phoneNumber, email, SOC, indexNumber)</text><text fill="#000000" font-family="sans-serif" font-size="11" lengthAdjust="spacing" textLength="98" x="13" y="332.0908">saveEmployee(emp)</text><text fill="#000000" font-family="sans-serif" font-size="11" lengthAdjust="spacing" textLength="111" x="13" y="345.9268">validateEmployee(emp)</text><text fill="#000000" font-family="sans-serif" font-size="11" lengthAdjust="spacing" textLength="92" x="13" y="359.7627">addEmployee(emp)</text><!--MD5=[7421f545a0d8420c5bec41e74b387d9c]
class Employee--><rect codeLine="25" fill="#FEFECE" filter="url(#f18d2gwyvlwl1k)" height="75.6719" id="Employee" style="stroke:#A80036;stroke-width:1.5;" width="409" x="23" y="426"/><ellipse cx="195.75" cy="442" fill="#ADD1B2" rx="11" ry="11" style="stroke:#A80036;stroke-width:1.0;"/><path d="M197.75,438.5 Q197.9531,438 198.1875,437.75 Q198.4219,437.5 198.6875,437.5 Q199.1563,437.5 199.4531,437.7813 Q199.75,438.0625 199.75,438.7188 L199.75,440.2813 Q199.75,440.9375 199.4688,441.2188 Q199.1875,441.5 198.75,441.5 Q198.3594,441.5 198.1094,441.3281 Q197.8594,441.1563 197.75,440.7031 Q197.7031,440.3906 197.5313,440.2188 Q197.2188,439.8906 196.6563,439.7031 Q196.0938,439.5 195.5313,439.5 Q194.8281,439.5 194.2344,439.7813 Q193.6563,440.0625 193.2031,440.6875 Q192.75,441.3125 192.75,442.1719 L192.75,443.0938 Q192.75,444.125 193.5938,444.8125 Q194.4375,445.5 195.9375,445.5 Q196.8281,445.5 197.4531,445.2969 Q197.8125,445.1875 198.2188,444.8281 Q198.4844,444.625 198.625,444.5625 Q198.7656,444.5 198.9375,444.5 Q199.2656,444.5 199.5,444.7656 Q199.75,445.0156 199.75,445.375 Q199.75,445.7188 199.4063,446.125 Q198.9063,446.7188 198.1094,447.0469 Q197.0625,447.5 195.7813,447.5 Q194.2813,447.5 193.0781,446.9063 Q192.1094,446.4375 191.4219,445.4219 Q190.75,444.4063 190.75,443.2031 L190.75,442.1094 Q190.75,440.8594 191.3438,439.7656 Q191.9531,438.6719 193,438.0938 Q194.0625,437.5 195.25,437.5 Q195.9688,437.5 196.5938,437.75 Q197.2188,438 197.75,438.5 Z " fill="#000000"/><text fill="#000000" font-family="sans-serif" font-size="12" lengthAdjust="spacing" textLength="55" x="216.25" y="446.9102">Employee</text><line style="stroke:#A80036;stroke-width:1.5;" x1="24" x2="431" y1="458" y2="458"/><line style="stroke:#A80036;stroke-width:1.5;" x1="24" x2="431" y1="466" y2="466"/><text fill="#000000" font-family="sans-serif" font-size="11" lengthAdjust="spacing" textLength="296" x="29" y="481.4189">creatEmployee(id, name, address, phoneNumber, email, SOC)</text><text fill="#000000" font-family="sans-serif" font-size="11" lengthAdjust="spacing" textLength="397" x="29" y="495.2549">creatSpecialistDoctor(id, name, address, phoneNumber, email, SOC, indexNumber)</text><!--MD5=[ba44f557b445a42c0a3d39b669bd6775]
link RegisterEmployeeUI to RegisterEmployeeUIController--><path codeLine="31" d="M227.5,39.07 C227.5,52.85 227.5,74.01 227.5,93.66 " fill="none" id="RegisterEmployeeUI-to-RegisterEmployeeUIController" style="stroke:#A80036;stroke-width:1.0;stroke-dasharray:7.0,7.0;"/><polygon fill="#A80036" points="227.5,98.88,231.5,89.88,227.5,93.88,223.5,89.88,227.5,98.88" style="stroke:#A80036;stroke-width:1.0;"/><!--MD5=[5a178b3bb42217b311e08f88bd6bfcad]
link RegisterEmployeeUIController to Company--><path codeLine="32" d="M227.5,189.13 C227.5,205.95 227.5,225.45 227.5,243.68 " fill="none" id="RegisterEmployeeUIController-to-Company" style="stroke:#A80036;stroke-width:1.0;stroke-dasharray:7.0,7.0;"/><polygon fill="#A80036" points="227.5,248.78,231.5,239.78,227.5,243.78,223.5,239.78,227.5,248.78" style="stroke:#A80036;stroke-width:1.0;"/><!--MD5=[09366576ee87d48d594df10cacc83f45]
link Company to Employee--><path codeLine="33" d="M227.5,366.03 C227.5,384.07 227.5,403.64 227.5,420.45 " fill="none" id="Company-to-Employee" style="stroke:#A80036;stroke-width:1.0;stroke-dasharray:7.0,7.0;"/><polygon fill="#A80036" points="227.5,425.58,231.5,416.58,227.5,420.58,223.5,416.58,227.5,425.58" style="stroke:#A80036;stroke-width:1.0;"/><!--MD5=[92969c4efbef721b3d326334e3176e71]
@startuml
'https://plantuml.com/class-diagram


class RegisterEmployeeUI{}

hide RegisterEmployeeUI members


class RegisterEmployeeUIController {
creatEmployee(id, name, address, phoneNumber, email, SOC)
creatSpecialistDoctor(id, name, address, phoneNumber, email, SOC, indexNumber)
saveEmployee()
}


class Company {
emp = creatEmployee(id, name, address, phoneNumber, email, SOC)
emp = creatSpecialistDoctor(id, name, address, phoneNumber, email, SOC, indexNumber)
saveEmployee(emp)
validateEmployee(emp)
addEmployee(emp)
}


class Employee {
creatEmployee(id, name, address, phoneNumber, email, SOC)
creatSpecialistDoctor(id, name, address, phoneNumber, email, SOC, indexNumber)
}


RegisterEmployeeUI ..> RegisterEmployeeUIController
RegisterEmployeeUIController ..> Company
Company ..> Employee


@enduml

@startuml


class RegisterEmployeeUI{}

hide RegisterEmployeeUI members


class RegisterEmployeeUIController {
creatEmployee(id, name, address, phoneNumber, email, SOC)
creatSpecialistDoctor(id, name, address, phoneNumber, email, SOC, indexNumber)
saveEmployee()
}


class Company {
emp = creatEmployee(id, name, address, phoneNumber, email, SOC)
emp = creatSpecialistDoctor(id, name, address, phoneNumber, email, SOC, indexNumber)
saveEmployee(emp)
validateEmployee(emp)
addEmployee(emp)
}


class Employee {
creatEmployee(id, name, address, phoneNumber, email, SOC)
creatSpecialistDoctor(id, name, address, phoneNumber, email, SOC, indexNumber)
}


RegisterEmployeeUI ..> RegisterEmployeeUIController
RegisterEmployeeUIController ..> Company
Company ..> Employee


@enduml

PlantUML version 1.2021.5(Sun Apr 25 12:20:28 BST 2021)
(GPL source distribution)
Java Runtime: OpenJDK Runtime Environment
JVM: Dynamic Code Evolution 64-Bit Server VM
Default Encoding: Cp1252
Language: pt
Country: PT
--></g></svg>