<?xml version="1.0" encoding="UTF-8" standalone="no"?><svg xmlns="http://www.w3.org/2000/svg" xmlns:xlink="http://www.w3.org/1999/xlink" contentScriptType="application/ecmascript" contentStyleType="text/css" height="377px" preserveAspectRatio="none" style="width:562px;height:377px;background:#FFFFFF;" version="1.1" viewBox="0 0 562 377" width="562px" zoomAndPan="magnify"><defs><filter height="300%" id="fqp097npx33d5" width="300%" x="-1" y="-1"><feGaussianBlur result="blurOut" stdDeviation="2.0"/><feColorMatrix in="blurOut" result="blurOut2" type="matrix" values="0 0 0 0 0 0 0 0 0 0 0 0 0 0 0 0 0 0 .4 0"/><feOffset dx="4.0" dy="4.0" in="blurOut2" result="blurOut3"/><feBlend in="SourceGraphic" in2="blurOut3" mode="normal"/></filter></defs><g><rect fill="#FFFFFF" filter="url(#fqp097npx33d5)" height="174.1094" style="stroke:#A80036;stroke-width:1.0;" width="10" x="96" y="99.6094"/><rect fill="#FFFFFF" filter="url(#fqp097npx33d5)" height="30.3516" style="stroke:#A80036;stroke-width:1.0;" width="10" x="513" y="121.9609"/><rect fill="#FFFFFF" filter="url(#fqp097npx33d5)" height="30.3516" style="stroke:#A80036;stroke-width:1.0;" width="10" x="513" y="182.6641"/><rect fill="#FFFFFF" filter="url(#fqp097npx33d5)" height="30.3516" style="stroke:#A80036;stroke-width:1.0;" width="10" x="513" y="243.3672"/><line style="stroke:#A80036;stroke-width:1.0;stroke-dasharray:5.0,5.0;" x1="101" x2="101" y1="89.6094" y2="291.7188"/><line style="stroke:#A80036;stroke-width:1.0;stroke-dasharray:5.0,5.0;" x1="518" x2="518" y1="89.6094" y2="291.7188"/><text fill="#000000" font-family="sans-serif" font-size="14" lengthAdjust="spacing" textLength="186" x="5" y="86.5332">Clinical Chemistry Technogist</text><ellipse cx="101" cy="15" fill="#FEFECE" filter="url(#fqp097npx33d5)" rx="8" ry="8" style="stroke:#A80036;stroke-width:2.0;"/><path d="M101,23 L101,50 M88,31 L114,31 M101,50 L88,65 M101,50 L114,65 " fill="none" filter="url(#fqp097npx33d5)" style="stroke:#A80036;stroke-width:2.0;"/><text fill="#000000" font-family="sans-serif" font-size="14" lengthAdjust="spacing" textLength="186" x="5" y="305.252">Clinical Chemistry Technogist</text><ellipse cx="101" cy="318.3281" fill="#FEFECE" filter="url(#fqp097npx33d5)" rx="8" ry="8" style="stroke:#A80036;stroke-width:2.0;"/><path d="M101,326.3281 L101,353.3281 M88,334.3281 L114,334.3281 M101,353.3281 L88,368.3281 M101,353.3281 L114,368.3281 " fill="none" filter="url(#fqp097npx33d5)" style="stroke:#A80036;stroke-width:2.0;"/><rect fill="#FEFECE" filter="url(#fqp097npx33d5)" height="31.6094" style="stroke:#A80036;stroke-width:1.5;" width="64" x="484" y="53"/><text fill="#000000" font-family="sans-serif" font-size="14" lengthAdjust="spacing" textLength="50" x="491" y="74.5332">:System</text><rect fill="#FEFECE" filter="url(#fqp097npx33d5)" height="31.6094" style="stroke:#A80036;stroke-width:1.5;" width="64" x="484" y="290.7188"/><text fill="#000000" font-family="sans-serif" font-size="14" lengthAdjust="spacing" textLength="50" x="491" y="312.252">:System</text><rect fill="#FFFFFF" filter="url(#fqp097npx33d5)" height="174.1094" style="stroke:#A80036;stroke-width:1.0;" width="10" x="96" y="99.6094"/><rect fill="#FFFFFF" filter="url(#fqp097npx33d5)" height="30.3516" style="stroke:#A80036;stroke-width:1.0;" width="10" x="513" y="121.9609"/><rect fill="#FFFFFF" filter="url(#fqp097npx33d5)" height="30.3516" style="stroke:#A80036;stroke-width:1.0;" width="10" x="513" y="182.6641"/><rect fill="#FFFFFF" filter="url(#fqp097npx33d5)" height="30.3516" style="stroke:#A80036;stroke-width:1.0;" width="10" x="513" y="243.3672"/><polygon fill="#A80036" points="501,117.9609,511,121.9609,501,125.9609,505,121.9609" style="stroke:#A80036;stroke-width:1.0;"/><line style="stroke:#A80036;stroke-width:1.0;" x1="106" x2="507" y1="121.9609" y2="121.9609"/><text fill="#000000" font-family="sans-serif" font-size="13" font-weight="bold" lengthAdjust="spacing" textLength="7" x="113" y="117.1045">1</text><text fill="#000000" font-family="sans-serif" font-size="13" lengthAdjust="spacing" textLength="201" x="124" y="117.1045">wants to check client's test history</text><polygon fill="#A80036" points="117,148.3125,107,152.3125,117,156.3125,113,152.3125" style="stroke:#A80036;stroke-width:1.0;"/><line style="stroke:#A80036;stroke-width:1.0;stroke-dasharray:2.0,2.0;" x1="111" x2="517" y1="152.3125" y2="152.3125"/><text fill="#000000" font-family="sans-serif" font-size="13" font-weight="bold" lengthAdjust="spacing" textLength="7" x="123" y="147.4561">2</text><text fill="#000000" font-family="sans-serif" font-size="13" lengthAdjust="spacing" textLength="197" x="134" y="147.4561">Asks what type of sort is intended</text><polygon fill="#A80036" points="501,178.6641,511,182.6641,501,186.6641,505,182.6641" style="stroke:#A80036;stroke-width:1.0;"/><line style="stroke:#A80036;stroke-width:1.0;" x1="106" x2="507" y1="182.6641" y2="182.6641"/><text fill="#000000" font-family="sans-serif" font-size="13" font-weight="bold" lengthAdjust="spacing" textLength="7" x="113" y="177.8076">3</text><text fill="#000000" font-family="sans-serif" font-size="13" lengthAdjust="spacing" textLength="144" x="124" y="177.8076">Insert the requested data</text><polygon fill="#A80036" points="117,209.0156,107,213.0156,117,217.0156,113,213.0156" style="stroke:#A80036;stroke-width:1.0;"/><line style="stroke:#A80036;stroke-width:1.0;stroke-dasharray:2.0,2.0;" x1="111" x2="517" y1="213.0156" y2="213.0156"/><text fill="#000000" font-family="sans-serif" font-size="13" font-weight="bold" lengthAdjust="spacing" textLength="7" x="123" y="208.1592">4</text><text fill="#000000" font-family="sans-serif" font-size="13" lengthAdjust="spacing" textLength="300" x="134" y="208.1592">presents the list of clients ordered by the preference</text><polygon fill="#A80036" points="501,239.3672,511,243.3672,501,247.3672,505,243.3672" style="stroke:#A80036;stroke-width:1.0;"/><line style="stroke:#A80036;stroke-width:1.0;" x1="106" x2="507" y1="243.3672" y2="243.3672"/><text fill="#000000" font-family="sans-serif" font-size="13" font-weight="bold" lengthAdjust="spacing" textLength="7" x="113" y="238.5107">5</text><text fill="#000000" font-family="sans-serif" font-size="13" lengthAdjust="spacing" textLength="296" x="124" y="238.5107">chooses one test (code) and consult details/results</text><polygon fill="#A80036" points="112,269.7188,102,273.7188,112,277.7188,108,273.7188" style="stroke:#A80036;stroke-width:1.0;"/><line style="stroke:#A80036;stroke-width:1.0;" x1="106" x2="517" y1="273.7188" y2="273.7188"/><text fill="#000000" font-family="sans-serif" font-size="13" font-weight="bold" lengthAdjust="spacing" textLength="7" x="118" y="268.8623">6</text><text fill="#000000" font-family="sans-serif" font-size="13" lengthAdjust="spacing" textLength="372" x="129" y="268.8623">test is presented with all details/results with the reference values</text><!--MD5=[fc10ab2b8d2d37e4e3995f341fdceea8]
@startuml
autonumber
actor "Clinical Chemistry Technogist" as OE

activate OE
OE -> ":System" : wants to check client's test history
activate ":System"
":System" - -> OE : Asks what type of sort is intended
deactivate ":System"
OE -> ":System" : Insert the requested data
activate ":System"
":System" - -> OE : presents the list of clients ordered by the preference
deactivate ":System"
OE -> ":System" : chooses one test (code) and consult details/results
activate ":System"
":System" -> OE: test is presented with all details/results with the reference values
deactivate ":System"
deactivate OE

@enduml

PlantUML version 1.2021.7(Sun May 23 13:40:07 BST 2021)
(GPL source distribution)
Java Runtime: OpenJDK Runtime Environment
JVM: Dynamic Code Evolution 64-Bit Server VM
Default Encoding: Cp1252
Language: pt
Country: PT
--></g></svg>