<?xml version="1.0" encoding="UTF-8" standalone="no"?><svg xmlns="http://www.w3.org/2000/svg" xmlns:xlink="http://www.w3.org/1999/xlink" contentScriptType="application/ecmascript" contentStyleType="text/css" height="732px" preserveAspectRatio="none" style="width:1660px;height:732px;" version="1.1" viewBox="0 0 1660 732" width="1660px" zoomAndPan="magnify"><defs><filter height="300%" id="f1qzuf39ggsj3l" width="300%" x="-1" y="-1"><feGaussianBlur result="blurOut" stdDeviation="2.0"/><feColorMatrix in="blurOut" result="blurOut2" type="matrix" values="0 0 0 0 0 0 0 0 0 0 0 0 0 0 0 0 0 0 .4 0"/><feOffset dx="4.0" dy="4.0" in="blurOut2" result="blurOut3"/><feBlend in="SourceGraphic" in2="blurOut3" mode="normal"/></filter></defs><g><!--MD5=[fce3d33288f3decbcb1a05192f19f98a]
class ListOfClients--><rect codeLine="2" fill="#FEFECE" filter="url(#f1qzuf39ggsj3l)" height="48" id="ListOfClients" style="stroke:#A80036;stroke-width:1.5;" width="101" x="816" y="322.5"/><ellipse cx="831" cy="338.5" fill="#B4A7E5" rx="11" ry="11" style="stroke:#A80036;stroke-width:1.0;"/><path d="M832,335.5 L832,341.5 L834,341.5 L834.4844,341.5 L835,342.125 L835,342.5 L835,342.875 L834.4844,343.5 L834,343.5 L828,343.5 L827.5156,343.5 L827,342.875 L827,342.5 L827,342.125 L827.5156,341.5 L828,341.5 L830,341.5 L830,335.5 L828,335.5 L827.5156,335.5 L827,334.875 L827,334.5 L827,334.125 L827.5156,333.5 L828,333.5 L834,333.5 L834.4844,333.5 L835,334.125 L835,334.5 L835,334.875 L834.4844,335.5 L834,335.5 L832,335.5 Z " fill="#000000"/><text fill="#000000" font-family="sans-serif" font-size="12" font-style="italic" lengthAdjust="spacing" textLength="69" x="845" y="343.4102">ListOfClients</text><line style="stroke:#A80036;stroke-width:1.5;" x1="817" x2="916" y1="354.5" y2="354.5"/><line style="stroke:#A80036;stroke-width:1.5;" x1="817" x2="916" y1="362.5" y2="362.5"/><!--MD5=[664638b59a631db5baaa3de387ba16b8]
class ListaCategorias--><rect codeLine="3" fill="#FEFECE" filter="url(#f1qzuf39ggsj3l)" height="48" id="ListaCategorias" style="stroke:#A80036;stroke-width:1.5;" width="118" x="1401.5" y="322.5"/><ellipse cx="1416.5" cy="338.5" fill="#B4A7E5" rx="11" ry="11" style="stroke:#A80036;stroke-width:1.0;"/><path d="M1417.5,335.5 L1417.5,341.5 L1419.5,341.5 L1419.9844,341.5 L1420.5,342.125 L1420.5,342.5 L1420.5,342.875 L1419.9844,343.5 L1419.5,343.5 L1413.5,343.5 L1413.0156,343.5 L1412.5,342.875 L1412.5,342.5 L1412.5,342.125 L1413.0156,341.5 L1413.5,341.5 L1415.5,341.5 L1415.5,335.5 L1413.5,335.5 L1413.0156,335.5 L1412.5,334.875 L1412.5,334.5 L1412.5,334.125 L1413.0156,333.5 L1413.5,333.5 L1419.5,333.5 L1419.9844,333.5 L1420.5,334.125 L1420.5,334.5 L1420.5,334.875 L1419.9844,335.5 L1419.5,335.5 L1417.5,335.5 Z " fill="#000000"/><text fill="#000000" font-family="sans-serif" font-size="12" font-style="italic" lengthAdjust="spacing" textLength="86" x="1430.5" y="343.4102">ListaCategorias</text><line style="stroke:#A80036;stroke-width:1.5;" x1="1402.5" x2="1518.5" y1="354.5" y2="354.5"/><line style="stroke:#A80036;stroke-width:1.5;" x1="1402.5" x2="1518.5" y1="362.5" y2="362.5"/><!--MD5=[0f6f7964b844a64b0496af0dda7914bd]
class TestStore--><rect codeLine="5" fill="#FEFECE" filter="url(#f1qzuf39ggsj3l)" height="172.5234" id="TestStore" style="stroke:#A80036;stroke-width:1.5;" width="373" x="7" y="524.5"/><ellipse cx="162.75" cy="540.5" fill="#ADD1B2" rx="11" ry="11" style="stroke:#A80036;stroke-width:1.0;"/><path d="M164.75,537 Q164.9531,536.5 165.1875,536.25 Q165.4219,536 165.6875,536 Q166.1563,536 166.4531,536.2813 Q166.75,536.5625 166.75,537.2188 L166.75,538.7813 Q166.75,539.4375 166.4688,539.7188 Q166.1875,540 165.75,540 Q165.3594,540 165.1094,539.8281 Q164.8594,539.6563 164.75,539.2031 Q164.7031,538.8906 164.5313,538.7188 Q164.2188,538.3906 163.6563,538.2031 Q163.0938,538 162.5313,538 Q161.8281,538 161.2344,538.2813 Q160.6563,538.5625 160.2031,539.1875 Q159.75,539.8125 159.75,540.6719 L159.75,541.5938 Q159.75,542.625 160.5938,543.3125 Q161.4375,544 162.9375,544 Q163.8281,544 164.4531,543.7969 Q164.8125,543.6875 165.2188,543.3281 Q165.4844,543.125 165.625,543.0625 Q165.7656,543 165.9375,543 Q166.2656,543 166.5,543.2656 Q166.75,543.5156 166.75,543.875 Q166.75,544.2188 166.4063,544.625 Q165.9063,545.2188 165.1094,545.5469 Q164.0625,546 162.7813,546 Q161.2813,546 160.0781,545.4063 Q159.1094,544.9375 158.4219,543.9219 Q157.75,542.9063 157.75,541.7031 L157.75,540.6094 Q157.75,539.3594 158.3438,538.2656 Q158.9531,537.1719 160,536.5938 Q161.0625,536 162.25,536 Q162.9688,536 163.5938,536.25 Q164.2188,536.5 164.75,537 Z " fill="#000000"/><text fill="#000000" font-family="sans-serif" font-size="12" lengthAdjust="spacing" textLength="53" x="183.25" y="545.4102">TestStore</text><line style="stroke:#A80036;stroke-width:1.5;" x1="8" x2="379" y1="556.5" y2="556.5"/><rect fill="none" height="6" style="stroke:#C82930;stroke-width:1.0;" width="6" x="15" y="564.5"/><text fill="#000000" font-family="sans-serif" font-size="11" lengthAdjust="spacing" textLength="91" x="27" y="571.9189">Client clientForTest</text><rect fill="none" height="6" style="stroke:#C82930;stroke-width:1.0;" width="6" x="15" y="578.3359"/><text fill="#000000" font-family="sans-serif" font-size="11" lengthAdjust="spacing" textLength="55" x="27" y="585.7549">String code</text><rect fill="none" height="6" style="stroke:#C82930;stroke-width:1.0;" width="6" x="15" y="592.1719"/><text fill="#000000" font-family="sans-serif" font-size="11" lengthAdjust="spacing" textLength="74" x="27" y="599.5908">String nhsCode</text><rect fill="none" height="6" style="stroke:#C82930;stroke-width:1.0;" width="6" x="15" y="606.0078"/><text fill="#000000" font-family="sans-serif" font-size="11" lengthAdjust="spacing" textLength="69" x="27" y="613.4268">TestType type</text><rect fill="none" height="6" style="stroke:#C82930;stroke-width:1.0;" width="6" x="15" y="619.8438"/><text fill="#000000" font-family="sans-serif" font-size="11" lengthAdjust="spacing" textLength="142" x="27" y="627.2627">List&lt;parameters&gt; parameters</text><rect fill="none" height="6" style="stroke:#C82930;stroke-width:1.0;" width="6" x="15" y="633.6797"/><text fill="#000000" font-family="sans-serif" font-size="11" lengthAdjust="spacing" textLength="53" x="27" y="641.0986">String labId</text><rect fill="none" height="6" style="stroke:#C82930;stroke-width:1.0;" width="6" x="15" y="647.5156"/><text fill="#000000" font-family="sans-serif" font-size="11" lengthAdjust="spacing" textLength="46" x="27" y="654.9346">Date date</text><line style="stroke:#A80036;stroke-width:1.5;" x1="8" x2="379" y1="661.3516" y2="661.3516"/><ellipse cx="18" cy="672.3516" fill="#84BE84" rx="3" ry="3" style="stroke:#038048;stroke-width:1.0;"/><text fill="#000000" font-family="sans-serif" font-size="11" lengthAdjust="spacing" textLength="347" x="27" y="676.7705">createTest(clientForTest, code, nhsCode, type, parameters, labId, date);</text><ellipse cx="18" cy="686.1875" fill="#84BE84" rx="3" ry="3" style="stroke:#038048;stroke-width:1.0;"/><text fill="#000000" font-family="sans-serif" font-size="11" lengthAdjust="spacing" textLength="121" x="27" y="690.6064">testStore.saveTest(test);</text><!--MD5=[55cb992be19579b505cea3c5691093cb]
class ClientStore--><rect codeLine="17" fill="#FEFECE" filter="url(#f1qzuf39ggsj3l)" height="186.3594" id="ClientStore" style="stroke:#A80036;stroke-width:1.5;" width="530" x="415.5" y="518"/><ellipse cx="645.75" cy="534" fill="#ADD1B2" rx="11" ry="11" style="stroke:#A80036;stroke-width:1.0;"/><path d="M647.75,530.5 Q647.9531,530 648.1875,529.75 Q648.4219,529.5 648.6875,529.5 Q649.1563,529.5 649.4531,529.7813 Q649.75,530.0625 649.75,530.7188 L649.75,532.2813 Q649.75,532.9375 649.4688,533.2188 Q649.1875,533.5 648.75,533.5 Q648.3594,533.5 648.1094,533.3281 Q647.8594,533.1563 647.75,532.7031 Q647.7031,532.3906 647.5313,532.2188 Q647.2188,531.8906 646.6563,531.7031 Q646.0938,531.5 645.5313,531.5 Q644.8281,531.5 644.2344,531.7813 Q643.6563,532.0625 643.2031,532.6875 Q642.75,533.3125 642.75,534.1719 L642.75,535.0938 Q642.75,536.125 643.5938,536.8125 Q644.4375,537.5 645.9375,537.5 Q646.8281,537.5 647.4531,537.2969 Q647.8125,537.1875 648.2188,536.8281 Q648.4844,536.625 648.625,536.5625 Q648.7656,536.5 648.9375,536.5 Q649.2656,536.5 649.5,536.7656 Q649.75,537.0156 649.75,537.375 Q649.75,537.7188 649.4063,538.125 Q648.9063,538.7188 648.1094,539.0469 Q647.0625,539.5 645.7813,539.5 Q644.2813,539.5 643.0781,538.9063 Q642.1094,538.4375 641.4219,537.4219 Q640.75,536.4063 640.75,535.2031 L640.75,534.1094 Q640.75,532.8594 641.3438,531.7656 Q641.9531,530.6719 643,530.0938 Q644.0625,529.5 645.25,529.5 Q645.9688,529.5 646.5938,529.75 Q647.2188,530 647.75,530.5 Z " fill="#000000"/><text fill="#000000" font-family="sans-serif" font-size="12" lengthAdjust="spacing" textLength="61" x="666.25" y="538.9102">ClientStore</text><line style="stroke:#A80036;stroke-width:1.5;" x1="416.5" x2="944.5" y1="550" y2="550"/><rect fill="none" height="6" style="stroke:#C82930;stroke-width:1.0;" width="6" x="423.5" y="558"/><text fill="#000000" font-family="sans-serif" font-size="11" lengthAdjust="spacing" textLength="57" x="435.5" y="565.4189">String name</text><rect fill="none" height="6" style="stroke:#C82930;stroke-width:1.0;" width="6" x="423.5" y="571.8359"/><text fill="#000000" font-family="sans-serif" font-size="11" lengthAdjust="spacing" textLength="127" x="435.5" y="579.2549">String citizenNumberString</text><rect fill="none" height="6" style="stroke:#C82930;stroke-width:1.0;" width="6" x="423.5" y="585.6719"/><text fill="#000000" font-family="sans-serif" font-size="11" lengthAdjust="spacing" textLength="90" x="435.5" y="593.0908">long phoneNumber</text><rect fill="none" height="6" style="stroke:#C82930;stroke-width:1.0;" width="6" x="423.5" y="599.5078"/><text fill="#000000" font-family="sans-serif" font-size="11" lengthAdjust="spacing" textLength="78" x="435.5" y="606.9268">long nhsNumber</text><rect fill="none" height="6" style="stroke:#C82930;stroke-width:1.0;" width="6" x="423.5" y="613.3438"/><text fill="#000000" font-family="sans-serif" font-size="11" lengthAdjust="spacing" textLength="75" x="435.5" y="620.7627">long taxNumber</text><rect fill="none" height="6" style="stroke:#C82930;stroke-width:1.0;" width="6" x="423.5" y="627.1797"/><text fill="#000000" font-family="sans-serif" font-size="11" lengthAdjust="spacing" textLength="68" x="435.5" y="634.5986">Date birthDate</text><rect fill="none" height="6" style="stroke:#C82930;stroke-width:1.0;" width="6" x="423.5" y="641.0156"/><text fill="#000000" font-family="sans-serif" font-size="11" lengthAdjust="spacing" textLength="51" x="435.5" y="648.4346">Email email</text><rect fill="none" height="6" style="stroke:#C82930;stroke-width:1.0;" width="6" x="423.5" y="654.8516"/><text fill="#000000" font-family="sans-serif" font-size="11" lengthAdjust="spacing" textLength="65" x="435.5" y="662.2705">String adress</text><line style="stroke:#A80036;stroke-width:1.5;" x1="416.5" x2="944.5" y1="668.6875" y2="668.6875"/><ellipse cx="426.5" cy="679.6875" fill="#84BE84" rx="3" ry="3" style="stroke:#038048;stroke-width:1.0;"/><text fill="#000000" font-family="sans-serif" font-size="11" lengthAdjust="spacing" textLength="504" x="435.5" y="684.1064">createClient(name, citizenNumberString, phoneNumber, nhsNumber, taxNumber, birthDate, email, adress)</text><ellipse cx="426.5" cy="693.5234" fill="#84BE84" rx="3" ry="3" style="stroke:#038048;stroke-width:1.0;"/><text fill="#000000" font-family="sans-serif" font-size="11" lengthAdjust="spacing" textLength="115" x="435.5" y="697.9424">saveClient2(newClient);</text><!--MD5=[24b1725679ab697d059fb4e139542e91]
class CVSfiles--><rect codeLine="30" fill="#FEFECE" filter="url(#f1qzuf39ggsj3l)" height="158.6875" id="CVSfiles" style="stroke:#A80036;stroke-width:1.5;" width="251" x="1034" y="267"/><ellipse cx="1131.75" cy="283" fill="#ADD1B2" rx="11" ry="11" style="stroke:#A80036;stroke-width:1.0;"/><path d="M1133.75,279.5 Q1133.9531,279 1134.1875,278.75 Q1134.4219,278.5 1134.6875,278.5 Q1135.1563,278.5 1135.4531,278.7813 Q1135.75,279.0625 1135.75,279.7188 L1135.75,281.2813 Q1135.75,281.9375 1135.4688,282.2188 Q1135.1875,282.5 1134.75,282.5 Q1134.3594,282.5 1134.1094,282.3281 Q1133.8594,282.1563 1133.75,281.7031 Q1133.7031,281.3906 1133.5313,281.2188 Q1133.2188,280.8906 1132.6563,280.7031 Q1132.0938,280.5 1131.5313,280.5 Q1130.8281,280.5 1130.2344,280.7813 Q1129.6563,281.0625 1129.2031,281.6875 Q1128.75,282.3125 1128.75,283.1719 L1128.75,284.0938 Q1128.75,285.125 1129.5938,285.8125 Q1130.4375,286.5 1131.9375,286.5 Q1132.8281,286.5 1133.4531,286.2969 Q1133.8125,286.1875 1134.2188,285.8281 Q1134.4844,285.625 1134.625,285.5625 Q1134.7656,285.5 1134.9375,285.5 Q1135.2656,285.5 1135.5,285.7656 Q1135.75,286.0156 1135.75,286.375 Q1135.75,286.7188 1135.4063,287.125 Q1134.9063,287.7188 1134.1094,288.0469 Q1133.0625,288.5 1131.7813,288.5 Q1130.2813,288.5 1129.0781,287.9063 Q1128.1094,287.4375 1127.4219,286.4219 Q1126.75,285.4063 1126.75,284.2031 L1126.75,283.1094 Q1126.75,281.8594 1127.3438,280.7656 Q1127.9531,279.6719 1129,279.0938 Q1130.0625,278.5 1131.25,278.5 Q1131.9688,278.5 1132.5938,278.75 Q1133.2188,279 1133.75,279.5 Z " fill="#000000"/><text fill="#000000" font-family="sans-serif" font-size="12" lengthAdjust="spacing" textLength="47" x="1152.25" y="287.9102">CVSfiles</text><line style="stroke:#A80036;stroke-width:1.5;" x1="1035" x2="1284" y1="299" y2="299"/><rect fill="none" height="6" style="stroke:#C82930;stroke-width:1.0;" width="6" x="1042" y="307"/><text fill="#000000" font-family="sans-serif" font-size="11" lengthAdjust="spacing" textLength="43" x="1054" y="314.4189">int option</text><line style="stroke:#A80036;stroke-width:1.5;" x1="1035" x2="1284" y1="320.8359" y2="320.8359"/><ellipse cx="1045" cy="331.8359" fill="#84BE84" rx="3" ry="3" style="stroke:#038048;stroke-width:1.0;"/><text fill="#000000" font-family="sans-serif" font-size="11" lengthAdjust="spacing" textLength="136" x="1054" y="336.2549">LoadDataFileMATCPMDISC()</text><ellipse cx="1045" cy="345.6719" fill="#84BE84" rx="3" ry="3" style="stroke:#038048;stroke-width:1.0;"/><text fill="#000000" font-family="sans-serif" font-size="11" lengthAdjust="spacing" textLength="105" x="1054" y="350.0908">LoadDataFileMATCP()</text><ellipse cx="1045" cy="359.5078" fill="#84BE84" rx="3" ry="3" style="stroke:#038048;stroke-width:1.0;"/><text fill="#000000" font-family="sans-serif" font-size="11" lengthAdjust="spacing" textLength="101" x="1054" y="363.9268">LoadDataFileMDISC()</text><ellipse cx="1045" cy="373.3438" fill="#84BE84" rx="3" ry="3" style="stroke:#038048;stroke-width:1.0;"/><text fill="#000000" font-family="sans-serif" font-size="11" lengthAdjust="spacing" textLength="113" x="1054" y="377.7627">ChoseOption(int option)</text><ellipse cx="1045" cy="387.1797" fill="#84BE84" rx="3" ry="3" style="stroke:#038048;stroke-width:1.0;"/><text fill="#000000" font-family="sans-serif" font-size="11" lengthAdjust="spacing" textLength="132" x="1054" y="391.5986">CreateNewClient(int option)</text><ellipse cx="1045" cy="401.0156" fill="#84BE84" rx="3" ry="3" style="stroke:#038048;stroke-width:1.0;"/><text fill="#000000" font-family="sans-serif" font-size="11" lengthAdjust="spacing" textLength="92" x="1054" y="405.4346">AddTest(int option)</text><ellipse cx="1045" cy="414.8516" fill="#84BE84" rx="3" ry="3" style="stroke:#038048;stroke-width:1.0;"/><text fill="#000000" font-family="sans-serif" font-size="11" lengthAdjust="spacing" textLength="225" x="1054" y="419.2705">AssociateCategoriesandParameters(int option)</text><!--MD5=[ab72afe397d5012b7972c83f5d92d9fc]
class CVSfilesUI--><rect codeLine="40" fill="#FEFECE" filter="url(#f1qzuf39ggsj3l)" height="48" id="CVSfilesUI" style="stroke:#A80036;stroke-width:1.5;" width="91" x="1114" y="7"/><ellipse cx="1129" cy="23" fill="#ADD1B2" rx="11" ry="11" style="stroke:#A80036;stroke-width:1.0;"/><path d="M1131,19.5 Q1131.2031,19 1131.4375,18.75 Q1131.6719,18.5 1131.9375,18.5 Q1132.4063,18.5 1132.7031,18.7813 Q1133,19.0625 1133,19.7188 L1133,21.2813 Q1133,21.9375 1132.7188,22.2188 Q1132.4375,22.5 1132,22.5 Q1131.6094,22.5 1131.3594,22.3281 Q1131.1094,22.1563 1131,21.7031 Q1130.9531,21.3906 1130.7813,21.2188 Q1130.4688,20.8906 1129.9063,20.7031 Q1129.3438,20.5 1128.7813,20.5 Q1128.0781,20.5 1127.4844,20.7813 Q1126.9063,21.0625 1126.4531,21.6875 Q1126,22.3125 1126,23.1719 L1126,24.0938 Q1126,25.125 1126.8438,25.8125 Q1127.6875,26.5 1129.1875,26.5 Q1130.0781,26.5 1130.7031,26.2969 Q1131.0625,26.1875 1131.4688,25.8281 Q1131.7344,25.625 1131.875,25.5625 Q1132.0156,25.5 1132.1875,25.5 Q1132.5156,25.5 1132.75,25.7656 Q1133,26.0156 1133,26.375 Q1133,26.7188 1132.6563,27.125 Q1132.1563,27.7188 1131.3594,28.0469 Q1130.3125,28.5 1129.0313,28.5 Q1127.5313,28.5 1126.3281,27.9063 Q1125.3594,27.4375 1124.6719,26.4219 Q1124,25.4063 1124,24.2031 L1124,23.1094 Q1124,21.8594 1124.5938,20.7656 Q1125.2031,19.6719 1126.25,19.0938 Q1127.3125,18.5 1128.5,18.5 Q1129.2188,18.5 1129.8438,18.75 Q1130.4688,19 1131,19.5 Z " fill="#000000"/><text fill="#000000" font-family="sans-serif" font-size="12" lengthAdjust="spacing" textLength="59" x="1143" y="27.9102">CVSfilesUI</text><line style="stroke:#A80036;stroke-width:1.5;" x1="1115" x2="1204" y1="39" y2="39"/><line style="stroke:#A80036;stroke-width:1.5;" x1="1115" x2="1204" y1="47" y2="47"/><!--MD5=[ec79a3be53a23bb3c536cd4a288a818a]
class CVSfilesController--><rect codeLine="43" fill="#FEFECE" filter="url(#f1qzuf39ggsj3l)" height="89.5078" id="CVSfilesController" style="stroke:#A80036;stroke-width:1.5;" width="133" x="1093" y="116"/><ellipse cx="1108" cy="132" fill="#ADD1B2" rx="11" ry="11" style="stroke:#A80036;stroke-width:1.0;"/><path d="M1110,128.5 Q1110.2031,128 1110.4375,127.75 Q1110.6719,127.5 1110.9375,127.5 Q1111.4063,127.5 1111.7031,127.7813 Q1112,128.0625 1112,128.7188 L1112,130.2813 Q1112,130.9375 1111.7188,131.2188 Q1111.4375,131.5 1111,131.5 Q1110.6094,131.5 1110.3594,131.3281 Q1110.1094,131.1563 1110,130.7031 Q1109.9531,130.3906 1109.7813,130.2188 Q1109.4688,129.8906 1108.9063,129.7031 Q1108.3438,129.5 1107.7813,129.5 Q1107.0781,129.5 1106.4844,129.7813 Q1105.9063,130.0625 1105.4531,130.6875 Q1105,131.3125 1105,132.1719 L1105,133.0938 Q1105,134.125 1105.8438,134.8125 Q1106.6875,135.5 1108.1875,135.5 Q1109.0781,135.5 1109.7031,135.2969 Q1110.0625,135.1875 1110.4688,134.8281 Q1110.7344,134.625 1110.875,134.5625 Q1111.0156,134.5 1111.1875,134.5 Q1111.5156,134.5 1111.75,134.7656 Q1112,135.0156 1112,135.375 Q1112,135.7188 1111.6563,136.125 Q1111.1563,136.7188 1110.3594,137.0469 Q1109.3125,137.5 1108.0313,137.5 Q1106.5313,137.5 1105.3281,136.9063 Q1104.3594,136.4375 1103.6719,135.4219 Q1103,134.4063 1103,133.2031 L1103,132.1094 Q1103,130.8594 1103.5938,129.7656 Q1104.2031,128.6719 1105.25,128.0938 Q1106.3125,127.5 1107.5,127.5 Q1108.2188,127.5 1108.8438,127.75 Q1109.4688,128 1110,128.5 Z " fill="#000000"/><text fill="#000000" font-family="sans-serif" font-size="12" lengthAdjust="spacing" textLength="101" x="1122" y="136.9102">CVSfilesController</text><line style="stroke:#A80036;stroke-width:1.5;" x1="1094" x2="1225" y1="148" y2="148"/><rect fill="none" height="6" style="stroke:#C82930;stroke-width:1.0;" width="6" x="1101" y="156"/><text fill="#000000" font-family="sans-serif" font-size="11" lengthAdjust="spacing" textLength="43" x="1113" y="163.4189">int option</text><line style="stroke:#A80036;stroke-width:1.5;" x1="1094" x2="1225" y1="169.8359" y2="169.8359"/><ellipse cx="1104" cy="180.8359" fill="#84BE84" rx="3" ry="3" style="stroke:#038048;stroke-width:1.0;"/><text fill="#000000" font-family="sans-serif" font-size="11" lengthAdjust="spacing" textLength="98" x="1113" y="185.2549">choseOption(option)</text><ellipse cx="1104" cy="194.6719" fill="#84BE84" rx="3" ry="3" style="stroke:#038048;stroke-width:1.0;"/><text fill="#000000" font-family="sans-serif" font-size="11" lengthAdjust="spacing" textLength="78" x="1113" y="199.0908">AddTest(option)</text><!--MD5=[4145b439a94951e1ff7196986a81bf79]
class RegisterResultController--><rect codeLine="48" fill="#FEFECE" filter="url(#f1qzuf39ggsj3l)" height="214.0313" id="RegisterResultController" style="stroke:#A80036;stroke-width:1.5;" width="357" x="981" y="504"/><ellipse cx="1086.75" cy="520" fill="#ADD1B2" rx="11" ry="11" style="stroke:#A80036;stroke-width:1.0;"/><path d="M1088.75,516.5 Q1088.9531,516 1089.1875,515.75 Q1089.4219,515.5 1089.6875,515.5 Q1090.1563,515.5 1090.4531,515.7813 Q1090.75,516.0625 1090.75,516.7188 L1090.75,518.2813 Q1090.75,518.9375 1090.4688,519.2188 Q1090.1875,519.5 1089.75,519.5 Q1089.3594,519.5 1089.1094,519.3281 Q1088.8594,519.1563 1088.75,518.7031 Q1088.7031,518.3906 1088.5313,518.2188 Q1088.2188,517.8906 1087.6563,517.7031 Q1087.0938,517.5 1086.5313,517.5 Q1085.8281,517.5 1085.2344,517.7813 Q1084.6563,518.0625 1084.2031,518.6875 Q1083.75,519.3125 1083.75,520.1719 L1083.75,521.0938 Q1083.75,522.125 1084.5938,522.8125 Q1085.4375,523.5 1086.9375,523.5 Q1087.8281,523.5 1088.4531,523.2969 Q1088.8125,523.1875 1089.2188,522.8281 Q1089.4844,522.625 1089.625,522.5625 Q1089.7656,522.5 1089.9375,522.5 Q1090.2656,522.5 1090.5,522.7656 Q1090.75,523.0156 1090.75,523.375 Q1090.75,523.7188 1090.4063,524.125 Q1089.9063,524.7188 1089.1094,525.0469 Q1088.0625,525.5 1086.7813,525.5 Q1085.2813,525.5 1084.0781,524.9063 Q1083.1094,524.4375 1082.4219,523.4219 Q1081.75,522.4063 1081.75,521.2031 L1081.75,520.1094 Q1081.75,518.8594 1082.3438,517.7656 Q1082.9531,516.6719 1084,516.0938 Q1085.0625,515.5 1086.25,515.5 Q1086.9688,515.5 1087.5938,515.75 Q1088.2188,516 1088.75,516.5 Z " fill="#000000"/><text fill="#000000" font-family="sans-serif" font-size="12" lengthAdjust="spacing" textLength="137" x="1107.25" y="524.9102">RegisterResultController</text><line style="stroke:#A80036;stroke-width:1.5;" x1="982" x2="1337" y1="536" y2="536"/><rect fill="none" height="6" style="stroke:#C82930;stroke-width:1.0;" width="6" x="989" y="544"/><text fill="#000000" font-family="sans-serif" font-size="11" lengthAdjust="spacing" textLength="113" x="1001" y="551.4189">Double parameterValue</text><rect fill="none" height="6" style="stroke:#C82930;stroke-width:1.0;" width="6" x="989" y="557.8359"/><text fill="#000000" font-family="sans-serif" font-size="11" lengthAdjust="spacing" textLength="86" x="1001" y="565.2549">String parameters</text><rect fill="none" height="6" style="stroke:#C82930;stroke-width:1.0;" width="6" x="989" y="571.6719"/><text fill="#000000" font-family="sans-serif" font-size="11" lengthAdjust="spacing" textLength="80" x="1001" y="579.0908">String parameter</text><rect fill="none" height="6" style="stroke:#C82930;stroke-width:1.0;" width="6" x="989" y="585.5078"/><text fill="#000000" font-family="sans-serif" font-size="11" lengthAdjust="spacing" textLength="69" x="1001" y="592.9268">int accessKey</text><rect fill="none" height="6" style="stroke:#C82930;stroke-width:1.0;" width="6" x="989" y="599.3438"/><text fill="#000000" font-family="sans-serif" font-size="11" lengthAdjust="spacing" textLength="73" x="1001" y="606.7627">String testType</text><rect fill="none" height="6" style="stroke:#C82930;stroke-width:1.0;" width="6" x="989" y="613.1797"/><text fill="#000000" font-family="sans-serif" font-size="11" lengthAdjust="spacing" textLength="80" x="1001" y="620.5986">String parameter</text><rect fill="none" height="6" style="stroke:#C82930;stroke-width:1.0;" width="6" x="989" y="627.0156"/><text fill="#000000" font-family="sans-serif" font-size="11" lengthAdjust="spacing" textLength="74" x="1001" y="634.4346">String testCode</text><rect fill="none" height="6" style="stroke:#C82930;stroke-width:1.0;" width="6" x="989" y="640.8516"/><text fill="#000000" font-family="sans-serif" font-size="11" lengthAdjust="spacing" textLength="58" x="1001" y="648.2705">String result</text><rect fill="none" height="6" style="stroke:#C82930;stroke-width:1.0;" width="6" x="989" y="654.6875"/><text fill="#000000" font-family="sans-serif" font-size="11" lengthAdjust="spacing" textLength="113" x="1001" y="662.1064">Double parameterValue</text><line style="stroke:#A80036;stroke-width:1.5;" x1="982" x2="1337" y1="668.5234" y2="668.5234"/><ellipse cx="992" cy="679.5234" fill="#84BE84" rx="3" ry="3" style="stroke:#038048;stroke-width:1.0;"/><text fill="#000000" font-family="sans-serif" font-size="11" lengthAdjust="spacing" textLength="261" x="1001" y="683.9424">bloodAPI31(parameterValue, parameters, accessKey)</text><ellipse cx="992" cy="693.3594" fill="#84BE84" rx="3" ry="3" style="stroke:#038048;stroke-width:1.0;"/><text fill="#000000" font-family="sans-serif" font-size="11" lengthAdjust="spacing" textLength="255" x="1001" y="697.7783">covidAPI11(parameterValue, accessKey, parameter)</text><ellipse cx="992" cy="707.1953" fill="#84BE84" rx="3" ry="3" style="stroke:#038048;stroke-width:1.0;"/><text fill="#000000" font-family="sans-serif" font-size="11" lengthAdjust="spacing" textLength="331" x="1001" y="711.6143">createResult(testType, parameter, testCode, result, parameterValue)</text><!--MD5=[02e4b9b7573f1156f41e60aa5b4e25a4]
class Company--><rect codeLine="62" fill="#FEFECE" filter="url(#f1qzuf39ggsj3l)" height="75.6719" id="Company" style="stroke:#A80036;stroke-width:1.5;" width="120" x="1373.5" y="573"/><ellipse cx="1404.25" cy="589" fill="#ADD1B2" rx="11" ry="11" style="stroke:#A80036;stroke-width:1.0;"/><path d="M1406.25,585.5 Q1406.4531,585 1406.6875,584.75 Q1406.9219,584.5 1407.1875,584.5 Q1407.6563,584.5 1407.9531,584.7813 Q1408.25,585.0625 1408.25,585.7188 L1408.25,587.2813 Q1408.25,587.9375 1407.9688,588.2188 Q1407.6875,588.5 1407.25,588.5 Q1406.8594,588.5 1406.6094,588.3281 Q1406.3594,588.1563 1406.25,587.7031 Q1406.2031,587.3906 1406.0313,587.2188 Q1405.7188,586.8906 1405.1563,586.7031 Q1404.5938,586.5 1404.0313,586.5 Q1403.3281,586.5 1402.7344,586.7813 Q1402.1563,587.0625 1401.7031,587.6875 Q1401.25,588.3125 1401.25,589.1719 L1401.25,590.0938 Q1401.25,591.125 1402.0938,591.8125 Q1402.9375,592.5 1404.4375,592.5 Q1405.3281,592.5 1405.9531,592.2969 Q1406.3125,592.1875 1406.7188,591.8281 Q1406.9844,591.625 1407.125,591.5625 Q1407.2656,591.5 1407.4375,591.5 Q1407.7656,591.5 1408,591.7656 Q1408.25,592.0156 1408.25,592.375 Q1408.25,592.7188 1407.9063,593.125 Q1407.4063,593.7188 1406.6094,594.0469 Q1405.5625,594.5 1404.2813,594.5 Q1402.7813,594.5 1401.5781,593.9063 Q1400.6094,593.4375 1399.9219,592.4219 Q1399.25,591.4063 1399.25,590.2031 L1399.25,589.1094 Q1399.25,587.8594 1399.8438,586.7656 Q1400.4531,585.6719 1401.5,585.0938 Q1402.5625,584.5 1403.75,584.5 Q1404.4688,584.5 1405.0938,584.75 Q1405.7188,585 1406.25,585.5 Z " fill="#000000"/><text fill="#000000" font-family="sans-serif" font-size="12" lengthAdjust="spacing" textLength="53" x="1421.75" y="593.9102">Company</text><line style="stroke:#A80036;stroke-width:1.5;" x1="1374.5" x2="1492.5" y1="605" y2="605"/><rect fill="none" height="6" style="stroke:#C82930;stroke-width:1.0;" width="6" x="1381.5" y="613"/><text fill="#000000" font-family="sans-serif" font-size="11" lengthAdjust="spacing" textLength="55" x="1393.5" y="620.4189">String code</text><line style="stroke:#A80036;stroke-width:1.5;" x1="1374.5" x2="1492.5" y1="626.8359" y2="626.8359"/><ellipse cx="1384.5" cy="637.8359" fill="#84BE84" rx="3" ry="3" style="stroke:#038048;stroke-width:1.0;"/><text fill="#000000" font-family="sans-serif" font-size="11" lengthAdjust="spacing" textLength="94" x="1393.5" y="642.2549">registSample(code)</text><!--MD5=[91ae4ed7812c3b6eab8d6f2aa22cb9ac]
class DiagnosisStore--><rect codeLine="66" fill="#FEFECE" filter="url(#f1qzuf39ggsj3l)" height="61.8359" id="DiagnosisStore" style="stroke:#A80036;stroke-width:1.5;" width="118" x="1528.5" y="580"/><ellipse cx="1543.5" cy="596" fill="#ADD1B2" rx="11" ry="11" style="stroke:#A80036;stroke-width:1.0;"/><path d="M1545.5,592.5 Q1545.7031,592 1545.9375,591.75 Q1546.1719,591.5 1546.4375,591.5 Q1546.9063,591.5 1547.2031,591.7813 Q1547.5,592.0625 1547.5,592.7188 L1547.5,594.2813 Q1547.5,594.9375 1547.2188,595.2188 Q1546.9375,595.5 1546.5,595.5 Q1546.1094,595.5 1545.8594,595.3281 Q1545.6094,595.1563 1545.5,594.7031 Q1545.4531,594.3906 1545.2813,594.2188 Q1544.9688,593.8906 1544.4063,593.7031 Q1543.8438,593.5 1543.2813,593.5 Q1542.5781,593.5 1541.9844,593.7813 Q1541.4063,594.0625 1540.9531,594.6875 Q1540.5,595.3125 1540.5,596.1719 L1540.5,597.0938 Q1540.5,598.125 1541.3438,598.8125 Q1542.1875,599.5 1543.6875,599.5 Q1544.5781,599.5 1545.2031,599.2969 Q1545.5625,599.1875 1545.9688,598.8281 Q1546.2344,598.625 1546.375,598.5625 Q1546.5156,598.5 1546.6875,598.5 Q1547.0156,598.5 1547.25,598.7656 Q1547.5,599.0156 1547.5,599.375 Q1547.5,599.7188 1547.1563,600.125 Q1546.6563,600.7188 1545.8594,601.0469 Q1544.8125,601.5 1543.5313,601.5 Q1542.0313,601.5 1540.8281,600.9063 Q1539.8594,600.4375 1539.1719,599.4219 Q1538.5,598.4063 1538.5,597.2031 L1538.5,596.1094 Q1538.5,594.8594 1539.0938,593.7656 Q1539.7031,592.6719 1540.75,592.0938 Q1541.8125,591.5 1543,591.5 Q1543.7188,591.5 1544.3438,591.75 Q1544.9688,592 1545.5,592.5 Z " fill="#000000"/><text fill="#000000" font-family="sans-serif" font-size="12" lengthAdjust="spacing" textLength="86" x="1557.5" y="600.9102">DiagnosisStore</text><line style="stroke:#A80036;stroke-width:1.5;" x1="1529.5" x2="1645.5" y1="612" y2="612"/><line style="stroke:#A80036;stroke-width:1.5;" x1="1529.5" x2="1645.5" y1="620" y2="620"/><ellipse cx="1539.5" cy="631" fill="#84BE84" rx="3" ry="3" style="stroke:#038048;stroke-width:1.0;"/><text fill="#000000" font-family="sans-serif" font-size="11" lengthAdjust="spacing" textLength="62" x="1548.5" y="635.4189">getDateList()</text><!--MD5=[cb49b38d9f4f5d5592f8cfeedabd25a2]
reverse link ListOfClients to CVSfiles--><path codeLine="70" d="M922.59,346.5 C954.2,346.5 995.02,346.5 1033.85,346.5 " fill="none" id="ListOfClients-backto-CVSfiles" style="stroke:#A80036;stroke-width:1.0;"/><polygon fill="#A80036" points="917.2,346.5,926.2,350.5,922.2,346.5,926.2,342.5,917.2,346.5" style="stroke:#A80036;stroke-width:1.0;"/><polygon fill="#000000" points="934.5,334.6758,943.5451,337.6147,943.5451,331.7369,934.5,334.6758" style="stroke:#000000;stroke-width:1.0;"/><text fill="#000000" font-family="sans-serif" font-size="13" lengthAdjust="spacing" textLength="67" x="948.5" y="339.9951">implements</text><text fill="#000000" font-family="sans-serif" font-size="13" lengthAdjust="spacing" textLength="7" x="925.1606" y="342.8459">1</text><text fill="#000000" font-family="sans-serif" font-size="13" lengthAdjust="spacing" textLength="7" x="1018.9799" y="343.5279">1</text><!--MD5=[a36de38e75ba56a3d5b1e05203d3f9ad]
link CVSfiles to ListaCategorias--><path codeLine="71" d="M1285.41,346.5 C1323.48,346.5 1363.72,346.5 1396,346.5 " fill="none" id="CVSfiles-to-ListaCategorias" style="stroke:#A80036;stroke-width:1.0;"/><polygon fill="#A80036" points="1401.12,346.5,1392.12,342.5,1396.12,346.5,1392.12,350.5,1401.12,346.5" style="stroke:#A80036;stroke-width:1.0;"/><polygon fill="#000000" points="1312.25,334.6758,1303.2049,331.7369,1303.2049,337.6147,1312.25,334.6758" style="stroke:#000000;stroke-width:1.0;"/><text fill="#000000" font-family="sans-serif" font-size="13" lengthAdjust="spacing" textLength="67" x="1316.25" y="339.9951">implements</text><text fill="#000000" font-family="sans-serif" font-size="13" lengthAdjust="spacing" textLength="7" x="1292.8915" y="343.5518">1</text><text fill="#000000" font-family="sans-serif" font-size="13" lengthAdjust="spacing" textLength="7" x="1386.4565" y="343.0415">1</text><!--MD5=[58736f097838f714b002bdc85bfc67dc]
link CVSfiles to RegisterResultController--><path codeLine="72" d="M1159.5,426.26 C1159.5,448.96 1159.5,474.17 1159.5,498.45 " fill="none" id="CVSfiles-to-RegisterResultController" style="stroke:#A80036;stroke-width:1.0;"/><polygon fill="#A80036" points="1159.5,503.62,1163.5,494.62,1159.5,498.62,1155.5,494.62,1159.5,503.62" style="stroke:#A80036;stroke-width:1.0;"/><polygon fill="#000000" points="1164.5,470.1758,1167.4389,461.1307,1161.5611,461.1307,1164.5,470.1758" style="stroke:#000000;stroke-width:1.0;"/><text fill="#000000" font-family="sans-serif" font-size="13" lengthAdjust="spacing" textLength="37" x="1173.5" y="470.4951">knows</text><text fill="#000000" font-family="sans-serif" font-size="13" lengthAdjust="spacing" textLength="7" x="1152.2102" y="447.0502">1</text><text fill="#000000" font-family="sans-serif" font-size="13" lengthAdjust="spacing" textLength="5" x="1154.3242" y="493.0137">*</text><!--MD5=[b94efd23b04613957570cf6fd4739ca9]
link CVSfilesUI to CVSfilesController--><path codeLine="73" d="M1159.5,55.18 C1159.5,70.59 1159.5,91.42 1159.5,110.45 " fill="none" id="CVSfilesUI-to-CVSfilesController" style="stroke:#A80036;stroke-width:1.0;stroke-dasharray:7.0,7.0;"/><polygon fill="#A80036" points="1159.5,115.76,1163.5,106.76,1159.5,110.76,1155.5,106.76,1159.5,115.76" style="stroke:#A80036;stroke-width:1.0;"/><!--MD5=[93497dc61e17b9b60101a4ac004b6507]
link CVSfilesController to CVSfiles--><path codeLine="74" d="M1159.5,206.42 C1159.5,223 1159.5,242.42 1159.5,261.4 " fill="none" id="CVSfilesController-to-CVSfiles" style="stroke:#A80036;stroke-width:1.0;stroke-dasharray:7.0,7.0;"/><polygon fill="#A80036" points="1159.5,266.74,1163.5,257.74,1159.5,261.74,1155.5,257.74,1159.5,266.74" style="stroke:#A80036;stroke-width:1.0;"/><!--MD5=[bd6db16d692f73a6316f06160cfd9e41]
link CVSfiles to ClientStore--><path codeLine="75" d="M1033.96,416.3 C978.72,446.57 912.92,482.63 853.16,515.38 " fill="none" id="CVSfiles-to-ClientStore" style="stroke:#A80036;stroke-width:1.0;"/><polygon fill="#A80036" points="848.5,517.93,858.3133,517.0939,852.8802,515.5188,854.4553,510.0856,848.5,517.93" style="stroke:#A80036;stroke-width:1.0;"/><polygon fill="#000000" points="950.1152,467.5787,959.4597,465.8091,956.635,460.6545,950.1152,467.5787" style="stroke:#000000;stroke-width:1.0;"/><text fill="#000000" font-family="sans-serif" font-size="13" lengthAdjust="spacing" textLength="37" x="963.5" y="470.4951">knows</text><text fill="#000000" font-family="sans-serif" font-size="13" lengthAdjust="spacing" textLength="7" x="1019.0966" y="417.5813">1</text><text fill="#000000" font-family="sans-serif" font-size="13" lengthAdjust="spacing" textLength="5" x="857.2055" y="507.0549">*</text><!--MD5=[a7a3a9769960ecab61ee59a13c353c1e]
link CVSfiles to TestStore--><path codeLine="76" d="M1033.75,396.13 C1001.74,407.19 967.15,418.01 934.5,426 C700.24,483.32 627.05,430.03 397.5,504 C381.66,509.1 365.57,515.36 349.74,522.25 " fill="none" id="CVSfiles-to-TestStore" style="stroke:#A80036;stroke-width:1.0;"/><polygon fill="#A80036" points="344.83,524.4,354.6788,524.4315,349.4055,522.3839,351.4531,517.1106,344.83,524.4" style="stroke:#A80036;stroke-width:1.0;"/><polygon fill="#000000" points="720.5829,466.0824,730.0109,467.3325,728.9451,461.5521,720.5829,466.0824" style="stroke:#000000;stroke-width:1.0;"/><text fill="#000000" font-family="sans-serif" font-size="13" lengthAdjust="spacing" textLength="37" x="734.5" y="470.4951">knows</text><text fill="#000000" font-family="sans-serif" font-size="13" lengthAdjust="spacing" textLength="7" x="1018.8738" y="396.1822">1</text><text fill="#000000" font-family="sans-serif" font-size="13" lengthAdjust="spacing" textLength="5" x="353.0852" y="513.5067">*</text><!--MD5=[a3e3ea06a82bf619773fcaba4330816c]
link CVSfiles to Company--><path codeLine="77" d="M1268.4,426.15 C1298.02,449.71 1329.17,476.61 1355.5,504 C1374.42,523.68 1392.67,548.09 1406.76,568.52 " fill="none" id="CVSfiles-to-Company" style="stroke:#A80036;stroke-width:1.0;"/><polygon fill="#A80036" points="1409.7,572.81,1407.9131,563.1246,1406.874,568.6852,1401.3134,567.6462,1409.7,572.81" style="stroke:#A80036;stroke-width:1.0;"/><polygon fill="#000000" points="1329.9847,468.7615,1325.7884,460.2267,1321.5732,464.3232,1329.9847,468.7615" style="stroke:#000000;stroke-width:1.0;"/><text fill="#000000" font-family="sans-serif" font-size="13" lengthAdjust="spacing" textLength="37" x="1335.5" y="470.4951">knows</text><text fill="#000000" font-family="sans-serif" font-size="13" lengthAdjust="spacing" textLength="7" x="1270.4578" y="447.2061">1</text><text fill="#000000" font-family="sans-serif" font-size="13" lengthAdjust="spacing" textLength="5" x="1400.0153" y="562.1381">*</text><!--MD5=[362d39ef4e90e8e8ac3852eb4d4958f3]
link CVSfiles to DiagnosisStore--><path codeLine="78" d="M1285.24,385.43 C1356.4,411.11 1444.15,450.23 1510.5,504 C1534.69,523.6 1555.02,552.54 1568.71,575.24 " fill="none" id="CVSfiles-to-DiagnosisStore" style="stroke:#A80036;stroke-width:1.0;"/><polygon fill="#A80036" points="1571.36,579.69,1570.1978,569.91,1568.8043,575.3925,1563.3218,573.999,1571.36,579.69" style="stroke:#A80036;stroke-width:1.0;"/><polygon fill="#000000" points="1477.6546,467.9577,1471.774,460.4831,1468.5037,465.3672,1477.6546,467.9577" style="stroke:#000000;stroke-width:1.0;"/><text fill="#000000" font-family="sans-serif" font-size="13" lengthAdjust="spacing" textLength="37" x="1482.5" y="470.4951">knows</text><text fill="#000000" font-family="sans-serif" font-size="13" lengthAdjust="spacing" textLength="7" x="1293.1156" y="384.8301">1</text><text fill="#000000" font-family="sans-serif" font-size="13" lengthAdjust="spacing" textLength="5" x="1562.5155" y="569.1306">*</text><!--MD5=[e1a2d64b23413165ef5a0603dad07f95]
@startuml
'https://plantuml.com/class-diagram
interface ListOfClients
interface ListaCategorias

class TestStore{
-Client clientForTest
-String code
-String nhsCode
-TestType type
-List<parameters> parameters
-String labId
-Date date

+createTest(clientForTest, code, nhsCode, type, parameters, labId, date);
+testStore.saveTest(test);
}
class ClientStore{
  -String name
  -String citizenNumberString
  -long phoneNumber
  -long nhsNumber
  -long taxNumber
  -Date birthDate
  -Email email
  -String adress

  +createClient(name, citizenNumberString, phoneNumber, nhsNumber, taxNumber, birthDate, email, adress)
  +saveClient2(newClient);
}
class CVSfiles {
-int option
+LoadDataFileMATCPMDISC()
+LoadDataFileMATCP()
+LoadDataFileMDISC()
+ChoseOption(int option)
+CreateNewClient(int option)
+AddTest(int option)
+AssociateCategoriesandParameters(int option)
}
class CVSfilesUI{

}
class CVSfilesController{
-int option
+choseOption(option)
+AddTest(option)
}
class RegisterResultController{
- Double parameterValue
-String parameters
-String parameter
-int accessKey
-String testType
-String parameter
-String testCode
-String result
-Double parameterValue
+bloodAPI31(parameterValue, parameters, accessKey)
+covidAPI11(parameterValue, accessKey, parameter)
+createResult(testType, parameter, testCode, result, parameterValue)
}
class Company{
-String code
+registSample(code)
}
class DiagnosisStore{

+getDateList()
}
CVSfiles "1" -left-> "1" ListOfClients : implements >
CVSfiles "1" -right-> "1" ListaCategorias : implements >
CVSfiles "1" -down-> "*" RegisterResultController : knows >
CVSfilesUI..>CVSfilesController
CVSfilesController..>CVSfiles
CVSfiles "1" -down-> "*" ClientStore : knows >
CVSfiles "1" -down-> "*" TestStore : knows >
CVSfiles "1" -down-> "*" Company : knows >
CVSfiles "1" -down-> "*" DiagnosisStore : knows >
@enduml

@startuml
interface ListOfClients
interface ListaCategorias

class TestStore{
-Client clientForTest
-String code
-String nhsCode
-TestType type
-List<parameters> parameters
-String labId
-Date date

+createTest(clientForTest, code, nhsCode, type, parameters, labId, date);
+testStore.saveTest(test);
}
class ClientStore{
  -String name
  -String citizenNumberString
  -long phoneNumber
  -long nhsNumber
  -long taxNumber
  -Date birthDate
  -Email email
  -String adress

  +createClient(name, citizenNumberString, phoneNumber, nhsNumber, taxNumber, birthDate, email, adress)
  +saveClient2(newClient);
}
class CVSfiles {
-int option
+LoadDataFileMATCPMDISC()
+LoadDataFileMATCP()
+LoadDataFileMDISC()
+ChoseOption(int option)
+CreateNewClient(int option)
+AddTest(int option)
+AssociateCategoriesandParameters(int option)
}
class CVSfilesUI{

}
class CVSfilesController{
-int option
+choseOption(option)
+AddTest(option)
}
class RegisterResultController{
- Double parameterValue
-String parameters
-String parameter
-int accessKey
-String testType
-String parameter
-String testCode
-String result
-Double parameterValue
+bloodAPI31(parameterValue, parameters, accessKey)
+covidAPI11(parameterValue, accessKey, parameter)
+createResult(testType, parameter, testCode, result, parameterValue)
}
class Company{
-String code
+registSample(code)
}
class DiagnosisStore{

+getDateList()
}
CVSfiles "1" -left-> "1" ListOfClients : implements >
CVSfiles "1" -right-> "1" ListaCategorias : implements >
CVSfiles "1" -down-> "*" RegisterResultController : knows >
CVSfilesUI..>CVSfilesController
CVSfilesController..>CVSfiles
CVSfiles "1" -down-> "*" ClientStore : knows >
CVSfiles "1" -down-> "*" TestStore : knows >
CVSfiles "1" -down-> "*" Company : knows >
CVSfiles "1" -down-> "*" DiagnosisStore : knows >
@enduml

PlantUML version 1.2021.00(Sun Jan 10 10:25:05 GMT 2021)
(GPL source distribution)
Java Runtime: OpenJDK Runtime Environment
JVM: OpenJDK 64-Bit Server VM
Default Encoding: Cp1252
Language: pt
Country: PT
--></g></svg>