<?xml version="1.0" encoding="UTF-8" standalone="no"?><svg xmlns="http://www.w3.org/2000/svg" xmlns:xlink="http://www.w3.org/1999/xlink" contentScriptType="application/ecmascript" contentStyleType="text/css" height="723.75px" preserveAspectRatio="none" style="width:1288px;height:723px;" version="1.1" viewBox="0 0 1288 723" width="1288.75px" zoomAndPan="magnify"><defs><filter height="300%" id="f1of4atpspag91" width="300%" x="-1" y="-1"><feGaussianBlur result="blurOut" stdDeviation="2.5"/><feColorMatrix in="blurOut" result="blurOut2" type="matrix" values="0 0 0 0 0 0 0 0 0 0 0 0 0 0 0 0 0 0 .4 0"/><feOffset dx="5.0" dy="5.0" in="blurOut2" result="blurOut3"/><feBlend in="SourceGraphic" in2="blurOut3" mode="normal"/></filter></defs><g><!--MD5=[ed6624c6556d5e7b1bd23032162d20b7]
class Client--><rect codeLine="6" fill="#FEFECE" filter="url(#f1of4atpspag91)" height="215.6543" id="Client" style="stroke:#A80036;stroke-width:1.875;" width="571.25" x="427.5" y="491.25"/><ellipse cx="687.8125" cy="511.25" fill="#ADD1B2" rx="13.75" ry="13.75" style="stroke:#A80036;stroke-width:1.25;"/><path d="M690.3125,506.875 Q690.5664,506.25 690.8594,505.9375 Q691.1523,505.625 691.4844,505.625 Q692.0703,505.625 692.4414,505.9766 Q692.8125,506.3281 692.8125,507.1484 L692.8125,509.1016 Q692.8125,509.9219 692.4609,510.2734 Q692.1094,510.625 691.5625,510.625 Q691.0742,510.625 690.7617,510.4102 Q690.4492,510.1953 690.3125,509.6289 Q690.2539,509.2383 690.0391,509.0234 Q689.6484,508.6133 688.9453,508.3789 Q688.2422,508.125 687.5391,508.125 Q686.6602,508.125 685.918,508.4766 Q685.1953,508.8281 684.6289,509.6094 Q684.0625,510.3906 684.0625,511.4648 L684.0625,512.6172 Q684.0625,513.9063 685.1172,514.7656 Q686.1719,515.625 688.0469,515.625 Q689.1602,515.625 689.9414,515.3711 Q690.3906,515.2344 690.8984,514.7852 Q691.2305,514.5313 691.4063,514.4531 Q691.582,514.375 691.7969,514.375 Q692.207,514.375 692.5,514.707 Q692.8125,515.0195 692.8125,515.4688 Q692.8125,515.8984 692.3828,516.4063 Q691.7578,517.1484 690.7617,517.5586 Q689.4531,518.125 687.8516,518.125 Q685.9766,518.125 684.4727,517.3828 Q683.2617,516.7969 682.4023,515.5273 Q681.5625,514.2578 681.5625,512.7539 L681.5625,511.3867 Q681.5625,509.8242 682.3047,508.457 Q683.0664,507.0898 684.375,506.3672 Q685.7031,505.625 687.1875,505.625 Q688.0859,505.625 688.8672,505.9375 Q689.6484,506.25 690.3125,506.875 Z " fill="#000000"/><text fill="#000000" font-family="sans-serif" font-size="15" lengthAdjust="spacing" textLength="40" x="713.4375" y="517.3877">Client</text><line style="stroke:#A80036;stroke-width:1.875;" x1="428.75" x2="997.5" y1="531.25" y2="531.25"/><text fill="#000000" font-family="sans-serif" font-size="13.75" lengthAdjust="spacing" textLength="118.75" x="435" y="550.5237">-long citizenNumber</text><text fill="#000000" font-family="sans-serif" font-size="13.75" lengthAdjust="spacing" textLength="117.5" x="435" y="567.8186">-long phoneNumber</text><text fill="#000000" font-family="sans-serif" font-size="13.75" lengthAdjust="spacing" textLength="91.25" x="435" y="585.1135">-int nhsNumber</text><text fill="#000000" font-family="sans-serif" font-size="13.75" lengthAdjust="spacing" textLength="87.5" x="435" y="602.4084">-int taxNumber</text><text fill="#000000" font-family="sans-serif" font-size="13.75" lengthAdjust="spacing" textLength="90" x="435" y="619.7034">-Date birthDate</text><text fill="#000000" font-family="sans-serif" font-size="13.75" lengthAdjust="spacing" textLength="66.25" x="435" y="636.9983">-String role</text><text fill="#000000" font-family="sans-serif" font-size="13.75" lengthAdjust="spacing" textLength="86.25" x="435" y="654.2932">-String gender</text><text fill="#000000" font-family="sans-serif" font-size="13.75" lengthAdjust="spacing" textLength="76.25" x="435" y="671.5881">-String name</text><line style="stroke:#A80036;stroke-width:1.875;" x1="428.75" x2="997.5" y1="679.6094" y2="679.6094"/><text fill="#000000" font-family="sans-serif" font-size="13.75" lengthAdjust="spacing" textLength="556.25" x="435" y="698.8831">+Client(name, citizenNumber, nhsNumber, taxNumber, birthDate, phoneNumber, role, gender)</text><!--MD5=[cd1972546e4ec9098c4e0b6bc5ace03d]
class clientStore--><rect codeLine="18" fill="#FEFECE" filter="url(#f1of4atpspag91)" height="146.4746" id="clientStore" style="stroke:#A80036;stroke-width:1.875;" width="321.25" x="8.75" y="526.25"/><ellipse cx="127.8125" cy="546.25" fill="#ADD1B2" rx="13.75" ry="13.75" style="stroke:#A80036;stroke-width:1.25;"/><path d="M130.3125,541.875 Q130.5664,541.25 130.8594,540.9375 Q131.1523,540.625 131.4844,540.625 Q132.0703,540.625 132.4414,540.9766 Q132.8125,541.3281 132.8125,542.1484 L132.8125,544.1016 Q132.8125,544.9219 132.4609,545.2734 Q132.1094,545.625 131.5625,545.625 Q131.0742,545.625 130.7617,545.4102 Q130.4492,545.1953 130.3125,544.6289 Q130.2539,544.2383 130.0391,544.0234 Q129.6484,543.6133 128.9453,543.3789 Q128.2422,543.125 127.5391,543.125 Q126.6602,543.125 125.918,543.4766 Q125.1953,543.8281 124.6289,544.6094 Q124.0625,545.3906 124.0625,546.4648 L124.0625,547.6172 Q124.0625,548.9063 125.1172,549.7656 Q126.1719,550.625 128.0469,550.625 Q129.1602,550.625 129.9414,550.3711 Q130.3906,550.2344 130.8984,549.7852 Q131.2305,549.5313 131.4063,549.4531 Q131.582,549.375 131.7969,549.375 Q132.207,549.375 132.5,549.707 Q132.8125,550.0195 132.8125,550.4688 Q132.8125,550.8984 132.3828,551.4063 Q131.7578,552.1484 130.7617,552.5586 Q129.4531,553.125 127.8516,553.125 Q125.9766,553.125 124.4727,552.3828 Q123.2617,551.7969 122.4023,550.5273 Q121.5625,549.2578 121.5625,547.7539 L121.5625,546.3867 Q121.5625,544.8242 122.3047,543.457 Q123.0664,542.0898 124.375,541.3672 Q125.7031,540.625 127.1875,540.625 Q128.0859,540.625 128.8672,540.9375 Q129.6484,541.25 130.3125,541.875 Z " fill="#000000"/><text fill="#000000" font-family="sans-serif" font-size="15" lengthAdjust="spacing" textLength="72.5" x="153.4375" y="552.3877">clientStore</text><line style="stroke:#A80036;stroke-width:1.875;" x1="10" x2="328.75" y1="566.25" y2="566.25"/><text fill="#000000" font-family="sans-serif" font-size="13.75" lengthAdjust="spacing" textLength="82.5" x="16.25" y="585.5237">-List clientList</text><line style="stroke:#A80036;stroke-width:1.875;" x1="10" x2="328.75" y1="593.5449" y2="593.5449"/><text fill="#000000" font-family="sans-serif" font-size="13.75" lengthAdjust="spacing" textLength="250" x="16.25" y="612.8186">+Client(name, citizenNumber, nhsNumber,</text><text fill="#000000" font-family="sans-serif" font-size="13.75" lengthAdjust="spacing" textLength="302.5" x="20" y="630.1135">taxNumber, birthDate, phoneNumber, role, gender)</text><text fill="#000000" font-family="sans-serif" font-size="13.75" lengthAdjust="spacing" textLength="112.5" x="16.25" y="647.4084">+saveClient(Client)</text><text fill="#000000" font-family="sans-serif" font-size="13.75" lengthAdjust="spacing" textLength="128.75" x="16.25" y="664.7034">+validateClient(Client)</text><!--MD5=[8ae808d068a8995f06b9b3ec51357f0b]
class AuthFacade--><rect codeLine="25" fill="#FEFECE" filter="url(#f1of4atpspag91)" height="94.5898" id="AuthFacade" style="stroke:#A80036;stroke-width:1.875;" width="228.75" x="1042.5" y="551.875"/><ellipse cx="1110.9375" cy="571.875" fill="#ADD1B2" rx="13.75" ry="13.75" style="stroke:#A80036;stroke-width:1.25;"/><path d="M1113.4375,567.5 Q1113.6914,566.875 1113.9844,566.5625 Q1114.2773,566.25 1114.6094,566.25 Q1115.1953,566.25 1115.5664,566.6016 Q1115.9375,566.9531 1115.9375,567.7734 L1115.9375,569.7266 Q1115.9375,570.5469 1115.5859,570.8984 Q1115.2344,571.25 1114.6875,571.25 Q1114.1992,571.25 1113.8867,571.0352 Q1113.5742,570.8203 1113.4375,570.2539 Q1113.3789,569.8633 1113.1641,569.6484 Q1112.7734,569.2383 1112.0703,569.0039 Q1111.3672,568.75 1110.6641,568.75 Q1109.7852,568.75 1109.043,569.1016 Q1108.3203,569.4531 1107.7539,570.2344 Q1107.1875,571.0156 1107.1875,572.0898 L1107.1875,573.2422 Q1107.1875,574.5313 1108.2422,575.3906 Q1109.2969,576.25 1111.1719,576.25 Q1112.2852,576.25 1113.0664,575.9961 Q1113.5156,575.8594 1114.0234,575.4102 Q1114.3555,575.1563 1114.5313,575.0781 Q1114.707,575 1114.9219,575 Q1115.332,575 1115.625,575.332 Q1115.9375,575.6445 1115.9375,576.0938 Q1115.9375,576.5234 1115.5078,577.0313 Q1114.8828,577.7734 1113.8867,578.1836 Q1112.5781,578.75 1110.9766,578.75 Q1109.1016,578.75 1107.5977,578.0078 Q1106.3867,577.4219 1105.5273,576.1523 Q1104.6875,574.8828 1104.6875,573.3789 L1104.6875,572.0117 Q1104.6875,570.4492 1105.4297,569.082 Q1106.1914,567.7148 1107.5,566.9922 Q1108.8281,566.25 1110.3125,566.25 Q1111.2109,566.25 1111.9922,566.5625 Q1112.7734,566.875 1113.4375,567.5 Z " fill="#000000"/><text fill="#000000" font-family="sans-serif" font-size="15" lengthAdjust="spacing" textLength="81.25" x="1136.5625" y="578.0127">AuthFacade</text><line style="stroke:#A80036;stroke-width:1.875;" x1="1043.75" x2="1270" y1="591.875" y2="591.875"/><line style="stroke:#A80036;stroke-width:1.875;" x1="1043.75" x2="1270" y1="601.875" y2="601.875"/><text fill="#000000" font-family="sans-serif" font-size="13.75" lengthAdjust="spacing" textLength="117.5" x="1050" y="621.1487">+existsUser(E-mail)</text><text fill="#000000" font-family="sans-serif" font-size="13.75" lengthAdjust="spacing" textLength="213.75" x="1050" y="638.4436">+addUser(name, e-mail, password)</text><!--MD5=[37e3e2f0ae0706527ba4fc11900f6174]
class CreateUserController--><rect codeLine="30" fill="#FEFECE" filter="url(#f1of4atpspag91)" height="111.8848" id="CreateUserController" style="stroke:#A80036;stroke-width:1.875;" width="321.25" x="552.5" y="145"/><ellipse cx="634.0625" cy="165" fill="#ADD1B2" rx="13.75" ry="13.75" style="stroke:#A80036;stroke-width:1.25;"/><path d="M636.5625,160.625 Q636.8164,160 637.1094,159.6875 Q637.4023,159.375 637.7344,159.375 Q638.3203,159.375 638.6914,159.7266 Q639.0625,160.0781 639.0625,160.8984 L639.0625,162.8516 Q639.0625,163.6719 638.7109,164.0234 Q638.3594,164.375 637.8125,164.375 Q637.3242,164.375 637.0117,164.1602 Q636.6992,163.9453 636.5625,163.3789 Q636.5039,162.9883 636.2891,162.7734 Q635.8984,162.3633 635.1953,162.1289 Q634.4922,161.875 633.7891,161.875 Q632.9102,161.875 632.168,162.2266 Q631.4453,162.5781 630.8789,163.3594 Q630.3125,164.1406 630.3125,165.2148 L630.3125,166.3672 Q630.3125,167.6563 631.3672,168.5156 Q632.4219,169.375 634.2969,169.375 Q635.4102,169.375 636.1914,169.1211 Q636.6406,168.9844 637.1484,168.5352 Q637.4805,168.2813 637.6563,168.2031 Q637.832,168.125 638.0469,168.125 Q638.457,168.125 638.75,168.457 Q639.0625,168.7695 639.0625,169.2188 Q639.0625,169.6484 638.6328,170.1563 Q638.0078,170.8984 637.0117,171.3086 Q635.7031,171.875 634.1016,171.875 Q632.2266,171.875 630.7227,171.1328 Q629.5117,170.5469 628.6523,169.2773 Q627.8125,168.0078 627.8125,166.5039 L627.8125,165.1367 Q627.8125,163.5742 628.5547,162.207 Q629.3164,160.8398 630.625,160.1172 Q631.9531,159.375 633.4375,159.375 Q634.3359,159.375 635.1172,159.6875 Q635.8984,160 636.5625,160.625 Z " fill="#000000"/><text fill="#000000" font-family="sans-serif" font-size="15" lengthAdjust="spacing" textLength="147.5" x="659.6875" y="171.1377">CreateUserController</text><line style="stroke:#A80036;stroke-width:1.875;" x1="553.75" x2="872.5" y1="185" y2="185"/><line style="stroke:#A80036;stroke-width:1.875;" x1="553.75" x2="872.5" y1="195" y2="195"/><text fill="#000000" font-family="sans-serif" font-size="13.75" lengthAdjust="spacing" textLength="281.25" x="560" y="214.2737">+creatClient(name, citizenNumber, nhsNumber,</text><text fill="#000000" font-family="sans-serif" font-size="13.75" lengthAdjust="spacing" textLength="302.5" x="563.75" y="231.5686">taxNumber, birthDate, phoneNumber, role, gender)</text><text fill="#000000" font-family="sans-serif" font-size="13.75" lengthAdjust="spacing" textLength="80" x="560" y="248.8635">+saveClient()</text><!--MD5=[bc82a4b2e485d497247e75c3db94efe5]
class CreateUserUI--><rect codeLine="35" fill="#FEFECE" filter="url(#f1of4atpspag91)" height="60" id="CreateUserUI" style="stroke:#A80036;stroke-width:1.875;" width="135" x="645.625" y="8.75"/><ellipse cx="664.375" cy="28.75" fill="#ADD1B2" rx="13.75" ry="13.75" style="stroke:#A80036;stroke-width:1.25;"/><path d="M666.875,24.375 Q667.1289,23.75 667.4219,23.4375 Q667.7148,23.125 668.0469,23.125 Q668.6328,23.125 669.0039,23.4766 Q669.375,23.8281 669.375,24.6484 L669.375,26.6016 Q669.375,27.4219 669.0234,27.7734 Q668.6719,28.125 668.125,28.125 Q667.6367,28.125 667.3242,27.9102 Q667.0117,27.6953 666.875,27.1289 Q666.8164,26.7383 666.6016,26.5234 Q666.2109,26.1133 665.5078,25.8789 Q664.8047,25.625 664.1016,25.625 Q663.2227,25.625 662.4805,25.9766 Q661.7578,26.3281 661.1914,27.1094 Q660.625,27.8906 660.625,28.9648 L660.625,30.1172 Q660.625,31.4063 661.6797,32.2656 Q662.7344,33.125 664.6094,33.125 Q665.7227,33.125 666.5039,32.8711 Q666.9531,32.7344 667.4609,32.2852 Q667.793,32.0313 667.9688,31.9531 Q668.1445,31.875 668.3594,31.875 Q668.7695,31.875 669.0625,32.207 Q669.375,32.5195 669.375,32.9688 Q669.375,33.3984 668.9453,33.9063 Q668.3203,34.6484 667.3242,35.0586 Q666.0156,35.625 664.4141,35.625 Q662.5391,35.625 661.0352,34.8828 Q659.8242,34.2969 658.9648,33.0273 Q658.125,31.7578 658.125,30.2539 L658.125,28.8867 Q658.125,27.3242 658.8672,25.957 Q659.6289,24.5898 660.9375,23.8672 Q662.2656,23.125 663.75,23.125 Q664.6484,23.125 665.4297,23.4375 Q666.2109,23.75 666.875,24.375 Z " fill="#000000"/><text fill="#000000" font-family="sans-serif" font-size="15" lengthAdjust="spacing" textLength="95" x="681.875" y="34.8877">CreateUserUI</text><line style="stroke:#A80036;stroke-width:1.875;" x1="646.875" x2="779.375" y1="48.75" y2="48.75"/><line style="stroke:#A80036;stroke-width:1.875;" x1="646.875" x2="779.375" y1="58.75" y2="58.75"/><!--MD5=[02e4b9b7573f1156f41e60aa5b4e25a4]
class Company--><rect fill="#FEFECE" filter="url(#f1of4atpspag91)" height="60" id="Company" style="stroke:#A80036;stroke-width:1.875;" width="106.25" x="660" y="333.75"/><ellipse cx="678.75" cy="353.75" fill="#ADD1B2" rx="13.75" ry="13.75" style="stroke:#A80036;stroke-width:1.25;"/><path d="M681.25,349.375 Q681.5039,348.75 681.7969,348.4375 Q682.0898,348.125 682.4219,348.125 Q683.0078,348.125 683.3789,348.4766 Q683.75,348.8281 683.75,349.6484 L683.75,351.6016 Q683.75,352.4219 683.3984,352.7734 Q683.0469,353.125 682.5,353.125 Q682.0117,353.125 681.6992,352.9102 Q681.3867,352.6953 681.25,352.1289 Q681.1914,351.7383 680.9766,351.5234 Q680.5859,351.1133 679.8828,350.8789 Q679.1797,350.625 678.4766,350.625 Q677.5977,350.625 676.8555,350.9766 Q676.1328,351.3281 675.5664,352.1094 Q675,352.8906 675,353.9648 L675,355.1172 Q675,356.4063 676.0547,357.2656 Q677.1094,358.125 678.9844,358.125 Q680.0977,358.125 680.8789,357.8711 Q681.3281,357.7344 681.8359,357.2852 Q682.168,357.0313 682.3438,356.9531 Q682.5195,356.875 682.7344,356.875 Q683.1445,356.875 683.4375,357.207 Q683.75,357.5195 683.75,357.9688 Q683.75,358.3984 683.3203,358.9063 Q682.6953,359.6484 681.6992,360.0586 Q680.3906,360.625 678.7891,360.625 Q676.9141,360.625 675.4102,359.8828 Q674.1992,359.2969 673.3398,358.0273 Q672.5,356.7578 672.5,355.2539 L672.5,353.8867 Q672.5,352.3242 673.2422,350.957 Q674.0039,349.5898 675.3125,348.8672 Q676.6406,348.125 678.125,348.125 Q679.0234,348.125 679.8047,348.4375 Q680.5859,348.75 681.25,349.375 Z " fill="#000000"/><text fill="#000000" font-family="sans-serif" font-size="15" lengthAdjust="spacing" textLength="66.25" x="696.25" y="359.8877">Company</text><line style="stroke:#A80036;stroke-width:1.875;" x1="661.25" x2="765" y1="373.75" y2="373.75"/><line style="stroke:#A80036;stroke-width:1.875;" x1="661.25" x2="765" y1="383.75" y2="383.75"/><!--MD5=[0ea300ed1fb230434458c53f39072376]
link CreateUserUI to CreateUserController--><path codeLine="39" d="M713.125,68.975 C713.125,88.2375 713.125,114.275 713.125,138.0625 " fill="none" id="CreateUserUI-to-CreateUserController" style="stroke:#A80036;stroke-width:1.25;stroke-dasharray:7.0,7.0;"/><polygon fill="#A80036" points="713.125,144.7,718.125,133.45,713.125,138.45,708.125,133.45,713.125,144.7" style="stroke:#A80036;stroke-width:1.25;"/><!--MD5=[013bdbacc73081c81f7a32a8a328f16b]
link CreateUserController to Company--><path codeLine="40" d="M713.125,257.5625 C713.125,280.4625 713.125,306.4 713.125,326.75 " fill="none" id="CreateUserController-to-Company" style="stroke:#A80036;stroke-width:1.25;stroke-dasharray:7.0,7.0;"/><polygon fill="#A80036" points="713.125,333.425,718.125,322.175,713.125,327.175,708.125,322.175,713.125,333.425" style="stroke:#A80036;stroke-width:1.25;"/><!--MD5=[3bfee5d50fa8f9be0a765328c6042a6e]
link CreateUserController to clientStore--><path codeLine="41" d="M637.525,257.5125 C542.825,326.4125 380.1,444.8125 273.625,522.275 " fill="none" id="CreateUserController-to-clientStore" style="stroke:#A80036;stroke-width:1.25;stroke-dasharray:7.0,7.0;"/><polygon fill="#A80036" points="268.275,526.1625,280.319,523.612,273.3366,522.496,274.4526,515.5136,268.275,526.1625" style="stroke:#A80036;stroke-width:1.25;"/><!--MD5=[22efb15ad1ca5ba997795a4b91d49d1c]
link CreateUserController to AuthFacade--><path codeLine="42" d="M774.825,257.5125 C860.9875,334.325 1016.15,472.6625 1099.775,547.2125 " fill="none" id="CreateUserController-to-AuthFacade" style="stroke:#A80036;stroke-width:1.25;stroke-dasharray:7.0,7.0;"/><polygon fill="#A80036" points="1104.675,551.5875,1099.6124,540.3655,1100.0126,547.4253,1092.9528,547.8254,1104.675,551.5875" style="stroke:#A80036;stroke-width:1.25;"/><!--MD5=[a10a466a161ab77cf9b7f03e7bb7aa84]
link Company to clientStore--><path codeLine="43" d="M659.5625,386.325 C598.0125,410.9875 494.125,453.075 405.625,491.25 C381.9,501.4875 356.95,512.5 332.5,523.425 " fill="none" id="Company-to-clientStore" style="stroke:#A80036;stroke-width:1.25;stroke-dasharray:7.0,7.0;"/><polygon fill="#A80036" points="326.2875,526.2125,338.5985,526.1875,331.9937,523.6626,334.5186,517.0577,326.2875,526.2125" style="stroke:#A80036;stroke-width:1.25;"/><!--MD5=[717d4b03d3c4372f4eafe5e342a0a7dd]
link Company to AuthFacade--><path codeLine="44" d="M766.325,381.825 C829.3375,402.8625 936.35,442.1625 1020.625,491.25 C1048.0375,507.2125 1076,528.175 1099.4,547.3 " fill="none" id="Company-to-AuthFacade" style="stroke:#A80036;stroke-width:1.25;stroke-dasharray:7.0,7.0;"/><polygon fill="#A80036" points="1104.6375,551.6125,1099.1475,540.5933,1099.8186,547.6325,1092.7795,548.3035,1104.6375,551.6125" style="stroke:#A80036;stroke-width:1.25;"/><!--MD5=[6eee883fdf517d3604e8bd0f2058e9aa]
link Company to Client--><path codeLine="45" d="M713.125,394.05 C713.125,417.15 713.125,451.05 713.125,484.6125 " fill="none" id="Company-to-Client" style="stroke:#A80036;stroke-width:1.25;"/><polygon fill="#A80036" points="713.125,490.8625,718.125,479.6125,713.125,484.6125,708.125,479.6125,713.125,490.8625" style="stroke:#A80036;stroke-width:1.25;"/><polygon fill="#000000" points="719.375,448.9697,723.0487,437.6634,715.7013,437.6634,719.375,448.9697" style="stroke:#000000;stroke-width:1.25;"/><text fill="#000000" font-family="sans-serif" font-size="16.25" lengthAdjust="spacing" textLength="46.25" x="730.625" y="449.3689">kowns</text><text fill="#000000" font-family="sans-serif" font-size="16.25" lengthAdjust="spacing" textLength="8.75" x="703.3086" y="420.7956">1</text><text fill="#000000" font-family="sans-serif" font-size="16.25" lengthAdjust="spacing" textLength="6.25" x="706.6064" y="477.5912">*</text><!--MD5=[9efb28ba923a549edd8c4617af000686]
link clientStore to Client--><path codeLine="46" d="M330.3125,599.375 C358.9625,599.375 389.6,599.375 420.6,599.375 " fill="none" id="clientStore-to-Client" style="stroke:#A80036;stroke-width:1.25;"/><polygon fill="#A80036" points="427.2125,599.375,415.9625,594.375,420.9625,599.375,415.9625,604.375,427.2125,599.375" style="stroke:#A80036;stroke-width:1.25;"/><polygon fill="#000000" points="364.375,584.5947,353.0686,580.9211,353.0686,588.2684,364.375,584.5947" style="stroke:#000000;stroke-width:1.25;"/><text fill="#000000" font-family="sans-serif" font-size="16.25" lengthAdjust="spacing" textLength="35" x="369.375" y="591.2439">uses</text><text fill="#000000" font-family="sans-serif" font-size="16.25" lengthAdjust="spacing" textLength="8.75" x="339.8696" y="595.672">1</text><text fill="#000000" font-family="sans-serif" font-size="16.25" lengthAdjust="spacing" textLength="8.75" x="408.9374" y="595.9328">1</text><!--MD5=[dc10b58e11edcfc3543cc0654bea3a19]
@startuml
skinparam classAttributeIconSize 0




class Client {
  -long citizenNumber
  -long phoneNumber
  -int nhsNumber
  -int taxNumber
  -Date birthDate
  -String role
  -String gender
  -String name
  +Client(name, citizenNumber, nhsNumber, taxNumber, birthDate, phoneNumber, role, gender)
}

class clientStore {
  -List clientList
  +Client(name, citizenNumber, nhsNumber,\n taxNumber, birthDate, phoneNumber, role, gender)
  +saveClient(Client)
  +validateClient(Client)
}

class AuthFacade {
  +existsUser(E-mail)
  +addUser(name, e-mail, password)
}

class CreateUserController {
  +creatClient(name, citizenNumber, nhsNumber,\n taxNumber, birthDate, phoneNumber, role, gender)
  +saveClient()
}

class CreateUserUI {

}

CreateUserUI ..> CreateUserController
CreateUserController ..> Company
CreateUserController ..> clientStore
CreateUserController ..> AuthFacade
Company ..> clientStore
Company ..> AuthFacade
Company "1" - -> "*" Client : kowns >
clientStore "1" -> "1" Client : uses >


@enduml

PlantUML version 1.2021.5(Sun Apr 25 12:20:28 BST 2021)
(GPL source distribution)
Java Runtime: OpenJDK Runtime Environment
JVM: Dynamic Code Evolution 64-Bit Server VM
Default Encoding: Cp1252
Language: pt
Country: PT
--></g></svg>