<?xml version="1.0" encoding="UTF-8" standalone="no"?><svg xmlns="http://www.w3.org/2000/svg" xmlns:xlink="http://www.w3.org/1999/xlink" contentScriptType="application/ecmascript" contentStyleType="text/css" height="691px" preserveAspectRatio="none" style="width:474px;height:691px;background:#FFFFFF;" version="1.1" viewBox="0 0 474 691" width="474px" zoomAndPan="magnify"><defs><filter height="300%" id="f1tzw0ts3vg6ml" width="300%" x="-1" y="-1"><feGaussianBlur result="blurOut" stdDeviation="2.0"/><feColorMatrix in="blurOut" result="blurOut2" type="matrix" values="0 0 0 0 0 0 0 0 0 0 0 0 0 0 0 0 0 0 .4 0"/><feOffset dx="4.0" dy="4.0" in="blurOut2" result="blurOut3"/><feBlend in="SourceGraphic" in2="blurOut3" mode="normal"/></filter></defs><g><!--MD5=[02e4b9b7573f1156f41e60aa5b4e25a4]
class Company--><rect codeLine="3" fill="#FEFECE" filter="url(#f1tzw0ts3vg6ml)" height="75.6719" id="Company" style="stroke:#A80036;stroke-width:1.5;" width="186" x="17" y="281"/><ellipse cx="79.25" cy="297" fill="#ADD1B2" rx="11" ry="11" style="stroke:#A80036;stroke-width:1.0;"/><path d="M81.25,293.5 Q81.4531,293 81.6875,292.75 Q81.9219,292.5 82.1875,292.5 Q82.6563,292.5 82.9531,292.7813 Q83.25,293.0625 83.25,293.7188 L83.25,295.2813 Q83.25,295.9375 82.9688,296.2188 Q82.6875,296.5 82.25,296.5 Q81.8594,296.5 81.6094,296.3281 Q81.3594,296.1563 81.25,295.7031 Q81.2031,295.3906 81.0313,295.2188 Q80.7188,294.8906 80.1563,294.7031 Q79.5938,294.5 79.0313,294.5 Q78.3281,294.5 77.7344,294.7813 Q77.1563,295.0625 76.7031,295.6875 Q76.25,296.3125 76.25,297.1719 L76.25,298.0938 Q76.25,299.125 77.0938,299.8125 Q77.9375,300.5 79.4375,300.5 Q80.3281,300.5 80.9531,300.2969 Q81.3125,300.1875 81.7188,299.8281 Q81.9844,299.625 82.125,299.5625 Q82.2656,299.5 82.4375,299.5 Q82.7656,299.5 83,299.7656 Q83.25,300.0156 83.25,300.375 Q83.25,300.7188 82.9063,301.125 Q82.4063,301.7188 81.6094,302.0469 Q80.5625,302.5 79.2813,302.5 Q77.7813,302.5 76.5781,301.9063 Q75.6094,301.4375 74.9219,300.4219 Q74.25,299.4063 74.25,298.2031 L74.25,297.1094 Q74.25,295.8594 74.8438,294.7656 Q75.4531,293.6719 76.5,293.0938 Q77.5625,292.5 78.75,292.5 Q79.4688,292.5 80.0938,292.75 Q80.7188,293 81.25,293.5 Z " fill="#000000"/><text fill="#000000" font-family="sans-serif" font-size="12" lengthAdjust="spacing" textLength="53" x="99.75" y="301.9102">Company</text><line style="stroke:#A80036;stroke-width:1.5;" x1="18" x2="202" y1="313" y2="313"/><line style="stroke:#A80036;stroke-width:1.5;" x1="18" x2="202" y1="321" y2="321"/><ellipse cx="28" cy="332" fill="#84BE84" rx="3" ry="3" style="stroke:#038048;stroke-width:1.0;"/><text fill="#000000" font-family="sans-serif" font-size="11" lengthAdjust="spacing" textLength="145" x="37" y="336.4189">store=getAvailableTestStore()</text><ellipse cx="28" cy="345.8359" fill="#84BE84" rx="3" ry="3" style="stroke:#038048;stroke-width:1.0;"/><text fill="#000000" font-family="sans-serif" font-size="11" lengthAdjust="spacing" textLength="160" x="37" y="350.2549">store=getAvailableTestStore(dto)</text><!--MD5=[efea62b5eb2a2df90a40ecf5488784e7]
class LabCoordinatorController--><rect codeLine="10" fill="#FEFECE" filter="url(#f1tzw0ts3vg6ml)" height="89.5078" id="LabCoordinatorController" style="stroke:#A80036;stroke-width:1.5;" width="172" x="162" y="130"/><ellipse cx="177" cy="146" fill="#ADD1B2" rx="11" ry="11" style="stroke:#A80036;stroke-width:1.0;"/><path d="M179,142.5 Q179.2031,142 179.4375,141.75 Q179.6719,141.5 179.9375,141.5 Q180.4063,141.5 180.7031,141.7813 Q181,142.0625 181,142.7188 L181,144.2813 Q181,144.9375 180.7188,145.2188 Q180.4375,145.5 180,145.5 Q179.6094,145.5 179.3594,145.3281 Q179.1094,145.1563 179,144.7031 Q178.9531,144.3906 178.7813,144.2188 Q178.4688,143.8906 177.9063,143.7031 Q177.3438,143.5 176.7813,143.5 Q176.0781,143.5 175.4844,143.7813 Q174.9063,144.0625 174.4531,144.6875 Q174,145.3125 174,146.1719 L174,147.0938 Q174,148.125 174.8438,148.8125 Q175.6875,149.5 177.1875,149.5 Q178.0781,149.5 178.7031,149.2969 Q179.0625,149.1875 179.4688,148.8281 Q179.7344,148.625 179.875,148.5625 Q180.0156,148.5 180.1875,148.5 Q180.5156,148.5 180.75,148.7656 Q181,149.0156 181,149.375 Q181,149.7188 180.6563,150.125 Q180.1563,150.7188 179.3594,151.0469 Q178.3125,151.5 177.0313,151.5 Q175.5313,151.5 174.3281,150.9063 Q173.3594,150.4375 172.6719,149.4219 Q172,148.4063 172,147.2031 L172,146.1094 Q172,144.8594 172.5938,143.7656 Q173.2031,142.6719 174.25,142.0938 Q175.3125,141.5 176.5,141.5 Q177.2188,141.5 177.8438,141.75 Q178.4688,142 179,142.5 Z " fill="#000000"/><text fill="#000000" font-family="sans-serif" font-size="12" lengthAdjust="spacing" textLength="140" x="191" y="150.9102">LabCoordinatorController</text><line style="stroke:#A80036;stroke-width:1.5;" x1="163" x2="333" y1="162" y2="162"/><line style="stroke:#A80036;stroke-width:1.5;" x1="163" x2="333" y1="170" y2="170"/><ellipse cx="173" cy="181" fill="#84BE84" rx="3" ry="3" style="stroke:#038048;stroke-width:1.0;"/><text fill="#000000" font-family="sans-serif" font-size="11" lengthAdjust="spacing" textLength="61" x="182" y="185.4189">getTestList()</text><ellipse cx="173" cy="194.8359" fill="#84BE84" rx="3" ry="3" style="stroke:#038048;stroke-width:1.0;"/><text fill="#000000" font-family="sans-serif" font-size="11" lengthAdjust="spacing" textLength="124" x="182" y="199.2549">validationCoordinator(dto)</text><ellipse cx="173" cy="208.6719" fill="#84BE84" rx="3" ry="3" style="stroke:#038048;stroke-width:1.0;"/><text fill="#000000" font-family="sans-serif" font-size="11" lengthAdjust="spacing" textLength="104" x="182" y="213.0908">saveValidatedTests()</text><!--MD5=[feee1ee62a359c5bbdaf935e31b5fe63]
class AvailableTestStore--><rect codeLine="16" fill="#FEFECE" filter="url(#f1tzw0ts3vg6ml)" height="103.3438" id="AvailableTestStore" style="stroke:#A80036;stroke-width:1.5;" width="292" x="7" y="435"/><ellipse cx="97.75" cy="451" fill="#ADD1B2" rx="11" ry="11" style="stroke:#A80036;stroke-width:1.0;"/><path d="M99.75,447.5 Q99.9531,447 100.1875,446.75 Q100.4219,446.5 100.6875,446.5 Q101.1563,446.5 101.4531,446.7813 Q101.75,447.0625 101.75,447.7188 L101.75,449.2813 Q101.75,449.9375 101.4688,450.2188 Q101.1875,450.5 100.75,450.5 Q100.3594,450.5 100.1094,450.3281 Q99.8594,450.1563 99.75,449.7031 Q99.7031,449.3906 99.5313,449.2188 Q99.2188,448.8906 98.6563,448.7031 Q98.0938,448.5 97.5313,448.5 Q96.8281,448.5 96.2344,448.7813 Q95.6563,449.0625 95.2031,449.6875 Q94.75,450.3125 94.75,451.1719 L94.75,452.0938 Q94.75,453.125 95.5938,453.8125 Q96.4375,454.5 97.9375,454.5 Q98.8281,454.5 99.4531,454.2969 Q99.8125,454.1875 100.2188,453.8281 Q100.4844,453.625 100.625,453.5625 Q100.7656,453.5 100.9375,453.5 Q101.2656,453.5 101.5,453.7656 Q101.75,454.0156 101.75,454.375 Q101.75,454.7188 101.4063,455.125 Q100.9063,455.7188 100.1094,456.0469 Q99.0625,456.5 97.7813,456.5 Q96.2813,456.5 95.0781,455.9063 Q94.1094,455.4375 93.4219,454.4219 Q92.75,453.4063 92.75,452.2031 L92.75,451.1094 Q92.75,449.8594 93.3438,448.7656 Q93.9531,447.6719 95,447.0938 Q96.0625,446.5 97.25,446.5 Q97.9688,446.5 98.5938,446.75 Q99.2188,447 99.75,447.5 Z " fill="#000000"/><text fill="#000000" font-family="sans-serif" font-size="12" lengthAdjust="spacing" textLength="102" x="118.25" y="455.9102">AvailableTestStore</text><line style="stroke:#A80036;stroke-width:1.5;" x1="8" x2="298" y1="467" y2="467"/><line style="stroke:#A80036;stroke-width:1.5;" x1="8" x2="298" y1="475" y2="475"/><ellipse cx="18" cy="486" fill="#84BE84" rx="3" ry="3" style="stroke:#038048;stroke-width:1.0;"/><text fill="#000000" font-family="sans-serif" font-size="11" lengthAdjust="spacing" textLength="157" x="27" y="490.4189">createValidationCoordinator(dto)</text><ellipse cx="18" cy="499.8359" fill="#84BE84" rx="3" ry="3" style="stroke:#038048;stroke-width:1.0;"/><text fill="#000000" font-family="sans-serif" font-size="11" lengthAdjust="spacing" textLength="266" x="27" y="504.2549">validateValidationCoordinator(validationCoordinator val)</text><ellipse cx="18" cy="513.6719" fill="#84BE84" rx="3" ry="3" style="stroke:#038048;stroke-width:1.0;"/><text fill="#000000" font-family="sans-serif" font-size="11" lengthAdjust="spacing" textLength="247" x="27" y="518.0908">addValidationCoordinator(validationCoordinator val)</text><ellipse cx="18" cy="527.5078" fill="#84BE84" rx="3" ry="3" style="stroke:#038048;stroke-width:1.0;"/><text fill="#000000" font-family="sans-serif" font-size="11" lengthAdjust="spacing" textLength="253" x="27" y="531.9268">saveValidationCoordinator(validationCoordinator val)</text><!--MD5=[1e9c8bda7e28782d8e1b57aa5ddb7389]
class validationCoordinatorDto--><rect codeLine="23" fill="#FEFECE" filter="url(#f1tzw0ts3vg6ml)" height="61.8359" id="validationCoordinatorDto" style="stroke:#A80036;stroke-width:1.5;" width="168" x="69" y="616"/><ellipse cx="84" cy="632" fill="#ADD1B2" rx="11" ry="11" style="stroke:#A80036;stroke-width:1.0;"/><path d="M86,628.5 Q86.2031,628 86.4375,627.75 Q86.6719,627.5 86.9375,627.5 Q87.4063,627.5 87.7031,627.7813 Q88,628.0625 88,628.7188 L88,630.2813 Q88,630.9375 87.7188,631.2188 Q87.4375,631.5 87,631.5 Q86.6094,631.5 86.3594,631.3281 Q86.1094,631.1563 86,630.7031 Q85.9531,630.3906 85.7813,630.2188 Q85.4688,629.8906 84.9063,629.7031 Q84.3438,629.5 83.7813,629.5 Q83.0781,629.5 82.4844,629.7813 Q81.9063,630.0625 81.4531,630.6875 Q81,631.3125 81,632.1719 L81,633.0938 Q81,634.125 81.8438,634.8125 Q82.6875,635.5 84.1875,635.5 Q85.0781,635.5 85.7031,635.2969 Q86.0625,635.1875 86.4688,634.8281 Q86.7344,634.625 86.875,634.5625 Q87.0156,634.5 87.1875,634.5 Q87.5156,634.5 87.75,634.7656 Q88,635.0156 88,635.375 Q88,635.7188 87.6563,636.125 Q87.1563,636.7188 86.3594,637.0469 Q85.3125,637.5 84.0313,637.5 Q82.5313,637.5 81.3281,636.9063 Q80.3594,636.4375 79.6719,635.4219 Q79,634.4063 79,633.2031 L79,632.1094 Q79,630.8594 79.5938,629.7656 Q80.2031,628.6719 81.25,628.0938 Q82.3125,627.5 83.5,627.5 Q84.2188,627.5 84.8438,627.75 Q85.4688,628 86,628.5 Z " fill="#000000"/><text fill="#000000" font-family="sans-serif" font-size="12" lengthAdjust="spacing" textLength="136" x="98" y="636.9102">validationCoordinatorDto</text><line style="stroke:#A80036;stroke-width:1.5;" x1="70" x2="236" y1="648" y2="648"/><line style="stroke:#A80036;stroke-width:1.5;" x1="70" x2="236" y1="656" y2="656"/><ellipse cx="80" cy="667" fill="#84BE84" rx="3" ry="3" style="stroke:#038048;stroke-width:1.0;"/><text fill="#000000" font-family="sans-serif" font-size="11" lengthAdjust="spacing" textLength="44" x="89" y="671.4189">getTest()</text><!--MD5=[345d6868a3a22f8211aab94d20727fbe]
class ListofTests--><rect codeLine="27" fill="#FEFECE" filter="url(#f1tzw0ts3vg6ml)" height="61.8359" id="ListofTests" style="stroke:#A80036;stroke-width:1.5;" width="100" x="360" y="7"/><ellipse cx="379.5" cy="23" fill="#B4A7E5" rx="11" ry="11" style="stroke:#A80036;stroke-width:1.0;"/><path d="M380.5,20 L380.5,26 L382.5,26 L382.9844,26 L383.5,26.625 L383.5,27 L383.5,27.375 L382.9844,28 L382.5,28 L376.5,28 L376.0156,28 L375.5,27.375 L375.5,27 L375.5,26.625 L376.0156,26 L376.5,26 L378.5,26 L378.5,20 L376.5,20 L376.0156,20 L375.5,19.375 L375.5,19 L375.5,18.625 L376.0156,18 L376.5,18 L382.5,18 L382.9844,18 L383.5,18.625 L383.5,19 L383.5,19.375 L382.9844,20 L382.5,20 L380.5,20 Z " fill="#000000"/><text fill="#000000" font-family="sans-serif" font-size="12" font-style="italic" lengthAdjust="spacing" textLength="58" x="394.5" y="27.9102">ListofTests</text><line style="stroke:#A80036;stroke-width:1.5;" x1="361" x2="459" y1="39" y2="39"/><line style="stroke:#A80036;stroke-width:1.5;" x1="361" x2="459" y1="47" y2="47"/><ellipse cx="371" cy="58" fill="#84BE84" rx="3" ry="3" style="stroke:#038048;stroke-width:1.0;"/><text fill="#000000" font-family="sans-serif" font-size="11" lengthAdjust="spacing" textLength="74" x="380" y="62.4189">getTestTypes()</text><!--MD5=[d3dac09018c330f71d984a74bfbcc848]
class validationCoordinator--><rect codeLine="31" fill="#FEFECE" filter="url(#f1tzw0ts3vg6ml)" height="61.8359" id="validationCoordinator" style="stroke:#A80036;stroke-width:1.5;" width="149" x="279.5" y="616"/><ellipse cx="294.5" cy="632" fill="#ADD1B2" rx="11" ry="11" style="stroke:#A80036;stroke-width:1.0;"/><path d="M296.5,628.5 Q296.7031,628 296.9375,627.75 Q297.1719,627.5 297.4375,627.5 Q297.9063,627.5 298.2031,627.7813 Q298.5,628.0625 298.5,628.7188 L298.5,630.2813 Q298.5,630.9375 298.2188,631.2188 Q297.9375,631.5 297.5,631.5 Q297.1094,631.5 296.8594,631.3281 Q296.6094,631.1563 296.5,630.7031 Q296.4531,630.3906 296.2813,630.2188 Q295.9688,629.8906 295.4063,629.7031 Q294.8438,629.5 294.2813,629.5 Q293.5781,629.5 292.9844,629.7813 Q292.4063,630.0625 291.9531,630.6875 Q291.5,631.3125 291.5,632.1719 L291.5,633.0938 Q291.5,634.125 292.3438,634.8125 Q293.1875,635.5 294.6875,635.5 Q295.5781,635.5 296.2031,635.2969 Q296.5625,635.1875 296.9688,634.8281 Q297.2344,634.625 297.375,634.5625 Q297.5156,634.5 297.6875,634.5 Q298.0156,634.5 298.25,634.7656 Q298.5,635.0156 298.5,635.375 Q298.5,635.7188 298.1563,636.125 Q297.6563,636.7188 296.8594,637.0469 Q295.8125,637.5 294.5313,637.5 Q293.0313,637.5 291.8281,636.9063 Q290.8594,636.4375 290.1719,635.4219 Q289.5,634.4063 289.5,633.2031 L289.5,632.1094 Q289.5,630.8594 290.0938,629.7656 Q290.7031,628.6719 291.75,628.0938 Q292.8125,627.5 294,627.5 Q294.7188,627.5 295.3438,627.75 Q295.9688,628 296.5,628.5 Z " fill="#000000"/><text fill="#000000" font-family="sans-serif" font-size="12" lengthAdjust="spacing" textLength="117" x="308.5" y="636.9102">validationCoordinator</text><line style="stroke:#A80036;stroke-width:1.5;" x1="280.5" x2="427.5" y1="648" y2="648"/><line style="stroke:#A80036;stroke-width:1.5;" x1="280.5" x2="427.5" y1="656" y2="656"/><ellipse cx="290.5" cy="667" fill="#84BE84" rx="3" ry="3" style="stroke:#038048;stroke-width:1.0;"/><text fill="#000000" font-family="sans-serif" font-size="11" lengthAdjust="spacing" textLength="54" x="299.5" y="671.4189">create(dto)</text><!--MD5=[77b5c62d97a261a0ea7a3f65d98d13b8]
class yau--><rect fill="#FEFECE" filter="url(#f1tzw0ts3vg6ml)" height="48" id="yau" style="stroke:#A80036;stroke-width:1.5;" width="51" x="281.5" y="295"/><ellipse cx="296.5" cy="311" fill="#ADD1B2" rx="11" ry="11" style="stroke:#A80036;stroke-width:1.0;"/><path d="M298.5,307.5 Q298.7031,307 298.9375,306.75 Q299.1719,306.5 299.4375,306.5 Q299.9063,306.5 300.2031,306.7813 Q300.5,307.0625 300.5,307.7188 L300.5,309.2813 Q300.5,309.9375 300.2188,310.2188 Q299.9375,310.5 299.5,310.5 Q299.1094,310.5 298.8594,310.3281 Q298.6094,310.1563 298.5,309.7031 Q298.4531,309.3906 298.2813,309.2188 Q297.9688,308.8906 297.4063,308.7031 Q296.8438,308.5 296.2813,308.5 Q295.5781,308.5 294.9844,308.7813 Q294.4063,309.0625 293.9531,309.6875 Q293.5,310.3125 293.5,311.1719 L293.5,312.0938 Q293.5,313.125 294.3438,313.8125 Q295.1875,314.5 296.6875,314.5 Q297.5781,314.5 298.2031,314.2969 Q298.5625,314.1875 298.9688,313.8281 Q299.2344,313.625 299.375,313.5625 Q299.5156,313.5 299.6875,313.5 Q300.0156,313.5 300.25,313.7656 Q300.5,314.0156 300.5,314.375 Q300.5,314.7188 300.1563,315.125 Q299.6563,315.7188 298.8594,316.0469 Q297.8125,316.5 296.5313,316.5 Q295.0313,316.5 293.8281,315.9063 Q292.8594,315.4375 292.1719,314.4219 Q291.5,313.4063 291.5,312.2031 L291.5,311.1094 Q291.5,309.8594 292.0938,308.7656 Q292.7031,307.6719 293.75,307.0938 Q294.8125,306.5 296,306.5 Q296.7188,306.5 297.3438,306.75 Q297.9688,307 298.5,307.5 Z " fill="#000000"/><text fill="#000000" font-family="sans-serif" font-size="12" lengthAdjust="spacing" textLength="19" x="310.5" y="315.9102">yau</text><line style="stroke:#A80036;stroke-width:1.5;" x1="282.5" x2="331.5" y1="327" y2="327"/><line style="stroke:#A80036;stroke-width:1.5;" x1="282.5" x2="331.5" y1="335" y2="335"/><!--MD5=[2d15597d118085ac7926503c62696487]
class ValidationLabCoordUI--><rect fill="#FEFECE" filter="url(#f1tzw0ts3vg6ml)" height="48" id="ValidationLabCoordUI" style="stroke:#A80036;stroke-width:1.5;" width="153" x="171.5" y="14"/><ellipse cx="186.5" cy="30" fill="#ADD1B2" rx="11" ry="11" style="stroke:#A80036;stroke-width:1.0;"/><path d="M188.5,26.5 Q188.7031,26 188.9375,25.75 Q189.1719,25.5 189.4375,25.5 Q189.9063,25.5 190.2031,25.7813 Q190.5,26.0625 190.5,26.7188 L190.5,28.2813 Q190.5,28.9375 190.2188,29.2188 Q189.9375,29.5 189.5,29.5 Q189.1094,29.5 188.8594,29.3281 Q188.6094,29.1563 188.5,28.7031 Q188.4531,28.3906 188.2813,28.2188 Q187.9688,27.8906 187.4063,27.7031 Q186.8438,27.5 186.2813,27.5 Q185.5781,27.5 184.9844,27.7813 Q184.4063,28.0625 183.9531,28.6875 Q183.5,29.3125 183.5,30.1719 L183.5,31.0938 Q183.5,32.125 184.3438,32.8125 Q185.1875,33.5 186.6875,33.5 Q187.5781,33.5 188.2031,33.2969 Q188.5625,33.1875 188.9688,32.8281 Q189.2344,32.625 189.375,32.5625 Q189.5156,32.5 189.6875,32.5 Q190.0156,32.5 190.25,32.7656 Q190.5,33.0156 190.5,33.375 Q190.5,33.7188 190.1563,34.125 Q189.6563,34.7188 188.8594,35.0469 Q187.8125,35.5 186.5313,35.5 Q185.0313,35.5 183.8281,34.9063 Q182.8594,34.4375 182.1719,33.4219 Q181.5,32.4063 181.5,31.2031 L181.5,30.1094 Q181.5,28.8594 182.0938,27.7656 Q182.7031,26.6719 183.75,26.0938 Q184.8125,25.5 186,25.5 Q186.7188,25.5 187.3438,25.75 Q187.9688,26 188.5,26.5 Z " fill="#000000"/><text fill="#000000" font-family="sans-serif" font-size="12" lengthAdjust="spacing" textLength="121" x="200.5" y="34.9102">ValidationLabCoordUI</text><line style="stroke:#A80036;stroke-width:1.5;" x1="172.5" x2="323.5" y1="46" y2="46"/><line style="stroke:#A80036;stroke-width:1.5;" x1="172.5" x2="323.5" y1="54" y2="54"/><!--MD5=[7436737fc2ba4c7fbc935d04e54c36d4]
link Company to AvailableTestStore--><path codeLine="37" d="M119.65,357.14 C125.22,378.58 132.34,405.97 138.56,429.93 " fill="none" id="Company-to-AvailableTestStore" style="stroke:#A80036;stroke-width:1.0;stroke-dasharray:7.0,7.0;"/><polygon fill="#A80036" points="139.88,434.99,141.4834,425.2725,138.6202,430.1513,133.7414,427.2882,139.88,434.99" style="stroke:#A80036;stroke-width:1.0;"/><text fill="#000000" font-family="sans-serif" font-size="13" lengthAdjust="spacing" textLength="27" x="133" y="401.4951">calls</text><!--MD5=[97bd57676a91d173988f730806306fbe]
link AvailableTestStore to validationCoordinator--><path codeLine="38" d="M209.1,538.1 C227.23,553.87 247.65,571.04 267,586 C278.74,595.07 291.74,604.4 304.04,612.92 " fill="none" id="AvailableTestStore-to-validationCoordinator" style="stroke:#A80036;stroke-width:1.0;stroke-dasharray:7.0,7.0;"/><polygon fill="#A80036" points="308.18,615.77,303.0162,607.3834,304.0552,612.944,298.4946,613.9831,308.18,615.77" style="stroke:#A80036;stroke-width:1.0;"/><text fill="#000000" font-family="sans-serif" font-size="13" lengthAdjust="spacing" textLength="91" x="268" y="582.4951">makes possible</text><!--MD5=[94a3cb39a54c1dd3ac65def0cabc513a]
link Company to yau--><path codeLine="39" d="M203.02,319 C229.36,319 256.22,319 276.04,319 " fill="none" id="Company-to-yau" style="stroke:#A80036;stroke-width:1.0;"/><polygon fill="#A80036" points="281.18,319,272.18,315,276.18,319,272.18,323,281.18,319" style="stroke:#A80036;stroke-width:1.0;"/><text fill="#000000" font-family="sans-serif" font-size="13" lengthAdjust="spacing" textLength="42" x="221.25" y="312.4951">selects</text><!--MD5=[75722adecc56f232ad77f76faf268404]
link ValidationLabCoordUI to LabCoordinatorController--><path codeLine="40" d="M248,62.21 C248,79.38 248,103.39 248,124.76 " fill="none" id="ValidationLabCoordUI-to-LabCoordinatorController" style="stroke:#A80036;stroke-width:1.0;stroke-dasharray:7.0,7.0;"/><polygon fill="#A80036" points="248,129.85,252,120.85,248,124.85,244,120.85,248,129.85" style="stroke:#A80036;stroke-width:1.0;"/><!--MD5=[848320dac481d2c3618e727349f0db91]
link LabCoordinatorController to Company--><path codeLine="41" d="M205.09,220.15 C187.59,238.17 167.45,258.88 150.23,276.61 " fill="none" id="LabCoordinatorController-to-Company" style="stroke:#A80036;stroke-width:1.0;stroke-dasharray:7.0,7.0;"/><polygon fill="#A80036" points="146.37,280.57,155.5115,276.9048,149.8552,276.9848,149.7752,271.3285,146.37,280.57" style="stroke:#A80036;stroke-width:1.0;"/><!--MD5=[a1f73df8d8a4497b1604f418386ad5cb]
link LabCoordinatorController to validationCoordinator--><path codeLine="42" d="M304.99,220.26 C322.63,237.2 340.03,258.04 350,281 C398.6,392.88 376.38,542.87 362.36,610.41 " fill="none" id="LabCoordinatorController-to-validationCoordinator" style="stroke:#A80036;stroke-width:1.0;stroke-dasharray:7.0,7.0;"/><polygon fill="#A80036" points="361.28,615.51,367.0436,607.5237,362.3072,610.6166,359.2142,605.8802,361.28,615.51" style="stroke:#A80036;stroke-width:1.0;"/><!--MD5=[e83ee476d280ddb798d944d5b5d5d1cc]
link AvailableTestStore to validationCoordinatorDto--><path codeLine="43" d="M153,538.09 C153,561.74 153,589.33 153,610.69 " fill="none" id="AvailableTestStore-to-validationCoordinatorDto" style="stroke:#A80036;stroke-width:1.0;stroke-dasharray:7.0,7.0;"/><polygon fill="#A80036" points="153,615.7,157,606.7,153,610.7,149,606.7,153,615.7" style="stroke:#A80036;stroke-width:1.0;"/><text fill="#000000" font-family="sans-serif" font-size="13" lengthAdjust="spacing" textLength="50" x="154" y="582.4951">requests</text><!--MD5=[9db03aff6dace459c0b6d71836ccaf17]
@startuml
'https://plantuml.com/class-diagram

class Company{
+ store=getAvailableTestStore()
+ store=getAvailableTestStore(dto)
}



class LabCoordinatorController{
+getTestList()
+validationCoordinator(dto)
+saveValidatedTests()
}

class AvailableTestStore{
+createValidationCoordinator(dto)
+validateValidationCoordinator(validationCoordinator val)
+addValidationCoordinator(validationCoordinator val)
+saveValidationCoordinator(validationCoordinator val)
}

class validationCoordinatorDto{
+getTest()
}

interface ListofTests{
+getTestTypes()
}

class validationCoordinator{
+create(dto)
}



Company ..> AvailableTestStore : calls
AvailableTestStore ..> validationCoordinator: makes possible
Company -> yau: selects
ValidationLabCoordUI ..> LabCoordinatorController
LabCoordinatorController ..> Company
LabCoordinatorController ..>validationCoordinator
AvailableTestStore ..> validationCoordinatorDto:requests
@enduml

@startuml

class Company{
+ store=getAvailableTestStore()
+ store=getAvailableTestStore(dto)
}



class LabCoordinatorController{
+getTestList()
+validationCoordinator(dto)
+saveValidatedTests()
}

class AvailableTestStore{
+createValidationCoordinator(dto)
+validateValidationCoordinator(validationCoordinator val)
+addValidationCoordinator(validationCoordinator val)
+saveValidationCoordinator(validationCoordinator val)
}

class validationCoordinatorDto{
+getTest()
}

interface ListofTests{
+getTestTypes()
}

class validationCoordinator{
+create(dto)
}



Company ..> AvailableTestStore : calls
AvailableTestStore ..> validationCoordinator: makes possible
Company -> yau: selects
ValidationLabCoordUI ..> LabCoordinatorController
LabCoordinatorController ..> Company
LabCoordinatorController ..>validationCoordinator
AvailableTestStore ..> validationCoordinatorDto:requests
@enduml

PlantUML version 1.2021.7(Sun May 23 13:40:07 BST 2021)
(GPL source distribution)
Java Runtime: OpenJDK Runtime Environment
JVM: Dynamic Code Evolution 64-Bit Server VM
Default Encoding: Cp1252
Language: pt
Country: PT
--></g></svg>