<?xml version="1.0" encoding="UTF-8" standalone="no"?><svg xmlns="http://www.w3.org/2000/svg" xmlns:xlink="http://www.w3.org/1999/xlink" contentScriptType="application/ecmascript" contentStyleType="text/css" height="645px" preserveAspectRatio="none" style="width:940px;height:645px;" version="1.1" viewBox="0 0 940 645" width="940px" zoomAndPan="magnify"><defs><filter height="300%" id="f11j0yle025yxt" width="300%" x="-1" y="-1"><feGaussianBlur result="blurOut" stdDeviation="2.0"/><feColorMatrix in="blurOut" result="blurOut2" type="matrix" values="0 0 0 0 0 0 0 0 0 0 0 0 0 0 0 0 0 0 .4 0"/><feOffset dx="4.0" dy="4.0" in="blurOut2" result="blurOut3"/><feBlend in="SourceGraphic" in2="blurOut3" mode="normal"/></filter></defs><g><rect fill="#FFFFFF" filter="url(#f11j0yle025yxt)" height="451.2188" style="stroke:#A80036;stroke-width:1.0;" width="10" x="56" y="99.6094"/><rect fill="#FFFFFF" filter="url(#f11j0yle025yxt)" height="30.3516" style="stroke:#A80036;stroke-width:1.0;" width="10" x="234" y="121.9609"/><rect fill="#FFFFFF" filter="url(#f11j0yle025yxt)" height="30.3516" style="stroke:#A80036;stroke-width:1.0;" width="10" x="234" y="182.6641"/><rect fill="#FFFFFF" filter="url(#f11j0yle025yxt)" height="60.3516" style="stroke:#A80036;stroke-width:1.0;" width="10" x="234" y="334.0703"/><rect fill="#FFFFFF" filter="url(#f11j0yle025yxt)" height="35.3516" style="stroke:#A80036;stroke-width:1.0;" width="10" x="234" y="506.4766"/><rect fill="#FFFFFF" filter="url(#f11j0yle025yxt)" height="30.3516" style="stroke:#A80036;stroke-width:1.0;" width="10" x="451" y="213.0156"/><rect fill="#FFFFFF" filter="url(#f11j0yle025yxt)" height="60.3516" style="stroke:#A80036;stroke-width:1.0;" width="10" x="451" y="273.7188"/><rect fill="#FFFFFF" filter="url(#f11j0yle025yxt)" height="60.3516" style="stroke:#A80036;stroke-width:1.0;" width="10" x="451" y="364.4219"/><rect fill="#FFFFFF" filter="url(#f11j0yle025yxt)" height="60.3516" style="stroke:#A80036;stroke-width:1.0;" width="10" x="686" y="243.3672"/><rect fill="#FFFFFF" filter="url(#f11j0yle025yxt)" height="216.7578" style="stroke:#A80036;stroke-width:1.0;" width="10" x="686" y="334.0703"/><rect fill="#FFFFFF" filter="url(#f11j0yle025yxt)" height="30" style="stroke:#A80036;stroke-width:1.0;" width="10" x="885" y="273.7188"/><line style="stroke:#A80036;stroke-width:1.0;stroke-dasharray:5.0,5.0;" x1="61" x2="61" y1="89.6094" y2="559.8281"/><line style="stroke:#A80036;stroke-width:1.0;stroke-dasharray:5.0,5.0;" x1="239" x2="239" y1="89.6094" y2="559.8281"/><line style="stroke:#A80036;stroke-width:1.0;stroke-dasharray:5.0,5.0;" x1="456" x2="456" y1="89.6094" y2="559.8281"/><line style="stroke:#A80036;stroke-width:1.0;stroke-dasharray:5.0,5.0;" x1="691" x2="691" y1="89.6094" y2="559.8281"/><line style="stroke:#A80036;stroke-width:1.0;stroke-dasharray:5.0,5.0;" x1="890" x2="890" y1="89.6094" y2="559.8281"/><text fill="#000000" font-family="sans-serif" font-size="14" lengthAdjust="spacing" textLength="106" x="5" y="86.5332">Specialist Doctor</text><ellipse cx="61" cy="15" fill="#FEFECE" filter="url(#f11j0yle025yxt)" rx="8" ry="8" style="stroke:#A80036;stroke-width:2.0;"/><path d="M61,23 L61,50 M48,31 L74,31 M61,50 L48,65 M61,50 L74,65 " fill="none" filter="url(#f11j0yle025yxt)" style="stroke:#A80036;stroke-width:2.0;"/><text fill="#000000" font-family="sans-serif" font-size="14" lengthAdjust="spacing" textLength="106" x="5" y="573.3613">Specialist Doctor</text><ellipse cx="61" cy="586.4375" fill="#FEFECE" filter="url(#f11j0yle025yxt)" rx="8" ry="8" style="stroke:#A80036;stroke-width:2.0;"/><path d="M61,594.4375 L61,621.4375 M48,602.4375 L74,602.4375 M61,621.4375 L48,636.4375 M61,621.4375 L74,636.4375 " fill="none" filter="url(#f11j0yle025yxt)" style="stroke:#A80036;stroke-width:2.0;"/><rect fill="#FEFECE" filter="url(#f11j0yle025yxt)" height="31.6094" style="stroke:#A80036;stroke-width:1.5;" width="92" x="191" y="53"/><text fill="#000000" font-family="sans-serif" font-size="14" lengthAdjust="spacing" textLength="78" x="198" y="74.5332">:DiagnosisUI</text><rect fill="#FEFECE" filter="url(#f11j0yle025yxt)" height="31.6094" style="stroke:#A80036;stroke-width:1.5;" width="92" x="191" y="558.8281"/><text fill="#000000" font-family="sans-serif" font-size="14" lengthAdjust="spacing" textLength="78" x="198" y="580.3613">:DiagnosisUI</text><rect fill="#FEFECE" filter="url(#f11j0yle025yxt)" height="31.6094" style="stroke:#A80036;stroke-width:1.5;" width="142" x="383" y="53"/><text fill="#000000" font-family="sans-serif" font-size="14" lengthAdjust="spacing" textLength="128" x="390" y="74.5332">:DiagnosisController</text><rect fill="#FEFECE" filter="url(#f11j0yle025yxt)" height="31.6094" style="stroke:#A80036;stroke-width:1.5;" width="142" x="383" y="558.8281"/><text fill="#000000" font-family="sans-serif" font-size="14" lengthAdjust="spacing" textLength="128" x="390" y="580.3613">:DiagnosisController</text><rect fill="#FEFECE" filter="url(#f11j0yle025yxt)" height="31.6094" style="stroke:#A80036;stroke-width:1.5;" width="110" x="634" y="53"/><text fill="#000000" font-family="sans-serif" font-size="14" lengthAdjust="spacing" textLength="96" x="641" y="74.5332">DiagnosisStore</text><rect fill="#FEFECE" filter="url(#f11j0yle025yxt)" height="31.6094" style="stroke:#A80036;stroke-width:1.5;" width="110" x="634" y="558.8281"/><text fill="#000000" font-family="sans-serif" font-size="14" lengthAdjust="spacing" textLength="96" x="641" y="580.3613">DiagnosisStore</text><rect fill="#FEFECE" filter="url(#f11j0yle025yxt)" height="31.6094" style="stroke:#A80036;stroke-width:1.5;" width="76" x="850" y="53"/><text fill="#000000" font-family="sans-serif" font-size="14" lengthAdjust="spacing" textLength="62" x="857" y="74.5332">Diagnosis</text><rect fill="#FEFECE" filter="url(#f11j0yle025yxt)" height="31.6094" style="stroke:#A80036;stroke-width:1.5;" width="76" x="850" y="558.8281"/><text fill="#000000" font-family="sans-serif" font-size="14" lengthAdjust="spacing" textLength="62" x="857" y="580.3613">Diagnosis</text><rect fill="#FFFFFF" filter="url(#f11j0yle025yxt)" height="451.2188" style="stroke:#A80036;stroke-width:1.0;" width="10" x="56" y="99.6094"/><rect fill="#FFFFFF" filter="url(#f11j0yle025yxt)" height="30.3516" style="stroke:#A80036;stroke-width:1.0;" width="10" x="234" y="121.9609"/><rect fill="#FFFFFF" filter="url(#f11j0yle025yxt)" height="30.3516" style="stroke:#A80036;stroke-width:1.0;" width="10" x="234" y="182.6641"/><rect fill="#FFFFFF" filter="url(#f11j0yle025yxt)" height="60.3516" style="stroke:#A80036;stroke-width:1.0;" width="10" x="234" y="334.0703"/><rect fill="#FFFFFF" filter="url(#f11j0yle025yxt)" height="35.3516" style="stroke:#A80036;stroke-width:1.0;" width="10" x="234" y="506.4766"/><rect fill="#FFFFFF" filter="url(#f11j0yle025yxt)" height="30.3516" style="stroke:#A80036;stroke-width:1.0;" width="10" x="451" y="213.0156"/><rect fill="#FFFFFF" filter="url(#f11j0yle025yxt)" height="60.3516" style="stroke:#A80036;stroke-width:1.0;" width="10" x="451" y="273.7188"/><rect fill="#FFFFFF" filter="url(#f11j0yle025yxt)" height="60.3516" style="stroke:#A80036;stroke-width:1.0;" width="10" x="451" y="364.4219"/><rect fill="#FFFFFF" filter="url(#f11j0yle025yxt)" height="60.3516" style="stroke:#A80036;stroke-width:1.0;" width="10" x="686" y="243.3672"/><rect fill="#FFFFFF" filter="url(#f11j0yle025yxt)" height="216.7578" style="stroke:#A80036;stroke-width:1.0;" width="10" x="686" y="334.0703"/><rect fill="#FFFFFF" filter="url(#f11j0yle025yxt)" height="30" style="stroke:#A80036;stroke-width:1.0;" width="10" x="885" y="273.7188"/><polygon fill="#A80036" points="222,117.9609,232,121.9609,222,125.9609,226,121.9609" style="stroke:#A80036;stroke-width:1.0;"/><line style="stroke:#A80036;stroke-width:1.0;" x1="66" x2="228" y1="121.9609" y2="121.9609"/><text fill="#000000" font-family="sans-serif" font-size="13" font-weight="bold" lengthAdjust="spacing" textLength="7" x="73" y="117.1045">1</text><text fill="#000000" font-family="sans-serif" font-size="13" lengthAdjust="spacing" textLength="138" x="84" y="117.1045">asks to insert the report</text><polygon fill="#A80036" points="77,148.3125,67,152.3125,77,156.3125,73,152.3125" style="stroke:#A80036;stroke-width:1.0;"/><line style="stroke:#A80036;stroke-width:1.0;stroke-dasharray:2.0,2.0;" x1="71" x2="238" y1="152.3125" y2="152.3125"/><text fill="#000000" font-family="sans-serif" font-size="13" font-weight="bold" lengthAdjust="spacing" textLength="7" x="83" y="147.4561">2</text><text fill="#000000" font-family="sans-serif" font-size="13" lengthAdjust="spacing" textLength="113" x="94" y="147.4561">request data(report)</text><polygon fill="#A80036" points="222,178.6641,232,182.6641,222,186.6641,226,182.6641" style="stroke:#A80036;stroke-width:1.0;"/><line style="stroke:#A80036;stroke-width:1.0;" x1="66" x2="228" y1="182.6641" y2="182.6641"/><text fill="#000000" font-family="sans-serif" font-size="13" font-weight="bold" lengthAdjust="spacing" textLength="7" x="73" y="177.8076">3</text><text fill="#000000" font-family="sans-serif" font-size="13" lengthAdjust="spacing" textLength="122" x="84" y="177.8076">types requested data</text><polygon fill="#A80036" points="439,209.0156,449,213.0156,439,217.0156,443,213.0156" style="stroke:#A80036;stroke-width:1.0;"/><line style="stroke:#A80036;stroke-width:1.0;" x1="239" x2="445" y1="213.0156" y2="213.0156"/><text fill="#000000" font-family="sans-serif" font-size="13" font-weight="bold" lengthAdjust="spacing" textLength="7" x="246" y="208.1592">4</text><text fill="#000000" font-family="sans-serif" font-size="13" lengthAdjust="spacing" textLength="177" x="257" y="208.1592">getDiagnosis(report,date,code)</text><polygon fill="#A80036" points="674,239.3672,684,243.3672,674,247.3672,678,243.3672" style="stroke:#A80036;stroke-width:1.0;"/><line style="stroke:#A80036;stroke-width:1.0;" x1="456" x2="680" y1="243.3672" y2="243.3672"/><text fill="#000000" font-family="sans-serif" font-size="13" font-weight="bold" lengthAdjust="spacing" textLength="7" x="463" y="238.5107">5</text><text fill="#000000" font-family="sans-serif" font-size="13" lengthAdjust="spacing" textLength="195" x="474" y="238.5107">createDiagnosis(report,date,code)</text><polygon fill="#A80036" points="873,269.7188,883,273.7188,873,277.7188,877,273.7188" style="stroke:#A80036;stroke-width:1.0;"/><line style="stroke:#A80036;stroke-width:1.0;" x1="696" x2="879" y1="273.7188" y2="273.7188"/><text fill="#000000" font-family="sans-serif" font-size="13" font-weight="bold" lengthAdjust="spacing" textLength="7" x="703" y="268.8623">6</text><text fill="#000000" font-family="sans-serif" font-size="13" lengthAdjust="spacing" textLength="159" x="714" y="268.8623">Diagnosis(report,date,code)</text><polygon fill="#A80036" points="674,330.0703,684,334.0703,674,338.0703,678,334.0703" style="stroke:#A80036;stroke-width:1.0;"/><line style="stroke:#A80036;stroke-width:1.0;" x1="456" x2="680" y1="334.0703" y2="334.0703"/><text fill="#000000" font-family="sans-serif" font-size="13" font-weight="bold" lengthAdjust="spacing" textLength="7" x="463" y="329.2139">7</text><text fill="#000000" font-family="sans-serif" font-size="13" lengthAdjust="spacing" textLength="165" x="474" y="329.2139">validateDiagnosis(Diagnosis)</text><polygon fill="#A80036" points="439,360.4219,449,364.4219,439,368.4219,443,364.4219" style="stroke:#A80036;stroke-width:1.0;"/><line style="stroke:#A80036;stroke-width:1.0;" x1="244" x2="445" y1="364.4219" y2="364.4219"/><text fill="#000000" font-family="sans-serif" font-size="13" font-weight="bold" lengthAdjust="spacing" textLength="7" x="251" y="359.5654">8</text><text fill="#000000" font-family="sans-serif" font-size="13" lengthAdjust="spacing" textLength="91" x="262" y="359.5654">saveDiagnosis()</text><polygon fill="#A80036" points="674,420.7734,684,424.7734,674,428.7734,678,424.7734" style="stroke:#A80036;stroke-width:1.0;"/><line style="stroke:#A80036;stroke-width:1.0;" x1="456" x2="680" y1="424.7734" y2="424.7734"/><text fill="#000000" font-family="sans-serif" font-size="13" font-weight="bold" lengthAdjust="spacing" textLength="7" x="463" y="419.917">9</text><text fill="#000000" font-family="sans-serif" font-size="13" lengthAdjust="spacing" textLength="148" x="474" y="419.917">saveDiagnosis(Diagnosis)</text><line style="stroke:#A80036;stroke-width:1.0;" x1="696" x2="738" y1="455.125" y2="455.125"/><line style="stroke:#A80036;stroke-width:1.0;" x1="738" x2="738" y1="455.125" y2="468.125"/><line style="stroke:#A80036;stroke-width:1.0;" x1="697" x2="738" y1="468.125" y2="468.125"/><polygon fill="#A80036" points="707,464.125,697,468.125,707,472.125,703,468.125" style="stroke:#A80036;stroke-width:1.0;"/><text fill="#000000" font-family="sans-serif" font-size="13" font-weight="bold" lengthAdjust="spacing" textLength="14" x="703" y="450.2686">10</text><text fill="#000000" font-family="sans-serif" font-size="13" lengthAdjust="spacing" textLength="100" x="721" y="450.2686">validateDiagnosis</text><line style="stroke:#A80036;stroke-width:1.0;" x1="696" x2="743" y1="493.4766" y2="493.4766"/><line style="stroke:#A80036;stroke-width:1.0;" x1="743" x2="743" y1="493.4766" y2="506.4766"/><line style="stroke:#A80036;stroke-width:1.0;" x1="702" x2="743" y1="506.4766" y2="506.4766"/><polygon fill="#A80036" points="712,502.4766,702,506.4766,712,510.4766,708,506.4766" style="stroke:#A80036;stroke-width:1.0;"/><text fill="#000000" font-family="sans-serif" font-size="13" font-weight="bold" lengthAdjust="spacing" textLength="14" x="708" y="488.6201">11</text><text fill="#000000" font-family="sans-serif" font-size="13" lengthAdjust="spacing" textLength="93" x="726" y="488.6201">createDiagnosis</text><polygon fill="#A80036" points="77,537.8281,67,541.8281,77,545.8281,73,541.8281" style="stroke:#A80036;stroke-width:1.0;"/><line style="stroke:#A80036;stroke-width:1.0;" x1="71" x2="238" y1="541.8281" y2="541.8281"/><text fill="#000000" font-family="sans-serif" font-size="13" font-weight="bold" lengthAdjust="spacing" textLength="14" x="83" y="536.9717">12</text><text fill="#000000" font-family="sans-serif" font-size="13" lengthAdjust="spacing" textLength="89" x="101" y="536.9717">show the report</text><!--MD5=[9c2104bdcb1654c035e42dc41dc3f40e]
@startuml
autonumber
'hide footbox
actor "Specialist Doctor" as ADM

participant ":DiagnosisUI" as UI
participant ":DiagnosisController" as CTRL
participant "DiagnosisStore" as store
participant "Diagnosis" as obj

activate ADM

ADM -> UI:asks to insert the report
activate UI
UI - -> ADM: request data(report)
deactivate UI
ADM -> UI : types requested data
activate UI
UI->CTRL : getDiagnosis(report,date,code)
deactivate UI
activate CTRL
CTRL->store : createDiagnosis(report,date,code)
deactivate CTRL
activate store

store-> obj : Diagnosis(report,date,code)
activate obj
deactivate store
deactivate obj
activate CTRL
CTRL->store :validateDiagnosis(Diagnosis)
deactivate CTRL
activate store
activate UI
UI->CTRL : saveDiagnosis()
activate CTRL
deactivate UI
CTRL->store :saveDiagnosis(Diagnosis)
deactivate CTRL
store->store: validateDiagnosis
store->store:createDiagnosis
activate UI
UI->ADM: show the report
deactivate UI
@enduml

@startuml
autonumber
actor "Specialist Doctor" as ADM

participant ":DiagnosisUI" as UI
participant ":DiagnosisController" as CTRL
participant "DiagnosisStore" as store
participant "Diagnosis" as obj

activate ADM

ADM -> UI:asks to insert the report
activate UI
UI - -> ADM: request data(report)
deactivate UI
ADM -> UI : types requested data
activate UI
UI->CTRL : getDiagnosis(report,date,code)
deactivate UI
activate CTRL
CTRL->store : createDiagnosis(report,date,code)
deactivate CTRL
activate store

store-> obj : Diagnosis(report,date,code)
activate obj
deactivate store
deactivate obj
activate CTRL
CTRL->store :validateDiagnosis(Diagnosis)
deactivate CTRL
activate store
activate UI
UI->CTRL : saveDiagnosis()
activate CTRL
deactivate UI
CTRL->store :saveDiagnosis(Diagnosis)
deactivate CTRL
store->store: validateDiagnosis
store->store:createDiagnosis
activate UI
UI->ADM: show the report
deactivate UI
@enduml

PlantUML version 1.2021.00(Sun Jan 10 10:25:05 GMT 2021)
(GPL source distribution)
Java Runtime: OpenJDK Runtime Environment
JVM: OpenJDK 64-Bit Server VM
Default Encoding: Cp1252
Language: pt
Country: PT
--></g></svg>