<?xml version="1.0" encoding="UTF-8" standalone="no"?><svg xmlns="http://www.w3.org/2000/svg" xmlns:xlink="http://www.w3.org/1999/xlink" contentScriptType="application/ecmascript" contentStyleType="text/css" height="611.25px" preserveAspectRatio="none" style="width:662px;height:611px;" version="1.1" viewBox="0 0 662 611" width="662.5px" zoomAndPan="magnify"><defs><filter height="300%" id="f7mup6hxni8d0" width="300%" x="-1" y="-1"><feGaussianBlur result="blurOut" stdDeviation="2.5"/><feColorMatrix in="blurOut" result="blurOut2" type="matrix" values="0 0 0 0 0 0 0 0 0 0 0 0 0 0 0 0 0 0 .4 0"/><feOffset dx="5.0" dy="5.0" in="blurOut2" result="blurOut3"/><feBlend in="SourceGraphic" in2="blurOut3" mode="normal"/></filter></defs><g><!--MD5=[6017f56a87b244e108fd0d8749edd53c]
class CreateParameterCategoryUI--><rect codeLine="5" fill="#FEFECE" filter="url(#f7mup6hxni8d0)" height="60" id="CreateParameterCategoryUI" style="stroke:#A80036;stroke-width:1.875;" width="235" x="180.625" y="8.75"/><ellipse cx="199.375" cy="28.75" fill="#ADD1B2" rx="13.75" ry="13.75" style="stroke:#A80036;stroke-width:1.25;"/><path d="M201.875,24.375 Q202.1289,23.75 202.4219,23.4375 Q202.7148,23.125 203.0469,23.125 Q203.6328,23.125 204.0039,23.4766 Q204.375,23.8281 204.375,24.6484 L204.375,26.6016 Q204.375,27.4219 204.0234,27.7734 Q203.6719,28.125 203.125,28.125 Q202.6367,28.125 202.3242,27.9102 Q202.0117,27.6953 201.875,27.1289 Q201.8164,26.7383 201.6016,26.5234 Q201.2109,26.1133 200.5078,25.8789 Q199.8047,25.625 199.1016,25.625 Q198.2227,25.625 197.4805,25.9766 Q196.7578,26.3281 196.1914,27.1094 Q195.625,27.8906 195.625,28.9648 L195.625,30.1172 Q195.625,31.4063 196.6797,32.2656 Q197.7344,33.125 199.6094,33.125 Q200.7227,33.125 201.5039,32.8711 Q201.9531,32.7344 202.4609,32.2852 Q202.793,32.0313 202.9688,31.9531 Q203.1445,31.875 203.3594,31.875 Q203.7695,31.875 204.0625,32.207 Q204.375,32.5195 204.375,32.9688 Q204.375,33.3984 203.9453,33.9063 Q203.3203,34.6484 202.3242,35.0586 Q201.0156,35.625 199.4141,35.625 Q197.5391,35.625 196.0352,34.8828 Q194.8242,34.2969 193.9648,33.0273 Q193.125,31.7578 193.125,30.2539 L193.125,28.8867 Q193.125,27.3242 193.8672,25.957 Q194.6289,24.5898 195.9375,23.8672 Q197.2656,23.125 198.75,23.125 Q199.6484,23.125 200.4297,23.4375 Q201.2109,23.75 201.875,24.375 Z " fill="#000000"/><text fill="#000000" font-family="sans-serif" font-size="15" lengthAdjust="spacing" textLength="195" x="216.875" y="34.8877">CreateParameterCategoryUI</text><line style="stroke:#A80036;stroke-width:1.875;" x1="181.875" x2="414.375" y1="48.75" y2="48.75"/><line style="stroke:#A80036;stroke-width:1.875;" x1="181.875" x2="414.375" y1="58.75" y2="58.75"/><!--MD5=[43bb81d93caae6cc68206df5797cd1c4]
class CreateParameterCategoryController--><rect codeLine="7" fill="#FEFECE" filter="url(#f7mup6hxni8d0)" height="94.5898" id="CreateParameterCategoryController" style="stroke:#A80036;stroke-width:1.875;" width="323.75" x="136.25" y="143.75"/><ellipse cx="171.3125" cy="163.75" fill="#ADD1B2" rx="13.75" ry="13.75" style="stroke:#A80036;stroke-width:1.25;"/><path d="M173.8125,159.375 Q174.0664,158.75 174.3594,158.4375 Q174.6523,158.125 174.9844,158.125 Q175.5703,158.125 175.9414,158.4766 Q176.3125,158.8281 176.3125,159.6484 L176.3125,161.6016 Q176.3125,162.4219 175.9609,162.7734 Q175.6094,163.125 175.0625,163.125 Q174.5742,163.125 174.2617,162.9102 Q173.9492,162.6953 173.8125,162.1289 Q173.7539,161.7383 173.5391,161.5234 Q173.1484,161.1133 172.4453,160.8789 Q171.7422,160.625 171.0391,160.625 Q170.1602,160.625 169.418,160.9766 Q168.6953,161.3281 168.1289,162.1094 Q167.5625,162.8906 167.5625,163.9648 L167.5625,165.1172 Q167.5625,166.4063 168.6172,167.2656 Q169.6719,168.125 171.5469,168.125 Q172.6602,168.125 173.4414,167.8711 Q173.8906,167.7344 174.3984,167.2852 Q174.7305,167.0313 174.9063,166.9531 Q175.082,166.875 175.2969,166.875 Q175.707,166.875 176,167.207 Q176.3125,167.5195 176.3125,167.9688 Q176.3125,168.3984 175.8828,168.9063 Q175.2578,169.6484 174.2617,170.0586 Q172.9531,170.625 171.3516,170.625 Q169.4766,170.625 167.9727,169.8828 Q166.7617,169.2969 165.9023,168.0273 Q165.0625,166.7578 165.0625,165.2539 L165.0625,163.8867 Q165.0625,162.3242 165.8047,160.957 Q166.5664,159.5898 167.875,158.8672 Q169.2031,158.125 170.6875,158.125 Q171.5859,158.125 172.3672,158.4375 Q173.1484,158.75 173.8125,159.375 Z " fill="#000000"/><text fill="#000000" font-family="sans-serif" font-size="15" lengthAdjust="spacing" textLength="247.5" x="192.4375" y="169.8877">CreateParameterCategoryController</text><line style="stroke:#A80036;stroke-width:1.875;" x1="137.5" x2="458.75" y1="183.75" y2="183.75"/><line style="stroke:#A80036;stroke-width:1.875;" x1="137.5" x2="458.75" y1="193.75" y2="193.75"/><text fill="#000000" font-family="sans-serif" font-size="13.75" lengthAdjust="spacing" textLength="308.75" x="143.75" y="213.0237">createParameterCategory(code, description, nhsId)</text><text fill="#000000" font-family="sans-serif" font-size="13.75" lengthAdjust="spacing" textLength="156.25" x="143.75" y="230.3186">saveParameterCategory()</text><!--MD5=[02e4b9b7573f1156f41e60aa5b4e25a4]
class Company--><rect codeLine="12" fill="#FEFECE" filter="url(#f7mup6hxni8d0)" height="77.2949" id="Company" style="stroke:#A80036;stroke-width:1.875;" width="238.75" x="8.75" y="339.375"/><ellipse cx="89.6875" cy="359.375" fill="#ADD1B2" rx="13.75" ry="13.75" style="stroke:#A80036;stroke-width:1.25;"/><path d="M92.1875,355 Q92.4414,354.375 92.7344,354.0625 Q93.0273,353.75 93.3594,353.75 Q93.9453,353.75 94.3164,354.1016 Q94.6875,354.4531 94.6875,355.2734 L94.6875,357.2266 Q94.6875,358.0469 94.3359,358.3984 Q93.9844,358.75 93.4375,358.75 Q92.9492,358.75 92.6367,358.5352 Q92.3242,358.3203 92.1875,357.7539 Q92.1289,357.3633 91.9141,357.1484 Q91.5234,356.7383 90.8203,356.5039 Q90.1172,356.25 89.4141,356.25 Q88.5352,356.25 87.793,356.6016 Q87.0703,356.9531 86.5039,357.7344 Q85.9375,358.5156 85.9375,359.5898 L85.9375,360.7422 Q85.9375,362.0313 86.9922,362.8906 Q88.0469,363.75 89.9219,363.75 Q91.0352,363.75 91.8164,363.4961 Q92.2656,363.3594 92.7734,362.9102 Q93.1055,362.6563 93.2813,362.5781 Q93.457,362.5 93.6719,362.5 Q94.082,362.5 94.375,362.832 Q94.6875,363.1445 94.6875,363.5938 Q94.6875,364.0234 94.2578,364.5313 Q93.6328,365.2734 92.6367,365.6836 Q91.3281,366.25 89.7266,366.25 Q87.8516,366.25 86.3477,365.5078 Q85.1367,364.9219 84.2773,363.6523 Q83.4375,362.3828 83.4375,360.8789 L83.4375,359.5117 Q83.4375,357.9492 84.1797,356.582 Q84.9414,355.2148 86.25,354.4922 Q87.5781,353.75 89.0625,353.75 Q89.9609,353.75 90.7422,354.0625 Q91.5234,354.375 92.1875,355 Z " fill="#000000"/><text fill="#000000" font-family="sans-serif" font-size="15" lengthAdjust="spacing" textLength="66.25" x="115.3125" y="365.5127">Company</text><line style="stroke:#A80036;stroke-width:1.875;" x1="10" x2="246.25" y1="379.375" y2="379.375"/><line style="stroke:#A80036;stroke-width:1.875;" x1="10" x2="246.25" y1="389.375" y2="389.375"/><text fill="#000000" font-family="sans-serif" font-size="13.75" lengthAdjust="spacing" textLength="223.75" x="16.25" y="408.6487">store = getParameterCategoryStore()</text><!--MD5=[d802db621b5b215a6f0466f93cefcb42]
class ParameterCategoryStore--><rect codeLine="16" fill="#FEFECE" filter="url(#f7mup6hxni8d0)" height="129.1797" id="ParameterCategoryStore" style="stroke:#A80036;stroke-width:1.875;" width="353.75" x="291.25" y="313.75"/><ellipse cx="377.8125" cy="333.75" fill="#ADD1B2" rx="13.75" ry="13.75" style="stroke:#A80036;stroke-width:1.25;"/><path d="M380.3125,329.375 Q380.5664,328.75 380.8594,328.4375 Q381.1523,328.125 381.4844,328.125 Q382.0703,328.125 382.4414,328.4766 Q382.8125,328.8281 382.8125,329.6484 L382.8125,331.6016 Q382.8125,332.4219 382.4609,332.7734 Q382.1094,333.125 381.5625,333.125 Q381.0742,333.125 380.7617,332.9102 Q380.4492,332.6953 380.3125,332.1289 Q380.2539,331.7383 380.0391,331.5234 Q379.6484,331.1133 378.9453,330.8789 Q378.2422,330.625 377.5391,330.625 Q376.6602,330.625 375.918,330.9766 Q375.1953,331.3281 374.6289,332.1094 Q374.0625,332.8906 374.0625,333.9648 L374.0625,335.1172 Q374.0625,336.4063 375.1172,337.2656 Q376.1719,338.125 378.0469,338.125 Q379.1602,338.125 379.9414,337.8711 Q380.3906,337.7344 380.8984,337.2852 Q381.2305,337.0313 381.4063,336.9531 Q381.582,336.875 381.7969,336.875 Q382.207,336.875 382.5,337.207 Q382.8125,337.5195 382.8125,337.9688 Q382.8125,338.3984 382.3828,338.9063 Q381.7578,339.6484 380.7617,340.0586 Q379.4531,340.625 377.8516,340.625 Q375.9766,340.625 374.4727,339.8828 Q373.2617,339.2969 372.4023,338.0273 Q371.5625,336.7578 371.5625,335.2539 L371.5625,333.8867 Q371.5625,332.3242 372.3047,330.957 Q373.0664,329.5898 374.375,328.8672 Q375.7031,328.125 377.1875,328.125 Q378.0859,328.125 378.8672,328.4375 Q379.6484,328.75 380.3125,329.375 Z " fill="#000000"/><text fill="#000000" font-family="sans-serif" font-size="15" lengthAdjust="spacing" textLength="170" x="403.4375" y="339.8877">ParameterCategoryStore</text><line style="stroke:#A80036;stroke-width:1.875;" x1="292.5" x2="643.75" y1="353.75" y2="353.75"/><line style="stroke:#A80036;stroke-width:1.875;" x1="292.5" x2="643.75" y1="363.75" y2="363.75"/><text fill="#000000" font-family="sans-serif" font-size="13.75" lengthAdjust="spacing" textLength="338.75" x="298.75" y="383.0237">pc = createParameterCategory(code, description, nhsId)</text><text fill="#000000" font-family="sans-serif" font-size="13.75" lengthAdjust="spacing" textLength="187.5" x="298.75" y="400.3186">validateParameterCategory(pc)</text><text fill="#000000" font-family="sans-serif" font-size="13.75" lengthAdjust="spacing" textLength="163.75" x="298.75" y="417.6135">addParameterCategory(pc)</text><text fill="#000000" font-family="sans-serif" font-size="13.75" lengthAdjust="spacing" textLength="171.25" x="298.75" y="434.9084">saveParameterCategory(pc)</text><!--MD5=[36afb6bbd95a8ac778c4537c55a683d5]
class ParameterCategory--><rect codeLine="23" fill="#FEFECE" filter="url(#f7mup6hxni8d0)" height="77.2949" id="ParameterCategory" style="stroke:#A80036;stroke-width:1.875;" width="200" x="368.125" y="517.5"/><ellipse cx="398.6875" cy="537.5" fill="#ADD1B2" rx="13.75" ry="13.75" style="stroke:#A80036;stroke-width:1.25;"/><path d="M401.1875,533.125 Q401.4414,532.5 401.7344,532.1875 Q402.0273,531.875 402.3594,531.875 Q402.9453,531.875 403.3164,532.2266 Q403.6875,532.5781 403.6875,533.3984 L403.6875,535.3516 Q403.6875,536.1719 403.3359,536.5234 Q402.9844,536.875 402.4375,536.875 Q401.9492,536.875 401.6367,536.6602 Q401.3242,536.4453 401.1875,535.8789 Q401.1289,535.4883 400.9141,535.2734 Q400.5234,534.8633 399.8203,534.6289 Q399.1172,534.375 398.4141,534.375 Q397.5352,534.375 396.793,534.7266 Q396.0703,535.0781 395.5039,535.8594 Q394.9375,536.6406 394.9375,537.7148 L394.9375,538.8672 Q394.9375,540.1563 395.9922,541.0156 Q397.0469,541.875 398.9219,541.875 Q400.0352,541.875 400.8164,541.6211 Q401.2656,541.4844 401.7734,541.0352 Q402.1055,540.7813 402.2813,540.7031 Q402.457,540.625 402.6719,540.625 Q403.082,540.625 403.375,540.957 Q403.6875,541.2695 403.6875,541.7188 Q403.6875,542.1484 403.2578,542.6563 Q402.6328,543.3984 401.6367,543.8086 Q400.3281,544.375 398.7266,544.375 Q396.8516,544.375 395.3477,543.6328 Q394.1367,543.0469 393.2773,541.7773 Q392.4375,540.5078 392.4375,539.0039 L392.4375,537.6367 Q392.4375,536.0742 393.1797,534.707 Q393.9414,533.3398 395.25,532.6172 Q396.5781,531.875 398.0625,531.875 Q398.9609,531.875 399.7422,532.1875 Q400.5234,532.5 401.1875,533.125 Z " fill="#000000"/><text fill="#000000" font-family="sans-serif" font-size="15" lengthAdjust="spacing" textLength="133.75" x="418.8125" y="543.6377">ParameterCategory</text><line style="stroke:#A80036;stroke-width:1.875;" x1="369.375" x2="566.875" y1="557.5" y2="557.5"/><line style="stroke:#A80036;stroke-width:1.875;" x1="369.375" x2="566.875" y1="567.5" y2="567.5"/><text fill="#000000" font-family="sans-serif" font-size="13.75" lengthAdjust="spacing" textLength="185" x="375.625" y="586.7737">creat(code, description, nhsId)</text><!--MD5=[93b1b9218398b0464d36d46d0f539949]
link CreateParameterCategoryUI to CreateParameterCategoryController--><path codeLine="27" d="M298.125,68.925 C298.125,88.225 298.125,114.1625 298.125,137.0875 " fill="none" id="CreateParameterCategoryUI-to-CreateParameterCategoryController" style="stroke:#A80036;stroke-width:1.25;stroke-dasharray:7.0,7.0;"/><polygon fill="#A80036" points="298.125,143.4625,303.125,132.2125,298.125,137.2125,293.125,132.2125,298.125,143.4625" style="stroke:#A80036;stroke-width:1.25;"/><!--MD5=[be6e87e2c6f1800ec3da53612c46e11a]
link CreateParameterCategoryController to ParameterCategoryStore--><path codeLine="28" d="M341.025,239.025 C360.575,260.225 384.1,285.7375 405.5625,309.025 " fill="none" id="CreateParameterCategoryController-to-ParameterCategoryStore" style="stroke:#A80036;stroke-width:1.25;stroke-dasharray:7.0,7.0;"/><polygon fill="#A80036" points="409.825,313.65,405.874,301.9901,405.588,309.0554,398.5227,308.7694,409.825,313.65" style="stroke:#A80036;stroke-width:1.25;"/><!--MD5=[a00c31f7a5d66db29f7adf0293377a3b]
link CreateParameterCategoryController to Company--><path codeLine="29" d="M255.225,239.025 C228.2625,268.275 193.7375,305.7125 167.475,334.2 " fill="none" id="CreateParameterCategoryController-to-Company" style="stroke:#A80036;stroke-width:1.25;stroke-dasharray:7.0,7.0;"/><polygon fill="#A80036" points="163,339.05,174.2928,334.1475,167.2281,334.4472,166.9284,327.3825,163,339.05" style="stroke:#A80036;stroke-width:1.25;"/><!--MD5=[d6274e3b73b5bc8f467c6cfbf5bf003e]
link ParameterCategoryStore to ParameterCategory--><path codeLine="30" d="M468.125,442.775 C468.125,465.4 468.125,490.3625 468.125,510.9875 " fill="none" id="ParameterCategoryStore-to-ParameterCategory" style="stroke:#A80036;stroke-width:1.25;stroke-dasharray:7.0,7.0;"/><polygon fill="#A80036" points="468.125,517.2375,473.125,505.9875,468.125,510.9875,463.125,505.9875,468.125,517.2375" style="stroke:#A80036;stroke-width:1.25;"/><!--MD5=[f6cddf4bf8677542ceeacdf8945a3d4f]
@startuml
'https://plantuml.com/class-diagram



class CreateParameterCategoryUI{}

class CreateParameterCategoryController{
createParameterCategory(code, description, nhsId)
saveParameterCategory()
}

class Company{
store = getParameterCategoryStore()
}

class ParameterCategoryStore{
pc = createParameterCategory(code, description, nhsId)
validateParameterCategory(pc)
addParameterCategory(pc)
saveParameterCategory(pc)
}

class ParameterCategory{
creat(code, description, nhsId)
}

CreateParameterCategoryUI ..> CreateParameterCategoryController
CreateParameterCategoryController ..> ParameterCategoryStore
CreateParameterCategoryController ..> Company
ParameterCategoryStore ..> ParameterCategory





@enduml

@startuml



class CreateParameterCategoryUI{}

class CreateParameterCategoryController{
createParameterCategory(code, description, nhsId)
saveParameterCategory()
}

class Company{
store = getParameterCategoryStore()
}

class ParameterCategoryStore{
pc = createParameterCategory(code, description, nhsId)
validateParameterCategory(pc)
addParameterCategory(pc)
saveParameterCategory(pc)
}

class ParameterCategory{
creat(code, description, nhsId)
}

CreateParameterCategoryUI ..> CreateParameterCategoryController
CreateParameterCategoryController ..> ParameterCategoryStore
CreateParameterCategoryController ..> Company
ParameterCategoryStore ..> ParameterCategory





@enduml

PlantUML version 1.2021.5(Sun Apr 25 12:20:28 BST 2021)
(GPL source distribution)
Java Runtime: OpenJDK Runtime Environment
JVM: Dynamic Code Evolution 64-Bit Server VM
Default Encoding: Cp1252
Language: pt
Country: PT
--></g></svg>