<?xml version="1.0" encoding="UTF-8" standalone="no"?><svg xmlns="http://www.w3.org/2000/svg" xmlns:xlink="http://www.w3.org/1999/xlink" contentScriptType="application/ecmascript" contentStyleType="text/css" height="579px" preserveAspectRatio="none" style="width:540px;height:579px;" version="1.1" viewBox="0 0 540 579" width="540px" zoomAndPan="magnify"><defs><filter height="300%" id="f1vz50m8igrtuy" width="300%" x="-1" y="-1"><feGaussianBlur result="blurOut" stdDeviation="2.0"/><feColorMatrix in="blurOut" result="blurOut2" type="matrix" values="0 0 0 0 0 0 0 0 0 0 0 0 0 0 0 0 0 0 .4 0"/><feOffset dx="4.0" dy="4.0" in="blurOut2" result="blurOut3"/><feBlend in="SourceGraphic" in2="blurOut3" mode="normal"/></filter></defs><g><!--MD5=[9150e2e2e630a0e6b84afb69650d4274]
class NewTestUI--><rect codeLine="3" fill="#FEFECE" filter="url(#f1vz50m8igrtuy)" height="48" id="NewTestUI" style="stroke:#A80036;stroke-width:1.5;" width="93" x="288" y="7"/><ellipse cx="303" cy="23" fill="#ADD1B2" rx="11" ry="11" style="stroke:#A80036;stroke-width:1.0;"/><path d="M305,19.5 Q305.2031,19 305.4375,18.75 Q305.6719,18.5 305.9375,18.5 Q306.4063,18.5 306.7031,18.7813 Q307,19.0625 307,19.7188 L307,21.2813 Q307,21.9375 306.7188,22.2188 Q306.4375,22.5 306,22.5 Q305.6094,22.5 305.3594,22.3281 Q305.1094,22.1563 305,21.7031 Q304.9531,21.3906 304.7813,21.2188 Q304.4688,20.8906 303.9063,20.7031 Q303.3438,20.5 302.7813,20.5 Q302.0781,20.5 301.4844,20.7813 Q300.9063,21.0625 300.4531,21.6875 Q300,22.3125 300,23.1719 L300,24.0938 Q300,25.125 300.8438,25.8125 Q301.6875,26.5 303.1875,26.5 Q304.0781,26.5 304.7031,26.2969 Q305.0625,26.1875 305.4688,25.8281 Q305.7344,25.625 305.875,25.5625 Q306.0156,25.5 306.1875,25.5 Q306.5156,25.5 306.75,25.7656 Q307,26.0156 307,26.375 Q307,26.7188 306.6563,27.125 Q306.1563,27.7188 305.3594,28.0469 Q304.3125,28.5 303.0313,28.5 Q301.5313,28.5 300.3281,27.9063 Q299.3594,27.4375 298.6719,26.4219 Q298,25.4063 298,24.2031 L298,23.1094 Q298,21.8594 298.5938,20.7656 Q299.2031,19.6719 300.25,19.0938 Q301.3125,18.5 302.5,18.5 Q303.2188,18.5 303.8438,18.75 Q304.4688,19 305,19.5 Z " fill="#000000"/><text fill="#000000" font-family="sans-serif" font-size="12" lengthAdjust="spacing" textLength="61" x="317" y="27.9102">NewTestUI</text><line style="stroke:#A80036;stroke-width:1.5;" x1="289" x2="380" y1="39" y2="39"/><line style="stroke:#A80036;stroke-width:1.5;" x1="289" x2="380" y1="47" y2="47"/><!--MD5=[21efae169ec0ac9a554b780efd15293e]
class NewTestController--><rect codeLine="12" fill="#FEFECE" filter="url(#f1vz50m8igrtuy)" height="75.6719" id="NewTestController" style="stroke:#A80036;stroke-width:1.5;" width="384" x="142.5" y="116"/><ellipse cx="278.75" cy="132" fill="#ADD1B2" rx="11" ry="11" style="stroke:#A80036;stroke-width:1.0;"/><path d="M280.75,128.5 Q280.9531,128 281.1875,127.75 Q281.4219,127.5 281.6875,127.5 Q282.1563,127.5 282.4531,127.7813 Q282.75,128.0625 282.75,128.7188 L282.75,130.2813 Q282.75,130.9375 282.4688,131.2188 Q282.1875,131.5 281.75,131.5 Q281.3594,131.5 281.1094,131.3281 Q280.8594,131.1563 280.75,130.7031 Q280.7031,130.3906 280.5313,130.2188 Q280.2188,129.8906 279.6563,129.7031 Q279.0938,129.5 278.5313,129.5 Q277.8281,129.5 277.2344,129.7813 Q276.6563,130.0625 276.2031,130.6875 Q275.75,131.3125 275.75,132.1719 L275.75,133.0938 Q275.75,134.125 276.5938,134.8125 Q277.4375,135.5 278.9375,135.5 Q279.8281,135.5 280.4531,135.2969 Q280.8125,135.1875 281.2188,134.8281 Q281.4844,134.625 281.625,134.5625 Q281.7656,134.5 281.9375,134.5 Q282.2656,134.5 282.5,134.7656 Q282.75,135.0156 282.75,135.375 Q282.75,135.7188 282.4063,136.125 Q281.9063,136.7188 281.1094,137.0469 Q280.0625,137.5 278.7813,137.5 Q277.2813,137.5 276.0781,136.9063 Q275.1094,136.4375 274.4219,135.4219 Q273.75,134.4063 273.75,133.2031 L273.75,132.1094 Q273.75,130.8594 274.3438,129.7656 Q274.9531,128.6719 276,128.0938 Q277.0625,127.5 278.25,127.5 Q278.9688,127.5 279.5938,127.75 Q280.2188,128 280.75,128.5 Z " fill="#000000"/><text fill="#000000" font-family="sans-serif" font-size="12" lengthAdjust="spacing" textLength="103" x="299.25" y="136.9102">NewTestController</text><line style="stroke:#A80036;stroke-width:1.5;" x1="143.5" x2="525.5" y1="148" y2="148"/><line style="stroke:#A80036;stroke-width:1.0;" x1="143.5" x2="525.5" y1="156" y2="156"/><text fill="#000000" font-family="sans-serif" font-size="11" lengthAdjust="spacing" textLength="372" x="148.5" y="171.4189">registerNewTestController( name, descriptionTest,  code,  collectingMethods)</text><text fill="#000000" font-family="sans-serif" font-size="11" lengthAdjust="spacing" textLength="53" x="148.5" y="185.2549">saveTest()</text><!--MD5=[02e4b9b7573f1156f41e60aa5b4e25a4]
class Company--><rect codeLine="17" fill="#FEFECE" filter="url(#f1vz50m8igrtuy)" height="117.1797" id="Company" style="stroke:#A80036;stroke-width:1.5;" width="401" x="7" y="253"/><ellipse cx="176.75" cy="269" fill="#ADD1B2" rx="11" ry="11" style="stroke:#A80036;stroke-width:1.0;"/><path d="M178.75,265.5 Q178.9531,265 179.1875,264.75 Q179.4219,264.5 179.6875,264.5 Q180.1563,264.5 180.4531,264.7813 Q180.75,265.0625 180.75,265.7188 L180.75,267.2813 Q180.75,267.9375 180.4688,268.2188 Q180.1875,268.5 179.75,268.5 Q179.3594,268.5 179.1094,268.3281 Q178.8594,268.1563 178.75,267.7031 Q178.7031,267.3906 178.5313,267.2188 Q178.2188,266.8906 177.6563,266.7031 Q177.0938,266.5 176.5313,266.5 Q175.8281,266.5 175.2344,266.7813 Q174.6563,267.0625 174.2031,267.6875 Q173.75,268.3125 173.75,269.1719 L173.75,270.0938 Q173.75,271.125 174.5938,271.8125 Q175.4375,272.5 176.9375,272.5 Q177.8281,272.5 178.4531,272.2969 Q178.8125,272.1875 179.2188,271.8281 Q179.4844,271.625 179.625,271.5625 Q179.7656,271.5 179.9375,271.5 Q180.2656,271.5 180.5,271.7656 Q180.75,272.0156 180.75,272.375 Q180.75,272.7188 180.4063,273.125 Q179.9063,273.7188 179.1094,274.0469 Q178.0625,274.5 176.7813,274.5 Q175.2813,274.5 174.0781,273.9063 Q173.1094,273.4375 172.4219,272.4219 Q171.75,271.4063 171.75,270.2031 L171.75,269.1094 Q171.75,267.8594 172.3438,266.7656 Q172.9531,265.6719 174,265.0938 Q175.0625,264.5 176.25,264.5 Q176.9688,264.5 177.5938,264.75 Q178.2188,265 178.75,265.5 Z " fill="#000000"/><text fill="#000000" font-family="sans-serif" font-size="12" lengthAdjust="spacing" textLength="53" x="197.25" y="273.9102">Company</text><line style="stroke:#A80036;stroke-width:1.5;" x1="8" x2="407" y1="285" y2="285"/><rect fill="none" height="6" style="stroke:#C82930;stroke-width:1.0;" width="6" x="15" y="293"/><text fill="#000000" font-family="sans-serif" font-size="11" lengthAdjust="spacing" textLength="55" x="27" y="300.4189">designation</text><line style="stroke:#A80036;stroke-width:1.0;" x1="8" x2="407" y1="306.8359" y2="306.8359"/><ellipse cx="18" cy="317.8359" fill="#84BE84" rx="3" ry="3" style="stroke:#038048;stroke-width:1.0;"/><text fill="#000000" font-family="sans-serif" font-size="11" lengthAdjust="spacing" textLength="375" x="27" y="322.2549">registerNewTestController( name,  descriptionTest,  code,  collectingMethods)</text><ellipse cx="18" cy="331.6719" fill="#84BE84" rx="3" ry="3" style="stroke:#038048;stroke-width:1.0;"/><text fill="#000000" font-family="sans-serif" font-size="11" lengthAdjust="spacing" textLength="96" x="27" y="336.0908">saveTest(newTest)</text><ellipse cx="18" cy="345.5078" fill="#84BE84" rx="3" ry="3" style="stroke:#038048;stroke-width:1.0;"/><text fill="#000000" font-family="sans-serif" font-size="11" lengthAdjust="spacing" textLength="134" x="27" y="349.9268">ValidateNewTest(newTest)</text><rect fill="none" height="6" style="stroke:#C82930;stroke-width:1.0;" width="6" x="15" y="356.3438"/><text fill="#000000" font-family="sans-serif" font-size="11" lengthAdjust="spacing" textLength="62" x="27" y="363.7627">addNewTest</text><!--MD5=[aeb3272166074d8737a70b61b1e71682]
class TestType--><rect codeLine="25" fill="#FEFECE" filter="url(#f1vz50m8igrtuy)" height="117.1797" id="TestType" style="stroke:#A80036;stroke-width:1.5;" width="310" x="179.5" y="448"/><ellipse cx="305.25" cy="464" fill="#ADD1B2" rx="11" ry="11" style="stroke:#A80036;stroke-width:1.0;"/><path d="M307.25,460.5 Q307.4531,460 307.6875,459.75 Q307.9219,459.5 308.1875,459.5 Q308.6563,459.5 308.9531,459.7813 Q309.25,460.0625 309.25,460.7188 L309.25,462.2813 Q309.25,462.9375 308.9688,463.2188 Q308.6875,463.5 308.25,463.5 Q307.8594,463.5 307.6094,463.3281 Q307.3594,463.1563 307.25,462.7031 Q307.2031,462.3906 307.0313,462.2188 Q306.7188,461.8906 306.1563,461.7031 Q305.5938,461.5 305.0313,461.5 Q304.3281,461.5 303.7344,461.7813 Q303.1563,462.0625 302.7031,462.6875 Q302.25,463.3125 302.25,464.1719 L302.25,465.0938 Q302.25,466.125 303.0938,466.8125 Q303.9375,467.5 305.4375,467.5 Q306.3281,467.5 306.9531,467.2969 Q307.3125,467.1875 307.7188,466.8281 Q307.9844,466.625 308.125,466.5625 Q308.2656,466.5 308.4375,466.5 Q308.7656,466.5 309,466.7656 Q309.25,467.0156 309.25,467.375 Q309.25,467.7188 308.9063,468.125 Q308.4063,468.7188 307.6094,469.0469 Q306.5625,469.5 305.2813,469.5 Q303.7813,469.5 302.5781,468.9063 Q301.6094,468.4375 300.9219,467.4219 Q300.25,466.4063 300.25,465.2031 L300.25,464.1094 Q300.25,462.8594 300.8438,461.7656 Q301.4531,460.6719 302.5,460.0938 Q303.5625,459.5 304.75,459.5 Q305.4688,459.5 306.0938,459.75 Q306.7188,460 307.25,460.5 Z " fill="#000000"/><text fill="#000000" font-family="sans-serif" font-size="12" lengthAdjust="spacing" textLength="50" x="325.75" y="468.9102">TestType</text><line style="stroke:#A80036;stroke-width:1.5;" x1="180.5" x2="488.5" y1="480" y2="480"/><rect fill="none" height="6" style="stroke:#C82930;stroke-width:1.0;" width="6" x="187.5" y="488"/><text fill="#000000" font-family="sans-serif" font-size="11" lengthAdjust="spacing" textLength="26" x="199.5" y="495.4189">name</text><rect fill="none" height="6" style="stroke:#C82930;stroke-width:1.0;" width="6" x="187.5" y="501.8359"/><text fill="#000000" font-family="sans-serif" font-size="11" lengthAdjust="spacing" textLength="74" x="199.5" y="509.2549">descriptionTest</text><rect fill="none" height="6" style="stroke:#C82930;stroke-width:1.0;" width="6" x="187.5" y="515.6719"/><text fill="#000000" font-family="sans-serif" font-size="11" lengthAdjust="spacing" textLength="24" x="199.5" y="523.0908">code</text><rect fill="none" height="6" style="stroke:#C82930;stroke-width:1.0;" width="6" x="187.5" y="529.5078"/><text fill="#000000" font-family="sans-serif" font-size="11" lengthAdjust="spacing" textLength="86" x="199.5" y="536.9268">collectingMethods</text><line style="stroke:#A80036;stroke-width:1.0;" x1="180.5" x2="488.5" y1="543.3438" y2="543.3438"/><ellipse cx="190.5" cy="554.3438" fill="#84BE84" rx="3" ry="3" style="stroke:#038048;stroke-width:1.0;"/><text fill="#000000" font-family="sans-serif" font-size="11" lengthAdjust="spacing" textLength="284" x="199.5" y="558.7627">TestType(name, descriptionTest, code,  collectingMethods)</text><!--MD5=[012d40964c1bcda38672749a79d1e537]
link NewTestUI to NewTestController--><path codeLine="8" d="M334.5,55.04 C334.5,70.71 334.5,91.91 334.5,110.58 " fill="none" id="NewTestUI-to-NewTestController" style="stroke:#A80036;stroke-width:1.0;stroke-dasharray:7.0,7.0;"/><polygon fill="#A80036" points="334.5,115.77,338.5,106.77,334.5,110.77,330.5,106.77,334.5,115.77" style="stroke:#A80036;stroke-width:1.0;"/><!--MD5=[de7efd7c076be1936e874bf0f8cc9d0b]
link NewTestController to Company--><path codeLine="9" d="M304.08,192.25 C290.3,209.12 273.63,229.52 258.06,248.6 " fill="none" id="NewTestController-to-Company" style="stroke:#A80036;stroke-width:1.0;stroke-dasharray:7.0,7.0;"/><polygon fill="#A80036" points="254.54,252.9,263.3376,248.4726,257.7085,249.0321,257.149,243.403,254.54,252.9" style="stroke:#A80036;stroke-width:1.0;"/><!--MD5=[5cad950f1961166326fc5c6865d9bb7e]
link NewTestController to TestType--><path codeLine="10" d="M381.87,192.45 C399.03,208.96 416.42,229.88 425.5,253 C444.51,301.4 440.65,320.26 425.5,370 C417.56,396.05 402.77,421.63 387.37,443.43 " fill="none" id="NewTestController-to-TestType" style="stroke:#A80036;stroke-width:1.0;stroke-dasharray:7.0,7.0;"/><polygon fill="#A80036" points="384.29,447.74,392.7777,442.7442,387.1975,443.6723,386.2694,438.0921,384.29,447.74" style="stroke:#A80036;stroke-width:1.0;"/><!--MD5=[742a261f27a3dcd734c626287d811acd]
link Company to TestType--><path codeLine="11" d="M245.43,370.14 C260.64,393.25 278.19,419.93 293.68,443.46 " fill="none" id="Company-to-TestType" style="stroke:#A80036;stroke-width:1.0;"/><polygon fill="#A80036" points="296.54,447.82,294.9528,438.0999,293.7995,443.6379,288.2615,442.4846,296.54,447.82" style="stroke:#A80036;stroke-width:1.0;"/><text fill="#000000" font-family="sans-serif" font-size="13" lengthAdjust="spacing" textLength="39" x="276.5" y="414.4951">adopts</text><text fill="#000000" font-family="sans-serif" font-size="13" lengthAdjust="spacing" textLength="7" x="242.6262" y="391.7673">1</text><text fill="#000000" font-family="sans-serif" font-size="13" lengthAdjust="spacing" textLength="5" x="286.6089" y="437.199">*</text><!--MD5=[8ca4b6c0478356d0aca58107cdb2023c]
@startuml
'https://plantuml.com/class-diagram

 class NewTestUI
class NewTestController
class Company
class TestType

NewTestUI..>NewTestController
NewTestController..>Company
NewTestController..>TestType
Company "1" - -> "*" TestType : adopts
class NewTestController {
- - - -
registerNewTestController( name, descriptionTest,  code,  collectingMethods)
saveTest()
}
class Company{
-designation
- - - -
+registerNewTestController( name,  descriptionTest,  code,  collectingMethods)
+saveTest(newTest)
+ValidateNewTest(newTest)
-addNewTest
}
class TestType{
-name
-descriptionTest
-code
-collectingMethods
- - - -
+TestType(name, descriptionTest, code,  collectingMethods)
}



@enduml

@startuml

 class NewTestUI
class NewTestController
class Company
class TestType

NewTestUI..>NewTestController
NewTestController..>Company
NewTestController..>TestType
Company "1" - -> "*" TestType : adopts
class NewTestController {
- - - -
registerNewTestController( name, descriptionTest,  code,  collectingMethods)
saveTest()
}
class Company{
-designation
- - - -
+registerNewTestController( name,  descriptionTest,  code,  collectingMethods)
+saveTest(newTest)
+ValidateNewTest(newTest)
-addNewTest
}
class TestType{
-name
-descriptionTest
-code
-collectingMethods
- - - -
+TestType(name, descriptionTest, code,  collectingMethods)
}



@enduml

PlantUML version 1.2021.00(Sun Jan 10 10:25:05 GMT 2021)
(GPL source distribution)
Java Runtime: OpenJDK Runtime Environment
JVM: OpenJDK 64-Bit Server VM
Default Encoding: Cp1252
Language: pt
Country: PT
--></g></svg>